<svg width="1140" height="1024" xmlns="http://www.w3.org/2000/svg" xml:space="preserve" enable-background="new -50 -250 1700 1700" version="1.0">
 <defs>
  <linearGradient y2="0.03412" x2="0.03411" y1="0.96588" x1="0.96588" id="SVGID_1_">
   <stop stop-color="#661DFF" offset="0"/>
   <stop stop-color="#8227F2" offset="0.2123"/>
   <stop stop-color="#C842D1" offset="0.6671"/>
   <stop stop-color="#FF57B7" offset="1"/>
  </linearGradient>
  <linearGradient y2="0.03412" x2="0.03412" y1="0.96588" x1="0.96588" id="SVGID_2_">
   <stop stop-color="#661DFF" offset="0"/>
   <stop stop-color="#8227F2" offset="0.2123"/>
   <stop stop-color="#C842D1" offset="0.6671"/>
   <stop stop-color="#FF57B7" offset="1"/>
  </linearGradient>
  <linearGradient y2="0.0529" x2="0.0529" y1="0.9471" x1="0.9471" id="SVGID_3_">
   <stop stop-color="#CC1A82" offset="0"/>
   <stop stop-color="#D73A9D" offset="0.1271"/>
   <stop stop-color="#E563C0" offset="0.3195"/>
   <stop stop-color="#F084DB" offset="0.5074"/>
   <stop stop-color="#F89BEF" offset="0.6872"/>
   <stop stop-color="#FDA9FB" offset="0.8553"/>
   <stop stop-color="#FFAEFF" offset="1"/>
  </linearGradient>
  <linearGradient y2="0.0529" x2="0.0529" y1="0.9471" x1="0.9471" id="SVGID_4_">
   <stop stop-color="#A4CCD0" offset="0"/>
   <stop stop-color="#34A5DF" offset="1"/>
  </linearGradient>
  <linearGradient y2="0.03412" x2="0.03412" y1="0.96588" x1="0.96588" id="SVGID_5_">
   <stop stop-color="#FFCCFF" offset="0"/>
   <stop stop-color="#34A5DF" offset="1"/>
  </linearGradient>
  <linearGradient y2="0.03412" x2="0.03412" y1="0.96588" x1="0.96588" id="SVGID_6_">
   <stop stop-color="#CC1A82" offset="0"/>
   <stop stop-color="#D73A9D" offset="0.1271"/>
   <stop stop-color="#E563C0" offset="0.3195"/>
   <stop stop-color="#F084DB" offset="0.5074"/>
   <stop stop-color="#F89BEF" offset="0.6872"/>
   <stop stop-color="#FDA9FB" offset="0.8553"/>
   <stop stop-color="#FFAEFF" offset="1"/>
  </linearGradient>
  <linearGradient y2="0.04002" x2="0.04002" y1="0.95998" x1="0.95998" id="SVGID_7_">
   <stop stop-color="#A4CCD0" offset="0"/>
   <stop stop-color="#34A5DF" offset="1"/>
  </linearGradient>
  <linearGradient y2="0.04002" x2="0.04001" y1="0.95998" x1="0.95998" id="SVGID_8_">
   <stop stop-color="#CC1A82" offset="0"/>
   <stop stop-color="#D73A9D" offset="0.1271"/>
   <stop stop-color="#E563C0" offset="0.3195"/>
   <stop stop-color="#F084DB" offset="0.5074"/>
   <stop stop-color="#F89BEF" offset="0.6872"/>
   <stop stop-color="#FDA9FB" offset="0.8553"/>
   <stop stop-color="#FFAEFF" offset="1"/>
  </linearGradient>
  <linearGradient y2="0.5" x2="1" y1="0.5" x1="0" id="SVGID_9_">
   <stop stop-color="#A4CCD0" offset="0"/>
   <stop stop-color="#34A5DF" offset="1"/>
  </linearGradient>
  <linearGradient y2="0.04002" x2="0.04002" y1="0.95998" x1="0.95998" id="SVGID_10_">
   <stop stop-color="#661DFF" offset="0"/>
   <stop stop-color="#8227F2" offset="0.2123"/>
   <stop stop-color="#C842D1" offset="0.6671"/>
   <stop stop-color="#FF57B7" offset="1"/>
  </linearGradient>
 </defs>
 <g>
  <title>Layer 1</title>
  <g id="svg_43">
   <path id="svg_44" d="m657.0219,479.49898l363.10442,363.10578c21.55346,21.55278 21.55346,56.82375 0,78.37585l0,0c-21.55346,21.55414 -56.82307,21.55414 -78.37721,0l-363.10442,-363.1051c-21.55346,-21.55278 -21.55346,-56.82375 0,-78.37653l0.00068,0c21.55346,-21.55346 56.82307,-21.55346 78.37653,0z" fill="url(#SVGID_1_)"/>
   <path id="svg_45" d="m246.72383,97.58392l241.0193,241.01998c14.30627,14.30627 14.30627,37.71771 0,52.02466l0,0c-14.30559,14.30627 -37.71771,14.30627 -52.0233,0l-241.01998,-241.01998c-14.30695,-14.30695 -14.30695,-37.71771 0,-52.02398l0,0c14.30627,-14.30763 37.71771,-14.30763 52.02398,-0.00068z" fill="url(#SVGID_2_)"/>
   <path id="svg_46" d="m282.72141,308.03151l366.7124,366.71308c40.55764,40.55696 40.55764,106.92389 0,147.48153l-0.00068,0c-40.55696,40.55832 -106.92389,40.55832 -147.4822,0l-366.71172,-366.7124c-40.55764,-40.55764 -40.55764,-106.92456 0,-147.4822l0,0c40.55764,-40.55764 106.92389,-40.55764 147.4822,0z" fill="url(#SVGID_3_)"/>
   <path id="svg_47" d="m799.86121,191.6181l303.60372,303.60508c33.57801,33.57733 33.57801,88.52273 0,122.10142l-0.00136,0c-33.57733,33.57801 -88.52205,33.57801 -122.10142,0l-303.60236,-303.6044c-33.57733,-33.57801 -33.57733,-88.52409 0,-122.10142l0,0c33.57733,-33.57869 88.52273,-33.57869 122.10142,-0.00068z" fill="url(#SVGID_4_)"/>
   <path id="svg_48" d="m105.89325,340.89173l363.10578,363.10442c21.55346,21.55414 21.55346,56.82375 0,78.37789l0,0c-21.55346,21.5521 -56.82375,21.5521 -78.37721,0l-363.1051,-363.10578c-21.55346,-21.55346 -21.55346,-56.82307 0,-78.37653l0,0c21.55346,-21.55414 56.82307,-21.55414 78.37653,0z" fill="url(#SVGID_5_)"/>
   <path id="svg_49" d="m727.94005,323.16831l252.61806,252.61942c14.99554,14.99622 14.99554,39.53358 0,54.52777l0,0c-14.99554,14.99622 -39.53358,14.99622 -54.52777,0l-252.61806,-252.61874c-14.99622,-14.99622 -14.99622,-39.5329 0,-54.52844l0,0c14.99554,-14.99554 39.53222,-14.99554 54.52777,0z" fill="url(#SVGID_6_)"/>
   <path id="svg_50" d="m567.03574,351.63553l160.5376,160.53828c11.79977,11.79841 11.79977,31.10682 0,42.90659l0,0c-11.79909,11.79977 -31.10818,11.79977 -42.90727,0l-160.5376,-160.53828c-11.79977,-11.79977 -11.79977,-31.10818 0,-42.90659l0,0c11.79909,-11.80045 31.10818,-11.80045 42.90727,0z" fill="url(#SVGID_7_)"/>
   <path id="svg_51" d="m254.83617,695.36907l160.5376,160.53828c11.80045,11.79773 11.80045,31.1075 0,42.90659l0,0c-11.79909,11.79977 -31.10818,11.79977 -42.90659,0l-160.5376,-160.53828c-11.79909,-11.79977 -11.79909,-31.1075 0,-42.90659l0,0c11.79977,-11.79977 31.1075,-11.79977 42.90659,0z" fill="url(#SVGID_8_)"/>
   <path id="svg_52" d="m483.21295,465.38829c-4.96547,-4.96547 -4.96547,-13.01737 0.00204,-17.98284l0,0c4.96614,-4.96682 13.01873,-4.96682 17.98351,-0.00272l21.68792,21.6886c4.96614,4.96818 4.96614,13.01941 -0.00068,17.98555l0,0c-4.96614,4.96682 -13.01805,4.96818 -17.98419,0.00068l-21.6886,-21.68928z" fill="#7E49C6"/>
   <path id="svg_53" d="m782.79717,336.094c-4.96547,-4.96547 -4.96547,-13.01737 0.00136,-17.98351l0,0c4.96682,-4.96614 13.02009,-4.96614 17.98487,-0.00136l21.68792,21.6886c4.9675,4.96682 4.96614,13.01737 -0.00136,17.98555l0,0c-4.96614,4.96614 -13.01737,4.9675 -17.98351,0.00068l-21.68928,-21.68996z" fill="#7E49C6"/>
   <path id="svg_54" d="m167.86039,645.13855c-4.96547,-4.96479 -4.96547,-13.01737 0.00136,-17.98284l0,0c4.96614,-4.96682 13.01873,-4.96682 17.98419,-0.00204l21.68724,21.6886c4.96682,4.9675 4.96682,13.01941 -0.00068,17.98487l0,0c-4.96614,4.96614 -13.01737,4.96682 -17.98419,0l-21.68792,-21.6886z" fill="#7E49C6"/>
   <path id="svg_55" d="m832.13062,692.63915c-11.67482,-11.67482 -11.67414,-30.60837 0.00272,-42.28659l0,0c11.67889,-11.67889 30.61313,-11.67889 42.28863,-0.00475l50.99585,50.99585c11.67957,11.67889 11.67686,30.61109 -0.00204,42.28998l0,0c-11.67754,11.67822 -30.60905,11.67957 -42.28863,0.00204l-50.99653,-50.99653z" fill="url(#SVGID_9_)"/>
   <path id="svg_56" d="m702.83633,834.54743c-11.67482,-11.67482 -11.67346,-30.60837 0.0034,-42.28659l0,0c11.67889,-11.67957 30.61245,-11.67957 42.28795,-0.00475l50.99653,50.99517c11.67889,11.67957 11.67686,30.61109 -0.00272,42.29066l0,0c-11.67754,11.67754 -30.60905,11.67957 -42.28795,0.00136l-50.99721,-50.99585z" fill="#7E49C6"/>
   <path id="svg_57" d="m482.87952,302.39172c-5.14474,-5.14474 -5.14474,-13.49069 0.00136,-18.63747l0,0c5.14746,-5.14746 13.49205,-5.14746 18.63815,-0.00136l22.47634,22.47702c5.14746,5.14746 5.14542,13.49137 -0.00204,18.63883l0,0c-5.14678,5.1461 -13.49069,5.14746 -18.63747,0.00068l-22.47634,-22.4777z" fill="#7E49C6"/>
   <path id="svg_58" d="m700.99941,434.45735l119.85773,119.85773c8.80976,8.81044 8.80976,23.22469 0,32.03513l0,0c-8.81044,8.80908 -23.22469,8.80908 -32.03513,0l-119.85705,-119.85773c-8.80908,-8.81044 -8.80908,-23.22469 0,-32.03377l0,0c8.80908,-8.81044 23.22469,-8.81044 32.03445,-0.00136z" fill="url(#SVGID_10_)"/>
   <path id="svg_59" d="m212.03483,226.87821l241.01998,241.0193c14.30627,14.30627 14.30627,37.71771 0,52.02466l0,0c-14.30627,14.30559 -37.71771,14.30559 -52.02398,0l-241.01998,-241.0193c-14.30627,-14.30627 -14.30627,-37.71771 0,-52.02466l0,0c14.30695,-14.30695 37.71771,-14.30695 52.02398,0z" fill="#FFFFFF"/>
  </g>
 </g>
</svg>