<svg xmlns="http://www.w3.org/2000/svg" fill="none" viewBox="0 0 1176 884">
  <rect width="600" height="165" x="751.485" y="56.638" fill="url(#a)" rx="82.5" transform="rotate(45 751.485 56.638)"/>
  <rect width="415" height="75" x="234.067" fill="#EE2E5E" rx="37.5" transform="rotate(45 234.067 0)"/>
  <rect width="700" height="190" x="225.243" y="171.778" fill="url(#b)" rx="95" transform="rotate(45 225.243 171.778)"/>
  <rect width="415" height="75" x="201.53" y="129.638" fill="#fff" rx="37.5" transform="rotate(45 201.53 129.638)"/>
  <rect width="615" height="110" x="637.265" y="370.903" fill="url(#c)" rx="55" transform="rotate(45 637.265 370.903)"/>
  <rect width="415" height="75" x="725.033" y="212" fill="#34A5DF" rx="37.5" transform="rotate(45 725.033 212)"/>
  <rect width="300" height="55" x="557.765" y="263.638" fill="url(#d)" rx="27.5" transform="rotate(45 557.765 263.638)"/>
  <rect width="130" height="60" x="867.359" y="553.638" fill="url(#e)" rx="30" transform="rotate(45 867.359 553.638)"/>
  <rect width="130" height="60" x="738.36" y="691.638" fill="#7E49C6" rx="30" transform="rotate(45 738.36 691.638)"/>
  <rect width="290" height="60" x="252.075" y="601.354" fill="url(#f)" rx="30" transform="rotate(45 252.075 601.354)"/>
  <rect width="260" height="50" x="657.793" y="300.049" fill="url(#g)" rx="25" transform="rotate(45 657.793 300.049)"/>
  <rect width="630" height="115" x="81.765" y="226.638" fill="url(#h)" rx="57.5" transform="rotate(45 81.765 226.638)"/>
  <rect width="55" height="25" x="195.037" y="547.235" fill="#7E49C6" rx="12.5" transform="rotate(45 195.037 547.235)"/>
  <rect width="55" height="25" x="505.44" y="356.638" fill="#7E49C6" rx="12.5" transform="rotate(45 505.44 356.638)"/>
  <rect width="55" height="25" x="511.896" y="190.544" fill="#7E49C6" rx="12.5" transform="rotate(45 511.896 190.544)"/>
  <rect width="55" height="25" x="805.678" y="227" fill="#7E49C6" rx="12.5" transform="rotate(45 805.678 227)"/>
  <defs>
    <linearGradient id="a" x1="819.987" x2="1266.17" y1="135.726" y2="137.14" gradientUnits="userSpaceOnUse">
      <stop stop-color="#3AA7DE"/>
      <stop offset="1" stop-color="#9CC9D1"/>
    </linearGradient>
    <linearGradient id="b" x1="846.422" x2="298.414" y1="253.778" y2="253.778" gradientUnits="userSpaceOnUse">
      <stop stop-color="#CF248A"/>
      <stop offset="1" stop-color="#FFADFE"/>
    </linearGradient>
    <linearGradient id="c" x1="691.947" x2="1195.05" y1="425.96" y2="424.899" gradientUnits="userSpaceOnUse">
      <stop stop-color="#F453BD"/>
      <stop offset="1" stop-color="#6D20FC"/>
    </linearGradient>
    <linearGradient id="d" x1="598.139" x2="826.534" y1="295.901" y2="290.951" gradientUnits="userSpaceOnUse">
      <stop stop-color="#3AA7DF"/>
      <stop offset="1" stop-color="#9DCAD2"/>
    </linearGradient>
    <linearGradient id="e" x1="887.16" x2="978.73" y1="577.483" y2="580.665" gradientUnits="userSpaceOnUse">
      <stop stop-color="#8CC4D4"/>
      <stop offset="1" stop-color="#52AFDC"/>
    </linearGradient>
    <linearGradient id="f" x1="299.855" x2="502.795" y1="632.976" y2="632.976" gradientUnits="userSpaceOnUse">
      <stop stop-color="#FFADFE"/>
      <stop offset="1" stop-color="#D83C9E"/>
    </linearGradient>
    <linearGradient id="g" x1="702.453" x2="890.189" y1="326.738" y2="328.506" gradientUnits="userSpaceOnUse">
      <stop stop-color="#F453BD"/>
      <stop offset="1" stop-color="#7221FA"/>
    </linearGradient>
    <linearGradient id="h" x1="167.04" x2="654.943" y1="282.589" y2="282.589" gradientUnits="userSpaceOnUse">
      <stop stop-color="#3CA7E0"/>
      <stop offset="1" stop-color="#F6CBFE"/>
    </linearGradient>
  </defs>
</svg>
