<svg width="674.62" height="552.08" xmlns="http://www.w3.org/2000/svg" xmlns:xlink="http://www.w3.org/1999/xlink" class="illustration styles_illustrationTablet__1DWOa" data-name="Layer 1">
 <defs>
  <linearGradient y2="1.31145" x2="-0.7207" y1="0.35171" x1="0.87087" id="linear-gradient">
   <stop stop-opacity="0" stop-color="#010101" offset="0"/>
   <stop stop-color="#010101" offset="0.95"/>
  </linearGradient>
  <linearGradient xlink:href="#linear-gradient" y2="549.22" x2="200.4" y1="346.45" x1="33.3" id="linear-gradient-2"/>
  <linearGradient xlink:href="#linear-gradient" y2="515.92" x2="215.13" y1="384.31" x1="-26.72" id="linear-gradient-3"/>
  <linearGradient xlink:href="#linear-gradient" y2="482.8" x2="218.39" y1="387.65" x1="-47.83" id="linear-gradient-4"/>
  <linearGradient xlink:href="#linear-gradient" gradientTransform="matrix(-0.96, 0.29, 0.29, 0.96, 176.07, -27.93)" y2="673.68" x2="49.31" y1="615.13" x1="-175.6" id="linear-gradient-5"/>
  <linearGradient xlink:href="#linear-gradient" y2="736.13" x2="227.5" y1="438.16" x1="436.31" id="linear-gradient-6"/>
  <linearGradient xlink:href="#linear-gradient" y2="531.87" x2="218.87" y1="500.15" x1="128.24" id="linear-gradient-7"/>
  <linearGradient xlink:href="#linear-gradient" y2="562.76" x2="346.98" y1="490.83" x1="149.3" id="linear-gradient-8"/>
  <linearGradient xlink:href="#linear-gradient" y2="380.87" x2="220.76" y1="445.44" x1="240.02" id="linear-gradient-9"/>
  <linearGradient xlink:href="#linear-gradient" y2="444.45" x2="252.06" y1="444.45" x1="168.88" id="linear-gradient-10"/>
  <linearGradient y2="0.49937" x2="1.00013" y1="0.49937" x1="0.00148" id="linear-gradient-11">
   <stop stop-color="#e5c6d6" offset="0"/>
   <stop stop-color="#ead4d0" offset="0.42"/>
   <stop stop-color="#f0e9cb" offset="1"/>
  </linearGradient>
  <linearGradient xlink:href="#linear-gradient-11" y2="350.39" x2="242.89" y1="350.39" x1="235.47" id="linear-gradient-12"/>
  <linearGradient xlink:href="#linear-gradient" gradientTransform="translate(-85.49 21) rotate(-6.73)" y2="425.93" x2="227.43" y1="411.97" x1="265.83" id="linear-gradient-13"/>
  <linearGradient xlink:href="#linear-gradient" y2="418.68" x2="374.89" y1="383.65" x1="237.79" id="linear-gradient-14"/>
  <linearGradient xlink:href="#linear-gradient-11" y2="388.66" x2="261.54" y1="388.66" x1="212.8" id="linear-gradient-15"/>
  <linearGradient xlink:href="#linear-gradient" gradientTransform="translate(-90.75 -6.32) rotate(-6.73)" y2="349.47" x2="189.8" y1="424.59" x1="242.84" id="linear-gradient-16"/>
  <linearGradient xlink:href="#linear-gradient-11" y2="344.71" x2="221.16" y1="337.84" x1="236.75" id="linear-gradient-17"/>
 </defs>
 <title>Code Java</title>
 <g>
  <title>Layer 1</title>
  <path id="svg_1" opacity="0.24" fill="#68e1fd" d="m672.58,384.85c-5.92,28.68 -24.5,52.86 -43,75.6c-22.57,27.76 -46.67,55.68 -78.46,72.09c-24.22,12.48 -51,17.39 -78.37,18.91c-9.54,0.57 -19.15,0.69 -28.73,0.61c-10.54,0 -21.08,-0.36 -31.5,-0.77q-44.67,-1.56 -89.32,-3.18q-73.81,-2.59 -147.66,-5.27q-31.92,-1.08 -63.85,-2.25c-21.37,-0.76 -43.54,-1.69 -62.61,-11.39c-30.17,-15.36 -46.43,-50.21 -48.72,-84s7,-67.11 16.26,-99.7q13.69,-48.42 27.42,-96.81q6.77,-23.77 13.48,-47.63c12.72,-44.78 33.48,-106.7 64.3,-142.47c20.76,-24.06 52.26,-35.93 83.08,-43.74a482.22,482.22 0 0 1 116,-14.8c42.13,-0.2 86.79,6.11 119.42,32.75c43.13,35.12 44.26,84.49 61.76,132.45c16.53,45.22 72.62,43.77 108.19,68.72c18.42,12.95 31.26,32.35 41.68,52.3c15.92,30.3 27.55,65.02 20.63,98.58z"/>
  <path id="svg_2" fill="#68e1fd" d="m508.57,400.81c0.46,-18.62 -2.88,-37.11 -3.93,-55.71a193.14,193.14 0 0 0 -73,113.65c-1.35,6.35 -2.38,12.88 -1.6,19.33c1.14,9.46 9.91,26.74 21,27.93c9.93,1.06 23.49,-18 29.26,-25.59c17.29,-22.79 27.57,-50.97 28.27,-79.61z"/>
  <path id="svg_3" fill="url(#linear-gradient)" d="m507.84,401.12c0.46,-18.62 -2.89,-37.11 -3.94,-55.7a193.09,193.09 0 0 0 -73,113.65c-1.36,6.35 -2.39,12.88 -1.61,19.33c1.15,9.45 9.91,26.74 21,27.92c9.93,1.06 23.49,-18 29.27,-25.58c17.3,-22.8 27.57,-50.98 28.28,-79.62z"/>
  <path id="svg_4" fill="url(#linear-gradient-2)" d="m487.48,420.15c0.23,-9.66 -1.5,-19.25 -2.05,-28.9a100.21,100.21 0 0 0 -37.87,58.95a30.64,30.64 0 0 0 -0.83,10c0.59,4.91 5.14,13.87 10.91,14.49c5.15,0.55 12.19,-9.32 15.18,-13.27a72,72 0 0 0 14.66,-41.27z"/>
  <path id="svg_5" fill="#68e1fd" d="m528.48,516.01c4.26,-14 6.38,-29 14.94,-40.84c11.34,-15.64 32.61,-23.43 39.85,-41.34c3.6,-8.9 3,-18.94 1.22,-28.36a18.38,18.38 0 0 0 -2.4,-6.89c-2.68,-4 -8.09,-5.54 -12.8,-4.61s-8.8,3.93 -12.09,7.44c-11.5,12.24 -14.92,30.6 -27,42.27c-12.61,12.2 -32.05,14.62 -45.63,25.72c-12.54,10.29 -29.39,57.5 -25.83,73.29c3.14,13.89 26.59,0.06 41.13,3.41c15.33,3.59 24.87,-17.99 28.61,-30.09z"/>
  <path id="svg_6" fill="url(#linear-gradient-3)" d="m528.48,516.01c4.26,-14 6.38,-29 14.94,-40.84c11.34,-15.64 32.61,-23.43 39.85,-41.34c3.6,-8.9 3,-18.94 1.22,-28.36a18.38,18.38 0 0 0 -2.4,-6.89c-2.68,-4 -8.09,-5.54 -12.8,-4.61s-8.8,3.93 -12.09,7.44c-11.5,12.24 -14.92,30.6 -27,42.27c-12.61,12.2 -32.05,14.62 -45.63,25.72c-12.55,10.26 -32,57.88 -28.47,73.7c3.13,13.88 29.23,-0.32 43.77,3c15.33,3.59 24.87,-17.99 28.61,-30.09z"/>
  <path id="svg_7" fill="url(#linear-gradient-4)" d="m523.96,483.69c12.62,-17.82 34.67,-29.87 39.78,-51.09c0.78,-3.22 0.76,-7.32 -2.08,-9c-3.76,-2.25 -8.07,1.8 -10.65,5.35c-4.41,6.09 -9.09,12.1 -15,16.8c-10.66,8.54 -24.47,12.14 -35.76,19.82c-15.21,10.33 -26.59,29.67 -25.42,48.44c0.47,7.54 4.07,16.18 12.5,17.34c8.77,1.21 14.28,-7 18.29,-13.51c6.85,-11.02 10.83,-23.56 18.34,-34.15z"/>
  <path id="svg_8" fill="#68e1fd" d="m518.26,435.69q1.31,15.54 1.73,31.15c0.36,12.65 0.24,25.6 -4,37.55c-7.31,20.8 -26.17,35.75 -46.46,44.39q-5,-22.67 -11.4,-45c-2.94,-10.27 -5.49,-16.91 0,-26.45c6,-10.5 15.48,-19.76 25.29,-26.7c2.62,-1.8 34.65,-17.19 34.84,-14.94z"/>
  <path id="svg_9" fill="url(#linear-gradient-5)" d="m500.74,461.88q1.08,12.9 1.44,25.85c0.29,10.51 0.19,21.26 -3.29,31.17c-6.07,17.27 -21.43,24.72 -38.27,31.88c-2.77,-12.54 -6.22,-20 -9.75,-32.38c-2.44,-8.52 -4.56,-14 0,-22c5,-8.72 12.85,-16.4 21,-22.16c2.08,-1.47 28.67,-14.25 28.87,-12.36z"/>
  <path id="svg_10" fill="#68e1fd" d="m472.74,549.14l-149.15,-2.27l-0.38,-158.82a74.54,74.54 0 0 1 74.53,-74.54l0.45,0a74.54,74.54 0 0 1 74.55,74.54l0,161.09z"/>
  <path id="svg_11" fill="url(#linear-gradient-6)" d="m472.74,388.27l0,163.18c-9.54,0.57 -19.15,0.69 -28.73,0.61c-10.54,0 -21.08,-0.36 -31.5,-0.77q-44.67,-1.56 -89.32,-3.18l0,-159.84a74.78,74.78 0 1 1 149.55,0z"/>
  <path id="svg_12" fill="#68e1fd" d="m142.07,464.22c-2.47,-7.21 -3.39,-14.87 -5.68,-22.14s-6.3,-14.48 -13,-18.12s-16.43,-2.27 -20.13,4.4a15.61,15.61 0 0 0 -1.52,9.33c1.33,11.26 10.72,20.07 13.22,31.13c1.48,6.57 0.41,13.47 1.38,20.14a33.73,33.73 0 0 0 14.72,23.09c4.49,2.93 9.63,4.75 14.21,7.54a38.57,38.57 0 0 1 14.17,15.24a35.18,35.18 0 0 0 11.51,-27.41c-1.01,-22.26 -22.52,-24.63 -28.88,-43.2z"/>
  <path id="svg_13" fill="url(#linear-gradient-7)" d="m142.07,464.22c-2.47,-7.21 -3.39,-14.87 -5.68,-22.14s-6.3,-14.48 -13,-18.12s-16.43,-2.27 -20.13,4.4a15.61,15.61 0 0 0 -1.52,9.33c1.33,11.26 10.72,20.07 13.22,31.13c1.48,6.57 0.41,13.47 1.38,20.14a33.73,33.73 0 0 0 14.72,23.09c4.49,2.93 9.63,4.75 14.21,7.54a38.57,38.57 0 0 1 14.17,15.24a35.18,35.18 0 0 0 11.51,-27.41c-1.01,-22.26 -22.52,-24.63 -28.88,-43.2z"/>
  <path id="svg_14" fill="#68e1fd" d="m167.9,424.22c-1,-4.74 -0.94,-9.7 -2.4,-14.32s-5,-9.09 -9.82,-9.58c-5.55,-0.55 -10.37,4.59 -11.5,10.06s0.46,11.09 2,16.45l6.15,21c1.91,6.51 3.07,15.12 -2.73,18.63a37.09,37.09 0 0 1 -4.25,1.8a13.65,13.65 0 0 0 -7.88,12.78c0.31,6.61 5.32,11.89 9.68,16.88s8.57,11.35 6.9,17.75c-1.24,4.75 -5.62,8.87 -4.72,13.69c0.75,4 5.12,6.5 9.19,6.53s7.9,-1.77 11.57,-3.54l17.53,-8.47c5.64,-2.73 11.57,-5.7 14.93,-11c2.26,-3.54 3.13,-7.79 3.55,-12a66.92,66.92 0 0 0 -12.14,-45.11c-8.53,-11.95 -22.68,-15.27 -26.06,-31.55z"/>
  <path id="svg_15" fill="url(#linear-gradient-8)" d="m167.9,424.22c-1,-4.74 -0.94,-9.7 -2.4,-14.32s-5,-9.09 -9.82,-9.58c-5.55,-0.55 -10.37,4.59 -11.5,10.06s0.46,11.09 2,16.45l6.15,21c1.91,6.51 3.07,15.12 -2.73,18.63a37.09,37.09 0 0 1 -4.25,1.8a13.65,13.65 0 0 0 -7.88,12.78c0.31,6.61 5.32,11.89 9.68,16.88s8.57,11.35 6.9,17.75c-1.24,4.75 -5.62,8.87 -4.72,13.69c0.75,4 5.12,6.5 9.19,6.53s7.9,-1.77 11.57,-3.54l17.53,-8.47c5.64,-2.73 11.57,-5.7 14.93,-11c2.26,-3.54 3.13,-7.79 3.55,-12a66.92,66.92 0 0 0 -12.14,-45.11c-8.53,-11.95 -22.68,-15.27 -26.06,-31.55z"/>
  <rect id="svg_16" opacity="0.24" fill="#68e1fd" transform="rotate(-180, 724.09, 678.61)" rx="25.68" height="147.23" width="198.56" y="957.95999" x="989.48003"/>
  <g id="svg_17" opacity="0.52">
   <rect id="svg_18" fill="#fff" height="3.9" width="53.13" y="290.12" x="282.2"/>
   <rect id="svg_19" fill="#fff" height="3.66" width="32.43" y="297.66" x="282.2"/>
   <rect id="svg_20" fill="#fff" height="3.68" width="102.04" y="297.66" x="327.71"/>
   <rect id="svg_21" fill="#fff" height="3.86" width="44.59" y="305.22" x="299.06"/>
   <rect id="svg_22" fill="#fff" height="3.9" width="53.13" y="312.75" x="313.37"/>
   <rect id="svg_23" fill="#fff" height="4.33" width="44.53" y="312.75" x="369.97"/>
   <rect id="svg_24" fill="#fff" height="3.66" width="41.02" y="320.29" x="313.3"/>
   <rect id="svg_25" fill="#fff" height="4.05" width="84.65" y="320.29" x="358.26"/>
   <rect id="svg_26" fill="#fff" height="3.9" width="53.13" y="330.5" x="282.2"/>
   <rect id="svg_27" fill="#fff" height="3.66" width="32.43" y="338.03" x="282.2"/>
   <rect id="svg_28" fill="#fff" height="3.68" width="102.04" y="338.03" x="327.71"/>
   <rect id="svg_29" fill="#fff" height="3.86" width="44.59" y="345.57" x="299.06"/>
   <rect id="svg_30" fill="#fff" height="3.9" width="53.13" y="353.13" x="313.37"/>
   <rect id="svg_31" fill="#fff" height="4.33" width="44.53" y="353.13" x="369.97"/>
   <rect id="svg_32" fill="#fff" height="3.66" width="41.02" y="360.67" x="313.3"/>
   <rect id="svg_33" fill="#fff" height="4.05" width="84.65" y="360.67" x="358.26"/>
  </g>
  <rect id="svg_34" fill="#fff" transform="rotate(-180, 915.98, 473.9)" rx="16.99" height="97.43" width="131.4" y="675.78999" x="1310.89998"/>
  <g id="svg_35" opacity="0.52">
   <rect id="svg_36" fill="#68e1fd" height="2.58" width="35.16" y="199.78" x="404.26"/>
   <rect id="svg_37" fill="#68e1fd" height="2.42" width="21.46" y="204.77" x="404.26"/>
   <rect id="svg_38" fill="#68e1fd" height="2.44" width="67.53" y="204.77" x="434.38"/>
   <rect id="svg_39" fill="#68e1fd" height="2.55" width="29.51" y="209.77" x="415.42"/>
   <rect id="svg_40" fill="#68e1fd" height="2.58" width="35.16" y="214.76" x="424.89"/>
   <rect id="svg_41" fill="#68e1fd" height="2.86" width="29.47" y="214.76" x="462.34"/>
   <rect id="svg_42" fill="#68e1fd" height="2.42" width="27.15" y="219.75" x="424.84"/>
   <rect id="svg_43" fill="#68e1fd" height="2.68" width="56.02" y="219.75" x="454.59"/>
   <rect id="svg_44" fill="#68e1fd" height="2.58" width="35.16" y="226.5" x="404.26"/>
   <rect id="svg_45" fill="#68e1fd" height="2.42" width="21.46" y="231.49" x="404.26"/>
   <rect id="svg_46" fill="#68e1fd" height="2.44" width="67.53" y="231.49" x="434.38"/>
   <rect id="svg_47" fill="#68e1fd" height="2.55" width="29.51" y="236.48" x="415.42"/>
   <rect id="svg_48" fill="#68e1fd" height="2.58" width="35.16" y="241.48" x="424.89"/>
   <rect id="svg_49" fill="#68e1fd" height="2.86" width="29.47" y="241.48" x="462.34"/>
   <rect id="svg_50" fill="#68e1fd" height="2.42" width="27.15" y="246.47" x="424.84"/>
   <rect id="svg_51" fill="#68e1fd" height="2.68" width="56.02" y="246.47" x="454.59"/>
  </g>
  <rect id="svg_52" fill="#fff" transform="rotate(-180, 280.92, 658.08)" rx="16.72" height="95.89" width="129.32" y="952.83002" x="359.35001"/>
  <g id="svg_53" opacity="0.52">
   <rect id="svg_54" fill="#68e1fd" height="2.54" width="34.6" y="292.24" x="87.55"/>
   <rect id="svg_55" fill="#68e1fd" height="2.38" width="21.12" y="297.15" x="87.55"/>
   <rect id="svg_56" fill="#68e1fd" height="2.4" width="66.45" y="297.15" x="117.18"/>
   <rect id="svg_57" fill="#68e1fd" height="2.51" width="29.04" y="302.07" x="98.53"/>
   <rect id="svg_58" fill="#68e1fd" height="2.54" width="34.6" y="306.98" x="107.85"/>
   <rect id="svg_59" fill="#68e1fd" height="2.82" width="29" y="306.98" x="144.7"/>
   <rect id="svg_60" fill="#68e1fd" height="2.38" width="26.72" y="311.89" x="107.8"/>
   <rect id="svg_61" fill="#68e1fd" height="2.64" width="55.13" y="311.89" x="137.08"/>
   <rect id="svg_62" fill="#68e1fd" height="2.54" width="34.6" y="318.54" x="87.55"/>
   <rect id="svg_63" fill="#68e1fd" height="2.38" width="21.12" y="323.45" x="87.55"/>
   <rect id="svg_64" fill="#68e1fd" height="2.4" width="66.45" y="323.45" x="117.18"/>
   <rect id="svg_65" fill="#68e1fd" height="2.51" width="29.04" y="328.36" x="98.53"/>
   <rect id="svg_66" fill="#68e1fd" height="2.54" width="34.6" y="333.28" x="107.85"/>
   <rect id="svg_67" fill="#68e1fd" height="2.82" width="29" y="333.28" x="144.7"/>
   <rect id="svg_68" fill="#68e1fd" height="2.38" width="26.72" y="338.19" x="107.8"/>
   <rect id="svg_69" fill="#68e1fd" height="2.64" width="55.13" y="338.19" x="137.08"/>
  </g>
  <g id="svg_70" opacity="0.24">
   <path id="svg_71" fill="#68e1fd" d="m350.97,136.45l0,78.88a17.51,17.51 0 0 1 -17.5,17.5l-83.15,0l-24.58,24.53l-19.18,-24.53l-85.1,0a17.46,17.46 0 0 1 -17.45,-17.5l0,-78.88a17.5,17.5 0 0 1 17.45,-17.5l212,0a17.54,17.54 0 0 1 17.51,17.5z"/>
  </g>
  <rect id="svg_72" fill="#fff" rx="17.48" height="113.87" width="246.92" y="108.52" x="104.03"/>
  <polygon id="svg_73" fill="#fff" points="202.76 217.69 225.79 247.12 253.94 218.97 202.76 217.69"/>
  <path id="svg_74" fill="#68e1fd" d="m149.42,159.45l24.43,-12.57l0,3.63l-20.59,10.32l0,0.1l20.59,10.32l0,3.63l-24.43,-12.58l0,-2.85z"/>
  <path id="svg_79" fill="#68e1fd" d="m292.37,162.35l-24.42,12.53l0,-3.63l20.79,-10.32l0,-0.1l-20.74,-10.32l0,-3.63l24.42,12.52l-0.05,2.95z"/>
  <path id="svg_80" fill="#68e1fd" d="m444.01,476.82l0,75.24c-10.54,0 -21.08,-0.36 -31.5,-0.77q-118.47,-4.15 -237,-8.45l0,-66a83.66,83.66 0 0 1 83.65,-83.65l101.24,0a83.63,83.63 0 0 1 83.61,83.63z"/>
  <path id="svg_81" fill="url(#linear-gradient-9)" d="m235.6,414.61c10.58,-1.17 21.75,-3.23 29.64,-10.39c1.86,-1.7 3.61,-4.29 2.55,-6.58c-0.95,-2.06 -3.58,-2.6 -5.84,-2.78c-16.24,-1.29 -32.49,2.65 -47.75,8.37c-5.67,2.13 -11.72,4.68 -15.6,9.55c-2.62,3.29 -4.53,10.84 2.15,10.84c2.35,0 5.13,-2.54 7.23,-3.48a47.89,47.89 0 0 1 8.87,-2.89c6.15,-1.44 12.48,-1.94 18.75,-2.64z"/>
  <path id="svg_82" fill="#606161" d="m230.25,382.25l-13.92,-2.38s-37.1,15 -40.78,20.4s-5.67,45.31 -5.67,45.31s-7.5,6.51 -6.09,8.49s14.45,-5.8 14.45,-5.8l10.19,-30.87l58.37,-33.22l-16.55,-1.93z"/>
  <path id="svg_83" fill="url(#linear-gradient-10)" d="m230.25,382.25l-13.92,-2.38s-37.1,15 -40.78,20.4s-5.67,45.31 -5.67,45.31s-7.5,6.51 -6.09,8.49s14.45,-5.8 14.45,-5.8l10.19,-30.87l58.37,-33.22l-16.55,-1.93z"/>
  <path id="svg_84" fill="url(#linear-gradient-11)" d="m215.4,358.19c-1.68,1.65 -4,2.15 -5.87,3.5s-3.84,2.2 -5.45,3.58a6.13,6.13 0 0 0 -2,5.73a1.23,1.23 0 0 0 0.35,0.73a1.24,1.24 0 0 0 1.13,0a18.72,18.72 0 0 0 5.18,-3.04a0.82,0.82 0 0 1 0.71,-0.22c0.29,0.11 0.36,0.49 0.56,0.73a1,1 0 0 0 1.43,0a3.52,3.52 0 0 0 0.81,-1.34c1.21,-2.85 5.34,-3.05 8.19,-2.8c3.48,0.3 2.3,-1.33 2.77,-1.77s-2.73,-2.17 -2.47,-2.89a30.81,30.81 0 0 0 1.78,-9.41a5.24,5.24 0 0 0 -0.37,-2.52c-1.77,-3.52 -3.23,1.93 -3.64,3.29c-0.7,2.24 -1.34,4.7 -3.11,6.43z"/>
  <path id="svg_85" fill="#fff" d="m218.27,345.93a2,2 0 0 0 0,1.22a2,2 0 0 0 0.73,0.83a11.84,11.84 0 0 0 3.9,1.88a3.23,3.23 0 0 0 1.3,0.15a3.45,3.45 0 0 0 2,-1.26a18.6,18.6 0 0 0 4.55,-10.63c0.19,-1.76 0.81,-8.2 -0.66,-9.48c-1.65,-1.44 -3.7,1.89 -4.81,3.28a36.67,36.67 0 0 0 -7.01,14.01z"/>
  <path id="svg_86" fill="#fff" d="m226.68,333.19c-4.23,10.25 -5.92,21.42 -6,32.51c0,3.56 -5.15,12.39 -2.35,14.6c1.68,1.33 1.85,1.25 4,1.56c5,0.72 22,11.19 26.9,10.33s9.58,-29.6 9.51,-33.5c-0.17,-10.84 -1.11,-23.89 -9.51,-31.84c-3.23,-3.05 -7.34,-6.59 -12,-5.25c-5.49,1.6 -8.49,6.65 -10.55,11.59z"/>
  <path id="svg_87" fill="url(#linear-gradient-12)" d="m231.32,328.1c0,0.8 0,1.79 0.69,2.15a1.54,1.54 0 0 0 0.95,0.1a4.92,4.92 0 0 0 3.1,-2.4a9.63,9.63 0 0 0 1.49,-6.41a8.69,8.69 0 0 0 -2.75,-5.17a1.7,1.7 0 0 0 -1.34,-0.57a1.75,1.75 0 0 0 -0.73,0.4a10,10 0 0 0 -2.19,2.26c-0.6,0.93 -0.24,1.46 0,2.47a23.73,23.73 0 0 1 0.78,7.17z"/>
  <polygon id="svg_88" fill="#68e1fd" points="170.88 356.08 188.17 381.43 207.44 392.59 231.28 381.63 226.02 378.29 210.09 366.96 197.21 373.21 193.25 366.42 170.88 356.08"/>
  <path id="svg_89" fill="url(#linear-gradient-13)" d="m197.21,373.22s9.88,14.17 9.94,14.67s19.2,-8 19.2,-8l-16.26,-13l-12.88,6.33z"/>
  <path id="svg_90" fill="url(#linear-gradient-14)" d="m239.99,336.56s-2.85,17.37 -2.11,18.66s4.5,2.85 4.5,2.85s-1.28,6.89 -10.11,8.55s-7,8.91 -7,8.91s4.78,3.31 13.43,2.21s13,-1.29 15.07,-4.6s3.5,-16 2,-21.14s-15.78,-15.44 -15.78,-15.44z"/>
  <path id="svg_91" fill="url(#linear-gradient-15)" d="m242.68,362.86c-3.25,3.13 -7.81,4.46 -12.23,5.38a97.44,97.44 0 0 1 -11.41,1.68c-2.63,0.24 -5.36,0.39 -7.72,1.59s-4.24,3.81 -3.68,6.39q13.24,-0.7 26.48,-1.6c4.69,-0.32 9.45,-0.67 13.89,-2.2c3.11,-1.07 6.23,-2.94 7.46,-6a12.26,12.26 0 0 0 0.72,-3.84a75.89,75.89 0 0 0 -0.21,-9.77a16.33,16.33 0 0 0 -1.29,-6.4c-2.3,-4.6 -8.07,-4.4 -8.88,0.6c-0.87,5.35 1.56,9.66 -3.13,14.17z"/>
  <path id="svg_92" fill="#fff" d="m238.25,333.57l6.06,20s13,-0.41 14.35,-2.76s-3.12,-20.12 -9.42,-23.93s-10.86,0.62 -10.99,6.69z"/>
  <path id="svg_93" fill="#606161" d="m230.25,382.25l-46.06,24.54l-3.59,43.3s-7.17,6.62 -7.17,8.55s3.86,0.83 9.66,-1.38a34,34 0 0 0 8.82,-4.69l8,-36.4s47.71,-6.62 51.3,-16.55a13.25,13.25 0 0 0 -4.41,-15.44l-16.55,-1.93z"/>
  <polygon id="svg_94" fill="url(#linear-gradient-16)" points="187.95 380.91 205.82 391.59 190.56 368.68 172.27 358.79 187.95 380.91"/>
  <path id="svg_95" fill="url(#linear-gradient-17)" d="m219.74,320.61a13,13 0 0 0 2,2.8a7.51,7.51 0 0 0 8.62,1.23a8.89,8.89 0 0 0 4.06,-5.23a14.67,14.67 0 0 0 0.32,-6.72a13.73,13.73 0 0 0 -4.2,-8.33a13.94,13.94 0 0 0 -6,-2.75a7.35,7.35 0 0 0 -3.16,-0.16a8.37,8.37 0 0 0 -2.74,1.36a12.52,12.52 0 0 0 -2.55,2.09c-3.58,4.18 1.52,12.05 3.65,15.71z"/>
  <path id="svg_96" fill="#606161" d="m231.99,312.42a1.53,1.53 0 0 0 0.61,-1.33c0,-0.51 -0.12,-1 -0.12,-1.53a0.78,0.78 0 0 1 0.08,-0.4c0.22,-0.41 0.88,-0.23 1.18,0.13c0.79,1 0.28,2.41 0.32,3.67a3.94,3.94 0 0 0 1.05,2.5a14.19,14.19 0 0 0 -1.29,-12.53a4,4 0 0 1 -0.59,-1.1c-0.24,-0.82 0.09,-1.7 -0.05,-2.54c-0.22,-1.42 -1.71,-2.32 -3.14,-2.53s-2.88,0.07 -4.32,0c-1,-0.07 -2,-0.31 -2.95,-0.34a11.71,11.71 0 0 0 -3.1,0.43c-2.4,0.59 -4.86,1.46 -6.52,3.29c-2,2.17 -2.48,5.28 -2.64,8.21c-0.09,1.69 0,3.61 1.27,4.73a4.78,4.78 0 0 0 3.47,0.9a5.74,5.74 0 0 0 3.58,-1.28a11.37,11.37 0 0 0 2.09,-3.59a0.74,0.74 0 0 1 0.29,-0.34a0.67,0.67 0 0 1 0.42,0a14.52,14.52 0 0 0 2.83,0.46a3.5,3.5 0 0 0 2.62,-1a0.72,0.72 0 0 1 0.39,-0.28a0.56,0.56 0 0 1 0.35,0.09a12.59,12.59 0 0 1 2.73,1.34a11.29,11.29 0 0 1 1.44,3.04z"/>
 </g>
</svg>