<svg version="1.2" xmlns="http://www.w3.org/2000/svg" viewBox="0 0 1200 800" width="1200" height="800">
	<title>2432-ai</title>
	<style>
		.s0 { fill: #ff0b53 } 
		.s1 { fill: #ffffff } 
		.s2 { fill: none;stroke: #ff0b53;stroke-width: 4 } 
		.s3 { fill: none;stroke: #ffffff } 
	</style>
	<circle id="&lt;Path&gt;" class="s0" cx="303.3" cy="193" r="141.1"/>
	<path id="dots" class="s1" d="m92.7 17.3c0 1.6-1.3 2.9-2.9 2.9-1.7 0-3-1.3-3-2.9 0-1.6 1.3-2.9 3-2.9 1.6 0 2.9 1.3 2.9 2.9zm127.5 0c0 1.6-1.3 2.9-2.9 2.9-1.6 0-2.9-1.3-2.9-2.9 0-1.6 1.3-2.9 2.9-2.9 1.6 0 2.9 1.3 2.9 2.9zm127.6 0c0 1.6-1.3 2.9-2.9 2.9-1.6 0-2.9-1.3-2.9-2.9 0-1.6 1.3-2.9 2.9-2.9 1.6 0 2.9 1.3 2.9 2.9zm127.5 0c0 1.6-1.3 2.9-2.9 2.9-1.6 0-2.9-1.3-2.9-2.9 0-1.6 1.3-2.9 2.9-2.9 1.6 0 2.9 1.3 2.9 2.9zm127.6 0c0 1.6-1.3 2.9-2.9 2.9-1.6 0-2.9-1.3-2.9-2.9 0-1.6 1.3-2.9 2.9-2.9 1.6 0 2.9 1.3 2.9 2.9zm127.6 0c0 1.6-1.3 2.9-2.9 2.9-1.6 0-2.9-1.3-2.9-2.9 0-1.6 1.3-2.9 2.9-2.9 1.6 0 2.9 1.3 2.9 2.9zm127.5 0c0 1.6-1.3 2.9-2.9 2.9-1.6 0-2.9-1.3-2.9-2.9 0-1.6 1.3-2.9 2.9-2.9 1.6 0 2.9 1.3 2.9 2.9zm127.6 0c0 1.6-1.3 2.9-2.9 2.9-1.6 0-2.9-1.3-2.9-2.9 0-1.6 1.3-2.9 2.9-2.9 1.6 0 2.9 1.3 2.9 2.9zm127.6 0c0 1.6-1.3 2.9-3 2.9-1.6 0-2.9-1.3-2.9-2.9 0-1.6 1.3-2.9 2.9-2.9 1.7 0 3 1.3 3 2.9zm-1020.5 127.6c0 1.6-1.3 2.9-2.9 2.9-1.7 0-3-1.3-3-2.9 0-1.6 1.3-2.9 3-2.9 1.6 0 2.9 1.3 2.9 2.9zm127.5 0c0 1.6-1.3 2.9-2.9 2.9-1.6 0-2.9-1.3-2.9-2.9 0-1.6 1.3-2.9 2.9-2.9 1.6 0 2.9 1.3 2.9 2.9zm127.6 0c0 1.6-1.3 2.9-2.9 2.9-1.6 0-2.9-1.3-2.9-2.9 0-1.6 1.3-2.9 2.9-2.9 1.6 0 2.9 1.3 2.9 2.9zm127.5 0c0 1.6-1.3 2.9-2.9 2.9-1.6 0-2.9-1.3-2.9-2.9 0-1.6 1.3-2.9 2.9-2.9 1.6 0 2.9 1.3 2.9 2.9zm127.6 0c0 1.6-1.3 2.9-2.9 2.9-1.6 0-2.9-1.3-2.9-2.9 0-1.6 1.3-2.9 2.9-2.9 1.6 0 2.9 1.3 2.9 2.9zm127.6 0c0 1.6-1.3 2.9-2.9 2.9-1.6 0-2.9-1.3-2.9-2.9 0-1.6 1.3-2.9 2.9-2.9 1.6 0 2.9 1.3 2.9 2.9zm127.5 0c0 1.6-1.3 2.9-2.9 2.9-1.6 0-2.9-1.3-2.9-2.9 0-1.6 1.3-2.9 2.9-2.9 1.6 0 2.9 1.3 2.9 2.9zm127.6 0c0 1.6-1.3 2.9-2.9 2.9-1.6 0-2.9-1.3-2.9-2.9 0-1.6 1.3-2.9 2.9-2.9 1.6 0 2.9 1.3 2.9 2.9zm127.6 0c0 1.6-1.3 2.9-3 2.9-1.6 0-2.9-1.3-2.9-2.9 0-1.6 1.3-2.9 2.9-2.9 1.7 0 3 1.3 3 2.9zm-1020.5 127.5c0 1.6-1.3 2.9-2.9 2.9-1.7 0-3-1.3-3-2.9 0-1.6 1.3-2.9 3-2.9 1.6 0 2.9 1.3 2.9 2.9zm127.5 0c0 1.6-1.3 2.9-2.9 2.9-1.6 0-2.9-1.3-2.9-2.9 0-1.6 1.3-2.9 2.9-2.9 1.6 0 2.9 1.3 2.9 2.9zm127.6 0c0 1.6-1.3 2.9-2.9 2.9-1.6 0-2.9-1.3-2.9-2.9 0-1.6 1.3-2.9 2.9-2.9 1.6 0 2.9 1.3 2.9 2.9zm127.5 0c0 1.6-1.3 2.9-2.9 2.9-1.6 0-2.9-1.3-2.9-2.9 0-1.6 1.3-2.9 2.9-2.9 1.6 0 2.9 1.3 2.9 2.9zm127.6 0c0 1.6-1.3 2.9-2.9 2.9-1.6 0-2.9-1.3-2.9-2.9 0-1.6 1.3-2.9 2.9-2.9 1.6 0 2.9 1.3 2.9 2.9zm127.6 0c0 1.6-1.3 2.9-2.9 2.9-1.6 0-2.9-1.3-2.9-2.9 0-1.6 1.3-2.9 2.9-2.9 1.6 0 2.9 1.3 2.9 2.9zm127.5 0c0 1.6-1.3 2.9-2.9 2.9-1.6 0-2.9-1.3-2.9-2.9 0-1.6 1.3-2.9 2.9-2.9 1.6 0 2.9 1.3 2.9 2.9zm127.6 0c0 1.6-1.3 2.9-2.9 2.9-1.6 0-2.9-1.3-2.9-2.9 0-1.6 1.3-2.9 2.9-2.9 1.6 0 2.9 1.3 2.9 2.9zm127.6 0c0 1.6-1.3 2.9-3 2.9-1.6 0-2.9-1.3-2.9-2.9 0-1.6 1.3-2.9 2.9-2.9 1.7 0 3 1.3 3 2.9zm-1020.5 127.6c0 1.6-1.3 2.9-2.9 2.9-1.7 0-3-1.3-3-2.9 0-1.6 1.3-2.9 3-2.9 1.6 0 2.9 1.3 2.9 2.9zm127.5 0c0 1.6-1.3 2.9-2.9 2.9-1.6 0-2.9-1.3-2.9-2.9 0-1.6 1.3-2.9 2.9-2.9 1.6 0 2.9 1.3 2.9 2.9zm127.6 0c0 1.6-1.3 2.9-2.9 2.9-1.6 0-2.9-1.3-2.9-2.9 0-1.6 1.3-2.9 2.9-2.9 1.6 0 2.9 1.3 2.9 2.9zm127.5 0c0 1.6-1.3 2.9-2.9 2.9-1.6 0-2.9-1.3-2.9-2.9 0-1.6 1.3-2.9 2.9-2.9 1.6 0 2.9 1.3 2.9 2.9zm127.6 0c0 1.6-1.3 2.9-2.9 2.9-1.6 0-2.9-1.3-2.9-2.9 0-1.6 1.3-2.9 2.9-2.9 1.6 0 2.9 1.3 2.9 2.9zm127.6 0c0 1.6-1.3 2.9-2.9 2.9-1.6 0-2.9-1.3-2.9-2.9 0-1.6 1.3-2.9 2.9-2.9 1.6 0 2.9 1.3 2.9 2.9zm127.5 0c0 1.6-1.3 2.9-2.9 2.9-1.6 0-2.9-1.3-2.9-2.9 0-1.6 1.3-2.9 2.9-2.9 1.6 0 2.9 1.3 2.9 2.9zm127.6 0c0 1.6-1.3 2.9-2.9 2.9-1.6 0-2.9-1.3-2.9-2.9 0-1.6 1.3-2.9 2.9-2.9 1.6 0 2.9 1.3 2.9 2.9zm127.6 0c0 1.6-1.3 2.9-3 2.9-1.6 0-2.9-1.3-2.9-2.9 0-1.6 1.3-2.9 2.9-2.9 1.7 0 3 1.3 3 2.9zm-1020.5 127.6c0 1.6-1.3 2.9-2.9 2.9-1.7 0-3-1.3-3-2.9 0-1.6 1.3-2.9 3-2.9 1.6 0 2.9 1.3 2.9 2.9zm127.5 0c0 1.6-1.3 2.9-2.9 2.9-1.6 0-2.9-1.3-2.9-2.9 0-1.6 1.3-2.9 2.9-2.9 1.6 0 2.9 1.3 2.9 2.9zm127.6 0c0 1.6-1.3 2.9-2.9 2.9-1.6 0-2.9-1.3-2.9-2.9 0-1.6 1.3-2.9 2.9-2.9 1.6 0 2.9 1.3 2.9 2.9zm127.5 0c0 1.6-1.3 2.9-2.9 2.9-1.6 0-2.9-1.3-2.9-2.9 0-1.6 1.3-2.9 2.9-2.9 1.6 0 2.9 1.3 2.9 2.9zm127.6 0c0 1.6-1.3 2.9-2.9 2.9-1.6 0-2.9-1.3-2.9-2.9 0-1.6 1.3-2.9 2.9-2.9 1.6 0 2.9 1.3 2.9 2.9zm127.6 0c0 1.6-1.3 2.9-2.9 2.9-1.6 0-2.9-1.3-2.9-2.9 0-1.6 1.3-2.9 2.9-2.9 1.6 0 2.9 1.3 2.9 2.9zm127.5 0c0 1.6-1.3 2.9-2.9 2.9-1.6 0-2.9-1.3-2.9-2.9 0-1.6 1.3-2.9 2.9-2.9 1.6 0 2.9 1.3 2.9 2.9zm127.6 0c0 1.6-1.3 2.9-2.9 2.9-1.6 0-2.9-1.3-2.9-2.9 0-1.6 1.3-2.9 2.9-2.9 1.6 0 2.9 1.3 2.9 2.9zm127.6 0c0 1.6-1.3 2.9-3 2.9-1.6 0-2.9-1.3-2.9-2.9 0-1.6 1.3-2.9 2.9-2.9 1.7 0 3 1.3 3 2.9zm-1020.5 127.5c0 1.6-1.3 2.9-2.9 2.9-1.7 0-3-1.3-3-2.9 0-1.6 1.3-2.9 3-2.9 1.6 0 2.9 1.3 2.9 2.9zm127.5 0c0 1.6-1.3 2.9-2.9 2.9-1.6 0-2.9-1.3-2.9-2.9 0-1.6 1.3-2.9 2.9-2.9 1.6 0 2.9 1.3 2.9 2.9zm127.6 0c0 1.6-1.3 2.9-2.9 2.9-1.6 0-2.9-1.3-2.9-2.9 0-1.6 1.3-2.9 2.9-2.9 1.6 0 2.9 1.3 2.9 2.9zm127.5 0c0 1.6-1.3 2.9-2.9 2.9-1.6 0-2.9-1.3-2.9-2.9 0-1.6 1.3-2.9 2.9-2.9 1.6 0 2.9 1.3 2.9 2.9zm127.6 0c0 1.6-1.3 2.9-2.9 2.9-1.6 0-2.9-1.3-2.9-2.9 0-1.6 1.3-2.9 2.9-2.9 1.6 0 2.9 1.3 2.9 2.9zm127.6 0c0 1.6-1.3 2.9-2.9 2.9-1.6 0-2.9-1.3-2.9-2.9 0-1.6 1.3-2.9 2.9-2.9 1.6 0 2.9 1.3 2.9 2.9zm127.5 0c0 1.6-1.3 2.9-2.9 2.9-1.6 0-2.9-1.3-2.9-2.9 0-1.6 1.3-2.9 2.9-2.9 1.6 0 2.9 1.3 2.9 2.9zm127.6 0c0 1.6-1.3 2.9-2.9 2.9-1.6 0-2.9-1.3-2.9-2.9 0-1.6 1.3-2.9 2.9-2.9 1.6 0 2.9 1.3 2.9 2.9zm127.6 0c0 1.6-1.3 2.9-3 2.9-1.6 0-2.9-1.3-2.9-2.9 0-1.6 1.3-2.9 2.9-2.9 1.7 0 3 1.3 3 2.9zm-1020.5 127.6c0 1.6-1.3 2.9-2.9 2.9-1.7 0-3-1.3-3-2.9 0-1.6 1.3-2.9 3-2.9 1.6 0 2.9 1.3 2.9 2.9zm127.5 0c0 1.6-1.3 2.9-2.9 2.9-1.6 0-2.9-1.3-2.9-2.9 0-1.6 1.3-2.9 2.9-2.9 1.6 0 2.9 1.3 2.9 2.9zm127.6 0c0 1.6-1.3 2.9-2.9 2.9-1.6 0-2.9-1.3-2.9-2.9 0-1.6 1.3-2.9 2.9-2.9 1.6 0 2.9 1.3 2.9 2.9zm127.5 0c0 1.6-1.3 2.9-2.9 2.9-1.6 0-2.9-1.3-2.9-2.9 0-1.6 1.3-2.9 2.9-2.9 1.6 0 2.9 1.3 2.9 2.9zm127.6 0c0 1.6-1.3 2.9-2.9 2.9-1.6 0-2.9-1.3-2.9-2.9 0-1.6 1.3-2.9 2.9-2.9 1.6 0 2.9 1.3 2.9 2.9zm127.6 0c0 1.6-1.3 2.9-2.9 2.9-1.6 0-2.9-1.3-2.9-2.9 0-1.6 1.3-2.9 2.9-2.9 1.6 0 2.9 1.3 2.9 2.9zm127.5 0c0 1.6-1.3 2.9-2.9 2.9-1.6 0-2.9-1.3-2.9-2.9 0-1.6 1.3-2.9 2.9-2.9 1.6 0 2.9 1.3 2.9 2.9zm127.6 0c0 1.6-1.3 2.9-2.9 2.9-1.6 0-2.9-1.3-2.9-2.9 0-1.6 1.3-2.9 2.9-2.9 1.6 0 2.9 1.3 2.9 2.9zm127.6 0c0 1.6-1.3 2.9-3 2.9-1.6 0-2.9-1.3-2.9-2.9 0-1.6 1.3-2.9 2.9-2.9 1.7 0 3 1.3 3 2.9z"/>
	<path id="&lt;Path&gt;" class="s2" d="m144.7 623.7l-31.5 31.4 31.5 31.5-23.5 23.5-31.4-31.5-31.5 31.5-23.5-23.5 31.5-31.5-31.5-31.4 23.5-23.5 31.5 31.4 31.4-31.4z"/>
	<path id="&lt;Compound Path&gt;" fill-rule="evenodd" class="s0" d="m1216-10.5c0 127.3-103.1 230.4-230.4 230.4-127.3 0-230.4-103.1-230.4-230.4 0-127.3 103.1-230.4 230.4-230.4 127.3 0 230.4 103.1 230.4 230.4zm-115.8 0c0-63.3-51.3-114.6-114.6-114.6-63.3 0-114.6 51.3-114.6 114.6 0 63.3 51.3 114.6 114.6 114.6 63.3 0 114.6-51.3 114.6-114.6z"/>
	<path id="line1" class="s3" d="m-43 29.4q50.9 89.8 176.6 73.8c140.9-17.9 201.5 85.8 166.6 156.6-34.9 70.8-190 85.8-168.3 200.5q21.6 114.8-166.9 166.6m-45.9-493.8q107.4 38.9 214.3 25c106.9-14 119.4 48.8 106.9 73.8-25.9 51.9-164.6 61.8-173.5 145.6-6.8 63 46.8 147.7-74.9 192.6m-24.9-395.1q109.8-14 90.2 47.9c-22.5 71-75.2 69.8-25.4 159.6 17.8 32 23 160.6-74.8 134.7m245.4-297.3c0 14.9-22.1 26.9-49.4 26.9-27.2 0-49.3-12-49.3-26.9 0-14.9 22.1-26.9 49.3-26.9 27.3 0 49.4 12 49.4 26.9z"/>
	<path id="line2" class="s3" d="m660 800c5.3-41.8 57.2-50 146.3-88.6 89.1-38.6 92.7-115.1 135.7-255.4q59.9-195.5 258-149m-305.9 493q-52.3-129.8 85.7-197.7c93.1-45.8 49.5-201.2 109.9-250.7q47.8-39.2 110.3 45.5m-265 438q1.6-100.4 108-166.3c106.4-65.8 64.8-179.6 125.9-196.9q61.2-17.2 122.4 57.2m-281.5 270.1q-7.9-82.5 73.2-93.1 81.1-10.7 150.3 79.5"/>
	<path id="&lt;Path&gt;" class="s0" d="m1298.6 346.4l-56.5 56.5 56.5 56.5-42.1 42.1-56.5-56.4-56.5 56.4-42.1-42.1 56.5-56.5-56.5-56.5 42.1-42.1 56.5 56.5 56.5-56.5z"/>
</svg>