<svg width="577" height="234" viewBox="0 0 577 234" fill="none" xmlns="http://www.w3.org/2000/svg">
<g id="hero-text">
<g id="import slogan">
<path d="M165.814 17.824C164.734 17.824 163.846 17.512 163.15 16.888C162.478 16.24 162.142 15.448 162.142 14.512C162.142 13.552 162.478 12.76 163.15 12.136C163.846 11.488 164.734 11.164 165.814 11.164C166.87 11.164 167.734 11.488 168.406 12.136C169.102 12.76 169.45 13.552 169.45 14.512C169.45 15.448 169.102 16.24 168.406 16.888C167.734 17.512 166.87 17.824 165.814 17.824ZM168.874 19.912V40H162.718V19.912H168.874ZM198.968 19.696C201.464 19.696 203.444 20.452 204.908 21.964C206.396 23.476 207.14 25.576 207.14 28.264V40H201.02V29.092C201.02 27.796 200.672 26.8 199.976 26.104C199.304 25.384 198.368 25.024 197.168 25.024C195.968 25.024 195.02 25.384 194.324 26.104C193.652 26.8 193.316 27.796 193.316 29.092V40H187.196V29.092C187.196 27.796 186.848 26.8 186.152 26.104C185.48 25.384 184.544 25.024 183.344 25.024C182.144 25.024 181.196 25.384 180.5 26.104C179.828 26.8 179.492 27.796 179.492 29.092V40H173.336V19.912H179.492V22.432C180.116 21.592 180.932 20.932 181.94 20.452C182.948 19.948 184.088 19.696 185.36 19.696C186.872 19.696 188.216 20.02 189.392 20.668C190.592 21.316 191.528 22.24 192.2 23.44C192.896 22.336 193.844 21.436 195.044 20.74C196.244 20.044 197.552 19.696 198.968 19.696ZM217.601 22.756C218.201 21.82 219.029 21.064 220.085 20.488C221.141 19.912 222.377 19.624 223.793 19.624C225.449 19.624 226.949 20.044 228.293 20.884C229.637 21.724 230.693 22.924 231.461 24.484C232.253 26.044 232.649 27.856 232.649 29.92C232.649 31.984 232.253 33.808 231.461 35.392C230.693 36.952 229.637 38.164 228.293 39.028C226.949 39.868 225.449 40.288 223.793 40.288C222.401 40.288 221.165 40 220.085 39.424C219.029 38.848 218.201 38.104 217.601 37.192V49.576H211.445V19.912H217.601V22.756ZM226.385 29.92C226.385 28.384 225.953 27.184 225.089 26.32C224.249 25.432 223.205 24.988 221.957 24.988C220.733 24.988 219.689 25.432 218.825 26.32C217.985 27.208 217.565 28.42 217.565 29.956C217.565 31.492 217.985 32.704 218.825 33.592C219.689 34.48 220.733 34.924 221.957 34.924C223.181 34.924 224.225 34.48 225.089 33.592C225.953 32.68 226.385 31.456 226.385 29.92ZM245.022 40.288C243.054 40.288 241.278 39.868 239.694 39.028C238.134 38.188 236.898 36.988 235.986 35.428C235.098 33.868 234.654 32.044 234.654 29.956C234.654 27.892 235.11 26.08 236.022 24.52C236.934 22.936 238.182 21.724 239.766 20.884C241.35 20.044 243.126 19.624 245.094 19.624C247.062 19.624 248.838 20.044 250.422 20.884C252.006 21.724 253.254 22.936 254.166 24.52C255.078 26.08 255.534 27.892 255.534 29.956C255.534 32.02 255.066 33.844 254.13 35.428C253.218 36.988 251.958 38.188 250.35 39.028C248.766 39.868 246.99 40.288 245.022 40.288ZM245.022 34.96C246.198 34.96 247.194 34.528 248.01 33.664C248.85 32.8 249.27 31.564 249.27 29.956C249.27 28.348 248.862 27.112 248.046 26.248C247.254 25.384 246.27 24.952 245.094 24.952C243.894 24.952 242.898 25.384 242.106 26.248C241.314 27.088 240.918 28.324 240.918 29.956C240.918 31.564 241.302 32.8 242.07 33.664C242.862 34.528 243.846 34.96 245.022 34.96ZM264.956 23.26C265.676 22.156 266.576 21.292 267.656 20.668C268.736 20.02 269.936 19.696 271.256 19.696V26.212H269.564C268.028 26.212 266.876 26.548 266.108 27.22C265.34 27.868 264.956 29.02 264.956 30.676V40H258.8V19.912H264.956V23.26ZM285.395 34.78V40H282.263C280.031 40 278.291 39.46 277.043 38.38C275.795 37.276 275.171 35.488 275.171 33.016V25.024H272.723V19.912H275.171V15.016H281.327V19.912H285.359V25.024H281.327V33.088C281.327 33.688 281.471 34.12 281.759 34.384C282.047 34.648 282.527 34.78 283.199 34.78H285.395Z" fill="#00B3C0"/>
<path d="M306.119 40.288C303.863 40.288 302.015 39.772 300.575 38.74C299.159 37.684 298.367 36.256 298.199 34.456H300.791C300.911 35.56 301.427 36.46 302.339 37.156C303.275 37.828 304.523 38.164 306.083 38.164C307.451 38.164 308.519 37.84 309.287 37.192C310.079 36.544 310.475 35.74 310.475 34.78C310.475 34.108 310.259 33.556 309.827 33.124C309.395 32.692 308.843 32.356 308.171 32.116C307.523 31.852 306.635 31.576 305.507 31.288C304.043 30.904 302.855 30.52 301.943 30.136C301.031 29.752 300.251 29.188 299.603 28.444C298.979 27.676 298.667 26.656 298.667 25.384C298.667 24.424 298.955 23.536 299.531 22.72C300.107 21.904 300.923 21.256 301.979 20.776C303.035 20.296 304.235 20.056 305.579 20.056C307.691 20.056 309.395 20.596 310.691 21.676C311.987 22.732 312.683 24.196 312.779 26.068H310.259C310.187 24.916 309.731 23.992 308.891 23.296C308.075 22.576 306.947 22.216 305.507 22.216C304.235 22.216 303.203 22.516 302.411 23.116C301.619 23.716 301.223 24.46 301.223 25.348C301.223 26.116 301.451 26.752 301.907 27.256C302.387 27.736 302.975 28.12 303.671 28.408C304.367 28.672 305.303 28.972 306.479 29.308C307.895 29.692 309.023 30.064 309.863 30.424C310.703 30.784 311.423 31.312 312.023 32.008C312.623 32.704 312.935 33.628 312.959 34.78C312.959 35.836 312.671 36.784 312.095 37.624C311.519 38.44 310.715 39.088 309.683 39.568C308.651 40.048 307.463 40.288 306.119 40.288ZM320.222 13.36V40H317.702V13.36H320.222ZM334.533 40.288C332.685 40.288 331.017 39.88 329.529 39.064C328.065 38.224 326.901 37.048 326.037 35.536C325.197 34 324.777 32.212 324.777 30.172C324.777 28.132 325.209 26.356 326.073 24.844C326.937 23.308 328.113 22.132 329.601 21.316C331.089 20.476 332.757 20.056 334.605 20.056C336.453 20.056 338.121 20.476 339.609 21.316C341.121 22.132 342.297 23.308 343.137 24.844C344.001 26.356 344.433 28.132 344.433 30.172C344.433 32.188 344.001 33.964 343.137 35.5C342.273 37.036 341.085 38.224 339.573 39.064C338.061 39.88 336.381 40.288 334.533 40.288ZM334.533 38.092C335.829 38.092 337.029 37.804 338.133 37.228C339.237 36.628 340.125 35.74 340.797 34.564C341.493 33.364 341.841 31.9 341.841 30.172C341.841 28.444 341.505 26.992 340.833 25.816C340.161 24.616 339.273 23.728 338.169 23.152C337.065 22.552 335.865 22.252 334.569 22.252C333.273 22.252 332.073 22.552 330.969 23.152C329.865 23.728 328.977 24.616 328.305 25.816C327.657 26.992 327.333 28.444 327.333 30.172C327.333 31.9 327.657 33.364 328.305 34.564C328.977 35.74 329.853 36.628 330.933 37.228C332.037 37.804 333.237 38.092 334.533 38.092ZM357.27 20.056C359.118 20.056 360.726 20.488 362.094 21.352C363.462 22.216 364.446 23.308 365.046 24.628V20.344H367.566V40.504C367.566 42.304 367.17 43.9 366.378 45.292C365.61 46.684 364.53 47.752 363.138 48.496C361.746 49.264 360.162 49.648 358.386 49.648C355.866 49.648 353.766 49.048 352.086 47.848C350.43 46.648 349.398 45.016 348.99 42.952H351.474C351.906 44.32 352.722 45.412 353.922 46.228C355.146 47.044 356.634 47.452 358.386 47.452C359.658 47.452 360.798 47.176 361.806 46.624C362.814 46.096 363.606 45.304 364.182 44.248C364.758 43.192 365.046 41.944 365.046 40.504V35.644C364.422 36.988 363.426 38.104 362.058 38.992C360.714 39.856 359.118 40.288 357.27 40.288C355.47 40.288 353.85 39.868 352.41 39.028C350.994 38.188 349.878 37 349.062 35.464C348.27 33.928 347.874 32.152 347.874 30.136C347.874 28.12 348.27 26.356 349.062 24.844C349.878 23.308 350.994 22.132 352.41 21.316C353.85 20.476 355.47 20.056 357.27 20.056ZM365.046 30.172C365.046 28.588 364.722 27.196 364.074 25.996C363.426 24.796 362.538 23.872 361.41 23.224C360.306 22.576 359.082 22.252 357.738 22.252C356.346 22.252 355.098 22.564 353.994 23.188C352.89 23.812 352.014 24.724 351.366 25.924C350.742 27.1 350.43 28.504 350.43 30.136C350.43 31.744 350.742 33.16 351.366 34.384C352.014 35.584 352.89 36.508 353.994 37.156C355.098 37.78 356.346 38.092 357.738 38.092C359.082 38.092 360.306 37.768 361.41 37.12C362.538 36.472 363.426 35.548 364.074 34.348C364.722 33.148 365.046 31.756 365.046 30.172ZM372.167 30.136C372.167 28.12 372.563 26.356 373.355 24.844C374.171 23.308 375.287 22.132 376.703 21.316C378.143 20.476 379.763 20.056 381.563 20.056C383.435 20.056 385.043 20.488 386.387 21.352C387.755 22.216 388.739 23.32 389.339 24.664V20.344H391.859V40H389.339V35.644C388.715 36.988 387.719 38.104 386.351 38.992C385.007 39.856 383.399 40.288 381.527 40.288C379.751 40.288 378.143 39.868 376.703 39.028C375.287 38.188 374.171 37 373.355 35.464C372.563 33.928 372.167 32.152 372.167 30.136ZM389.339 30.172C389.339 28.588 389.015 27.196 388.367 25.996C387.719 24.796 386.831 23.872 385.703 23.224C384.599 22.576 383.375 22.252 382.031 22.252C380.639 22.252 379.391 22.564 378.287 23.188C377.183 23.812 376.307 24.724 375.659 25.924C375.035 27.1 374.723 28.504 374.723 30.136C374.723 31.744 375.035 33.16 375.659 34.384C376.307 35.584 377.183 36.508 378.287 37.156C379.391 37.78 380.639 38.092 382.031 38.092C383.375 38.092 384.599 37.768 385.703 37.12C386.831 36.472 387.719 35.548 388.367 34.348C389.015 33.148 389.339 31.756 389.339 30.172ZM406.828 19.984C409.18 19.984 411.1 20.716 412.588 22.18C414.076 23.62 414.82 25.72 414.82 28.48V40H412.336V28.768C412.336 26.632 411.796 25 410.716 23.872C409.66 22.744 408.208 22.18 406.36 22.18C404.464 22.18 402.952 22.78 401.824 23.98C400.696 25.18 400.132 26.944 400.132 29.272V40H397.612V20.344H400.132V23.692C400.756 22.492 401.656 21.58 402.832 20.956C404.008 20.308 405.34 19.984 406.828 19.984Z" fill="white"/>
</g>
<path id="Software Developer" d="M65.1526 128.672C57.0246 128.672 50.3046 126.784 44.9926 123.008C39.7446 119.168 36.8966 113.568 36.4486 106.208H59.1046C59.4246 110.112 61.1526 112.064 64.2886 112.064C65.4406 112.064 66.4006 111.808 67.1686 111.296C68.0006 110.72 68.4166 109.856 68.4166 108.704C68.4166 107.104 67.5526 105.824 65.8246 104.864C64.0966 103.84 61.4086 102.688 57.7606 101.408C53.4086 99.872 49.7926 98.368 46.9126 96.896C44.0966 95.424 41.6646 93.28 39.6166 90.464C37.5686 87.648 36.5766 84.032 36.6406 79.616C36.6406 75.2 37.7606 71.456 40.0006 68.384C42.3046 65.248 45.4086 62.88 49.3126 61.28C53.2806 59.68 57.7286 58.88 62.6566 58.88C70.9766 58.88 77.5686 60.8 82.4326 64.64C87.3606 68.48 89.9526 73.888 90.2086 80.864H67.2646C67.2006 78.944 66.7206 77.568 65.8246 76.736C64.9286 75.904 63.8406 75.488 62.5606 75.488C61.6646 75.488 60.9286 75.808 60.3526 76.448C59.7766 77.024 59.4886 77.856 59.4886 78.944C59.4886 80.48 60.3206 81.76 61.9846 82.784C63.7126 83.744 66.4326 84.928 70.1446 86.336C74.4326 87.936 77.9526 89.472 80.7046 90.944C83.5206 92.416 85.9526 94.464 88.0006 97.088C90.0486 99.712 91.0726 103.008 91.0726 106.976C91.0726 111.136 90.0486 114.88 88.0006 118.208C85.9526 121.472 82.9766 124.032 79.0726 125.888C75.1686 127.744 70.5286 128.672 65.1526 128.672ZM131.969 128.672C126.529 128.672 121.633 127.552 117.281 125.312C112.929 123.072 109.505 119.872 107.009 115.712C104.577 111.488 103.361 106.56 103.361 100.928C103.361 95.296 104.577 90.4 107.009 86.24C109.505 82.016 112.929 78.784 117.281 76.544C121.633 74.304 126.529 73.184 131.969 73.184C137.409 73.184 142.305 74.304 146.657 76.544C151.009 78.784 154.401 82.016 156.833 86.24C159.329 90.4 160.577 95.296 160.577 100.928C160.577 106.56 159.329 111.488 156.833 115.712C154.401 119.872 151.009 123.072 146.657 125.312C142.305 127.552 137.409 128.672 131.969 128.672ZM131.969 110.24C133.953 110.24 135.617 109.472 136.961 107.936C138.305 106.336 138.977 104 138.977 100.928C138.977 97.856 138.305 95.552 136.961 94.016C135.617 92.416 133.953 91.616 131.969 91.616C129.985 91.616 128.321 92.416 126.977 94.016C125.633 95.552 124.961 97.856 124.961 100.928C124.961 104 125.601 106.336 126.881 107.936C128.225 109.472 129.921 110.24 131.969 110.24ZM206.152 70.016C205 69.888 204.2 69.824 203.752 69.824C202.152 69.824 200.936 70.144 200.104 70.784C199.272 71.36 198.696 72.384 198.376 73.856H206.152V91.616H198.184V128H176.872V91.616H171.112V73.856H176.872C177 66.816 179.208 61.376 183.496 57.536C187.848 53.632 193.928 51.68 201.736 51.68C202.632 51.68 204.104 51.744 206.152 51.872V70.016ZM253.265 109.856V128H245.201C230.353 128 222.929 120.608 222.929 105.824V91.616H216.209V73.856H222.929V60.8H244.241V73.856H253.073V91.616H244.241V106.208C244.241 107.488 244.529 108.416 245.105 108.992C245.745 109.568 246.769 109.856 248.177 109.856H253.265ZM351.238 73.856L338.374 128H314.374L307.846 97.472L300.934 128H276.934L264.166 73.856H285.286L289.798 106.784L296.806 73.856H319.558L326.95 107.168L331.558 73.856H351.238ZM360.581 100.928C360.581 95.232 361.541 90.304 363.461 86.144C365.445 81.92 368.133 78.72 371.525 76.544C374.917 74.304 378.725 73.184 382.949 73.184C386.469 73.184 389.509 73.92 392.069 75.392C394.629 76.8 396.581 78.752 397.925 81.248V73.856H419.141V128H397.925V120.608C396.581 123.104 394.629 125.088 392.069 126.56C389.509 127.968 386.469 128.672 382.949 128.672C378.725 128.672 374.917 127.584 371.525 125.408C368.133 123.168 365.445 119.968 363.461 115.808C361.541 111.584 360.581 106.624 360.581 100.928ZM397.925 100.928C397.925 98.048 397.189 95.808 395.717 94.208C394.245 92.608 392.357 91.808 390.053 91.808C387.749 91.808 385.861 92.608 384.389 94.208C382.917 95.808 382.181 98.048 382.181 100.928C382.181 103.808 382.917 106.048 384.389 107.648C385.861 109.248 387.749 110.048 390.053 110.048C392.357 110.048 394.245 109.248 395.717 107.648C397.189 106.048 397.925 103.808 397.925 100.928ZM457.703 83.84C459.879 80.704 462.535 78.208 465.671 76.352C468.807 74.432 472.071 73.472 475.463 73.472V96.224H469.415C465.383 96.224 462.407 96.928 460.487 98.336C458.631 99.744 457.703 102.24 457.703 105.824V128H436.391V73.856H457.703V83.84ZM541.299 100.448C541.299 101.92 541.203 103.328 541.011 104.672H506.739C507.059 109.344 509.011 111.68 512.595 111.68C514.899 111.68 516.563 110.624 517.587 108.512H540.147C539.379 112.352 537.747 115.808 535.251 118.88C532.819 121.888 529.715 124.288 525.939 126.08C522.227 127.808 518.131 128.672 513.651 128.672C508.275 128.672 503.475 127.552 499.251 125.312C495.091 123.072 491.827 119.872 489.459 115.712C487.155 111.488 486.003 106.56 486.003 100.928C486.003 95.296 487.155 90.4 489.459 86.24C491.827 82.016 495.091 78.784 499.251 76.544C503.475 74.304 508.275 73.184 513.651 73.184C519.027 73.184 523.795 74.304 527.955 76.544C532.179 78.72 535.443 81.856 537.747 85.952C540.115 90.048 541.299 94.88 541.299 100.448ZM519.699 95.36C519.699 93.568 519.123 92.224 517.971 91.328C516.819 90.368 515.379 89.888 513.651 89.888C509.875 89.888 507.667 91.712 507.027 95.36H519.699ZM33.275 140.032C40.379 140.032 46.587 141.472 51.899 144.352C57.275 147.232 61.403 151.232 64.283 156.352C67.163 161.472 68.603 167.296 68.603 173.824C68.603 180.288 67.163 186.112 64.283 191.296C61.403 196.48 57.275 200.576 51.899 203.584C46.587 206.528 40.379 208 33.275 208H4.955V140.032H33.275ZM31.355 188.992C36.155 188.992 39.963 187.68 42.779 185.056C45.595 182.432 47.003 178.688 47.003 173.824C47.003 168.96 45.595 165.216 42.779 162.592C39.963 159.968 36.155 158.656 31.355 158.656H26.267V188.992H31.355ZM136.395 180.448C136.395 181.92 136.299 183.328 136.107 184.672H101.835C102.155 189.344 104.107 191.68 107.691 191.68C109.995 191.68 111.659 190.624 112.683 188.512H135.243C134.475 192.352 132.843 195.808 130.347 198.88C127.915 201.888 124.811 204.288 121.035 206.08C117.323 207.808 113.227 208.672 108.747 208.672C103.371 208.672 98.5707 207.552 94.3467 205.312C90.1867 203.072 86.9227 199.872 84.5547 195.712C82.2507 191.488 81.0987 186.56 81.0987 180.928C81.0987 175.296 82.2507 170.4 84.5547 166.24C86.9227 162.016 90.1867 158.784 94.3467 156.544C98.5707 154.304 103.371 153.184 108.747 153.184C114.123 153.184 118.891 154.304 123.051 156.544C127.275 158.72 130.539 161.856 132.843 165.952C135.211 170.048 136.395 174.88 136.395 180.448ZM114.795 175.36C114.795 173.568 114.219 172.224 113.067 171.328C111.915 170.368 110.475 169.888 108.747 169.888C104.971 169.888 102.763 171.712 102.123 175.36H114.795ZM178.271 187.744L186.911 153.856H209.567L191.519 208H164.927L146.879 153.856H169.535L178.271 187.744ZM275.317 180.448C275.317 181.92 275.221 183.328 275.029 184.672H240.757C241.077 189.344 243.029 191.68 246.613 191.68C248.917 191.68 250.581 190.624 251.605 188.512H274.165C273.397 192.352 271.765 195.808 269.269 198.88C266.837 201.888 263.733 204.288 259.957 206.08C256.245 207.808 252.149 208.672 247.669 208.672C242.293 208.672 237.493 207.552 233.269 205.312C229.109 203.072 225.845 199.872 223.477 195.712C221.173 191.488 220.021 186.56 220.021 180.928C220.021 175.296 221.173 170.4 223.477 166.24C225.845 162.016 229.109 158.784 233.269 156.544C237.493 154.304 242.293 153.184 247.669 153.184C253.045 153.184 257.813 154.304 261.973 156.544C266.197 158.72 269.461 161.856 271.765 165.952C274.133 170.048 275.317 174.88 275.317 180.448ZM253.717 175.36C253.717 173.568 253.141 172.224 251.989 171.328C250.837 170.368 249.397 169.888 247.669 169.888C243.893 169.888 241.685 171.712 241.045 175.36H253.717ZM311.05 136.96V208H289.738V136.96H311.05ZM354.083 208.672C348.643 208.672 343.747 207.552 339.395 205.312C335.043 203.072 331.619 199.872 329.123 195.712C326.691 191.488 325.475 186.56 325.475 180.928C325.475 175.296 326.691 170.4 329.123 166.24C331.619 162.016 335.043 158.784 339.395 156.544C343.747 154.304 348.643 153.184 354.083 153.184C359.523 153.184 364.419 154.304 368.771 156.544C373.123 158.784 376.515 162.016 378.947 166.24C381.443 170.4 382.691 175.296 382.691 180.928C382.691 186.56 381.443 191.488 378.947 195.712C376.515 199.872 373.123 203.072 368.771 205.312C364.419 207.552 359.523 208.672 354.083 208.672ZM354.083 190.24C356.067 190.24 357.731 189.472 359.075 187.936C360.419 186.336 361.091 184 361.091 180.928C361.091 177.856 360.419 175.552 359.075 174.016C357.731 172.416 356.067 171.616 354.083 171.616C352.099 171.616 350.435 172.416 349.091 174.016C347.747 175.552 347.075 177.856 347.075 180.928C347.075 184 347.715 186.336 348.995 187.936C350.339 189.472 352.035 190.24 354.083 190.24ZM418.378 161.248C419.722 158.752 421.642 156.8 424.138 155.392C426.698 153.92 429.738 153.184 433.258 153.184C437.482 153.184 441.29 154.304 444.682 156.544C448.074 158.72 450.73 161.92 452.65 166.144C454.634 170.304 455.626 175.232 455.626 180.928C455.626 186.624 454.634 191.584 452.65 195.808C450.73 199.968 448.074 203.168 444.682 205.408C441.29 207.584 437.482 208.672 433.258 208.672C429.738 208.672 426.698 207.968 424.138 206.56C421.642 205.088 419.722 203.104 418.378 200.608V233.92H397.066V153.856H418.378V161.248ZM434.026 180.928C434.026 178.048 433.29 175.808 431.818 174.208C430.346 172.608 428.458 171.808 426.154 171.808C423.85 171.808 421.962 172.608 420.49 174.208C419.018 175.808 418.282 178.048 418.282 180.928C418.282 183.808 419.018 186.048 420.49 187.648C421.962 189.248 423.85 190.048 426.154 190.048C428.458 190.048 430.346 189.248 431.818 187.648C433.29 186.048 434.026 183.808 434.026 180.928ZM522.412 180.448C522.412 181.92 522.316 183.328 522.124 184.672H487.852C488.172 189.344 490.124 191.68 493.708 191.68C496.012 191.68 497.676 190.624 498.7 188.512H521.26C520.492 192.352 518.86 195.808 516.364 198.88C513.932 201.888 510.828 204.288 507.052 206.08C503.34 207.808 499.244 208.672 494.764 208.672C489.388 208.672 484.588 207.552 480.364 205.312C476.204 203.072 472.94 199.872 470.572 195.712C468.268 191.488 467.116 186.56 467.116 180.928C467.116 175.296 468.268 170.4 470.572 166.24C472.94 162.016 476.204 158.784 480.364 156.544C484.588 154.304 489.388 153.184 494.764 153.184C500.14 153.184 504.908 154.304 509.068 156.544C513.292 158.72 516.556 161.856 518.86 165.952C521.228 170.048 522.412 174.88 522.412 180.448ZM500.812 175.36C500.812 173.568 500.236 172.224 499.084 171.328C497.932 170.368 496.492 169.888 494.764 169.888C490.988 169.888 488.78 171.712 488.14 175.36H500.812ZM558.144 163.84C560.32 160.704 562.976 158.208 566.112 156.352C569.248 154.432 572.512 153.472 575.904 153.472V176.224H569.856C565.824 176.224 562.848 176.928 560.928 178.336C559.072 179.744 558.144 182.24 558.144 185.824V208H536.832V153.856H558.144V163.84Z" fill="white"/>
</g>
</svg>
