<svg xmlns="http://www.w3.org/2000/svg" width="5860.22" height="1512.92" viewBox="0 0 5860.22 1512.92"><defs><style>.a{opacity:0.3;}.b{fill:none;stroke:#919191;stroke-linecap:round;stroke-linejoin:round;stroke-width:0.5px;opacity:0.8;}</style></defs><g class="a"><path class="b" d="M5860,656.12c-586.73,125-771-167.27-1245.15-142.59-186.91,12.75-297.74,41.75-463.91,23.27-592.14-86.78-723.42-965.61-1294-237-188,250-299.76,475.49-463.89,669.54-172.64,189.1-209.91,166.14-708.06-13.75-371.55-132-625.19-193.32-1049.86-201-281.15-6.93-384-43.83-634.81-98.42h0C352.37,680.73,1465.3,768.45,1831.42,879.4c349.9,110.86,380.42,215.81,586,90.72,166.74-114.67,295.6-299,488.31-541,552.45-684.72,612.68-321.41,1196.39-56.62,357.82,156.8,642.33,171.37,903.37,249.73C5348.91,728.42,5481,771.59,5860,657.12v0c-374.42,120.48-501.05,93.73-854.51-12.39C4824.28,591.82,4806,603,4590.38,537.24,4057.24,369.57,3792.93,152,3540.53,91.1c-391-75.1-667.4,633.34-1074.31,860.32-233.73,114.22-274-15.67-586-115.91-242.52-72.54-424-65.17-708-80.76C774.48,730.81,738.11,668.14.25,655.82h0c777.94-78.61,759.26,146.08,1269.61,84.05,264.17-36.06,435.48-104.67,659.22-55.17,257.69,68.95,327,250,586,286.73,435.08,34.75,664.69-575.31,1025.47-655.69,442.93-81.81,738.93,117.17,1074.29,254.84,154.84,61.59,533.7,155.92,659.2,173,219.75,24.68,375.76-18.24,585.95-87.48v0C5266.32,776.29,5081.71,477.2,4614.82,513.24c-175.1,16.65-280,48.18-439.52,41.33C3575.54,508,3440.63-379.1,2905.7,229.92c-180.13,216.77-295.43,447-463.89,676.35-190.07,246.07-249.25,238.28-586,119.94C1579.21,927.4,1219.87,771.5,732.72,760,364,754.37,341.78,734.84.25,656h0c766.42,43.74,831.05,74.08,1147.53,104.43,272.42,24.84,478.5,37.85,732.47,120.68,313.95,107.46,367.77,226.23,610.39,40.15,320.14-266.19,564.87-781,879-872.55C3652-7.8,3791.91,321.1,4566,522.94c237.05,60,273.93,55.65,439.51,105.17C5350.64,734.36,5480.85,774.2,5860,657.18h0c-372.34,116.91-504.78,83.53-854.51-23.39-218-64.77-446.84-82.75-830.16-246.65C3756,203,3587,8.93,3369.62,63.15c-310.42,105.57-556.81,617.75-879,864.16-172.88,121-249.71,96.44-415.07,17.57-328.15-152.7-556.75-157.28-927.79-187.2C806.9,728.59,736.49,687.71.25,656v0c798,193.28,581.65,44,1147.53,153.41,283.13,57.8,470.21,140.84,708.05,225.95,350.62,123,403.39,110.43,586-132.43C2802,400.22,3044.3-261.45,3516.1,162.29,3763.74,394.39,3885,556.9,4175.3,569.63c160,1.34,266.21-35.52,439.52-56.68C5060.61,467.33,5272,769,5860,655.93h0c-207,67.77-367,111.9-585.95,88.29C4409.57,630.62,4200.44,199.89,3540.53,342.62c-366.73,92.56-599.3,719.63-1049.89,626.05-266.82-71.43-324.91-261.1-610.39-306.88C1654.14,635.22,1484,715.14,1221,746.13,760,791.71,742.35,574.21.25,655.87v0c149.7.2,185.64-13.77,390.65,77.74,444,208.42,601,502.44,1220.78-133.39,368.39-383.81,527.16-573.37,879-444.3,166.4,66,267,136.69,439.48,194.62,553.56,169.5,563.36-296.74,1172-45.52C4441,451.3,4591.29,589.89,4981,571.58c240.65-13,388.6-26.78,634.81,53.58,98.68,34.21,45.76,30.27,244.13,30.73-286.48-1.22-125-23.65-415-73.66-355.49-52.61-510.28,70.61-830.11-32.32-397.47-139-657.56-452.36-1049.9-277.66-191.15,94.39-337.38,196.11-586,150.93-435.52-97.05-601.64-486.29-1049.87-131.92-256.93,213.1-443.38,483-708,630.17C809.64,1130.15,644.94,784,195.58,666.2c-40.28-9-43.55-9.94-195.33-10.31,149.89.6,165.73.39,268.57,34,424.36,150.57,595,470.05,1025.46,184.47,247.25-174.49,418.27-415.91,659.22-593.25,439.66-304.35,603,128.15,1025.45,200.52,264.92,32.46,432.47-127.86,610.41-219,392.12-180,653.11,175.81,1049.85,313.41,244.22,76.3,358.07,8.31,634.81-1.35C5587.9,570,5579.5,654.58,5860,655.89,5587.53,654,5582.12,567.24,5274,580c-278.38,17.29-392.44,92.12-634.81,11.64-399.25-147.8-654-532-1049.85-325.36-185.21,107.19-353,291.82-610.41,276.53C2561.74,494.58,2401.47,14.52,1953.5,296.64c-241.42,162.92-412.91,400.16-659.22,575.5C851.55,1169.2,686.1,829.9,244.41,683.7,167,660.38,148.17,656.44.25,655.89c100.33.48,138.91.36,219.74,22.13,450.79,137.4,611.33,487.65,1049.87,208.43,255.26-173.21,431.72-419.66,683.64-574.3,268.16-152.13,387.87-61.06,634.8,117,121.88,87,236.16,165.59,390.65,174.82,252.93-.9,413.69-207.08,610.41-334,398-232.84,652.24,180.9,1049.85,337.33,240.91,84.71,355.32,3.07,634.81-21.93,302.26-20.51,323.59,68.2,585.95,70.57-256.32-2.93-285.79-93-585.95-66-281.63,31.57-395.12,118.84-634.81,30.27C4251,459.29,4002,36.09,3613.75,260,3402.66,396.39,3240,648.19,2979,666.3c-407.36-.2-551.88-547.64-1001-345.29-252.43,126.23-428.1,363.88-683.63,547.14C749.64,1238.33,615.87,659.65.25,655.89c606.4,4.59,738.42,565.53,1269.61,227.49,255-172.08,429-402.64,683.64-524,285.47-122.29,402.4,11.79,634.8,202,118.92,95.08,233,178.07,390.65,168.35,258.86-35.59,414.2-307.64,634.8-463.32,389.07-246.22,641.74,198,1025.46,364.2,238.72,92.13,351.78.15,634.81-36.86,296.52-32.07,338.76,58.64,585.95,62.15-245.17-4.19-289.6-95.67-585.95-58.37-284.7,42.46-397.17,138.83-634.81,43.3C4249,464.5,3991.83-16.21,3589.36,291.64c-223.8,186.74-377.91,472.6-634.82,504.45-159.22,6.72-275-88-390.65-187.74C2348.29,418.66,2233.64,286,1953.5,385.86c-245.8,99.64-411.2,305.53-659.22,479.85C736.13,1239.41,614.42,661.43.25,655.89c604,6.51,725.05,561.81,1269.61,226,245.64-159.76,412.3-358.52,659.22-450.8,301.74-98.61,420.82,55.31,634.81,248.91,114.55,101.06,230.4,195.76,390.65,179.17,255.79-48.52,406.36-352.48,634.82-554.94C3993.22-25,4251.61,465,4639.21,644.76c236.65,97.73,349.33-.54,634.81-45.27,294.83-39.35,349.59,51.56,585.95,56.4-231.93-5.53-301.13-101.31-610.38-50.42-286.68,53.5-394.38,146-634.77,31.63C4242,442,3984.59-25.21,3589.36,316.72c-230.48,216.15-380.3,540.43-634.82,605.43-160.81,26.53-276.64-67.73-390.65-170.59C2349.81,552.5,2244.42,401.9,1953.5,460.26c-247.65,61.47-412.54,243.26-659.22,406-574.7,363-683.17-202.65-1294-210.32,603.7,8.75,708.56,550,1269.61,226.33,244.64-148.08,411.39-322.66,659.22-376,313-52.95,428.83,122.67,634.81,315.82,117.24,106.1,231.12,194.35,390.65,158.27,254.23-81.26,400.87-419.52,634.82-648.56,397.35-359.84,649,105.9,1025.46,305.6,240,115.81,343.93,23.69,634.77-31,310-51.41,383.49,43.23,610.38,49.52-287.47-9.13-285.56-139.8-830.12,2.29-158.92,40.26-243.64,52-390.64-11.6-309.58-150.08-526.78-493.93-830.12-432.73-480.5,136.2-639.1,1193-1220.79,699.52C2407.61,751.9,2334,637,2173.24,576.26,1665.92,417.17,1388.51,968.14,952.46,984.07,634.6,978.49,445.13,663.27.25,655.89c615.26,11.59,683.62,545.76,1294,215.68,240.67-134.78,396.08-264.84,634.8-277.8,323.2-3.48,431.72,179.24,634.81,366.67,490.63,432,660.08-213.66,1025.47-594.37C4000.3-32.24,4250.24,454.5,4639.21,643.75c234.76,102.08,343.63,4.4,634.81-41.6,291.84-39.56,374.92,46.22,585.95,53.74-206.79-8.27-294.4-91.34-585.95-55.44-291.47,42.15-399.66,136.16-634.81,35.8C4258.16,454.78,4013.53,3.62,3613.75,363.51c-364.2,355.4-547.47,1051-1025.45,676.69-230.55-192.59-294.61-349.51-610.39-394.51-252.34-25.92-419,90.06-659.22,216.79C810.19,1124.16,726.82,876.81,293.24,710,158.7,661.79,99.7,658,.25,655.89c601.89,14.34,658.2,502.78,1269.61,233.77,250.12-114.11,407.88-224,659.22-200.09,333.32,44.91,435.83,222.68,634.81,389.6,494.57,390.93,673.57-324.84,1049.86-694.59,400.24-364,652.05,70.08,1025.46,244.17,235.41,98.54,342,8.52,634.81-30,292.13-32.34,382.75,48.18,585.95,57.15-202.48-9.76-301.69-92-610.38-56.62-291.57,39-392.75,118-634.77,9.6-382.48-186.55-629.9-586.18-1049.9-151.68C3204.3,854.5,3026.6,1488.47,2539.47,1109.86c-179.21-147.19-286.4-307.7-610.39-372.48-252.24-41.19-411.62,53.42-659.22,154.94C643.18,1141,601.61,672,.25,655.89c94.74,2.84,150.65,8,268.57,46C715.71,857.33,759,1079.52,1294.28,886.33c234-86.19,391.43-156.27,634.8-101.21,344.94,89.73,435.1,246.23,634.81,386.22,475.05,308.43,663.66-351.24,1025.47-714.49C3996.73,72,4238.2,426.21,4614.82,599.42c243.63,103.23,343.1,29.73,634.77-3.31,308-29.38,411.75,49.41,610.38,59.78-200.3-11.23-301-86.41-610.38-63C4957.08,620,4860.2,687.73,4614.82,590,4241.4,429.08,3998.5,107.25,3589.36,482c-361.94,351.15-554.44,998.17-1025.47,730-210.28-130.8-259.87-249.9-610.39-371.73C1521.77,702.67,1307.39,965.67,928,955.9,605.42,934.81,425.35,670,.25,655.89c101.58,3.79,150.33,11.63,244.16,38.88C701.82,839,715.16,1041.39,1269.86,900c244.25-63.52,395.27-105.38,634.81-32.11,314.53,105.45,479.64,260.3,610.39,339.38,496.38,279.5,686.19-328.46,1049.86-676.14,426-384.69,667.52-98.72,1049.9,49.77,248.69,89.54,344.41,28.81,634.77,8.6,307.35-16.52,417.59,55,610.38,66.36-194.63-12.11-301.92-79.57-610.38-69.75-292.34,13.57-388.28,70.89-659.21-22.73-380.94-139.91-608.87-354.85-1025.46-6.77-355.39,313.76-554.3,882-1025.45,688.63-163.54-74.76-305.83-209-634.8-334.89-428.61-152.84-647.61,65.39-1025.46,26.46-297.94-41.78-482.51-264.42-879-281,506.82,23.82,585.43,327.77,1123.12,268.57,243.22-30.08,395.34-79.54,634.8-24.29,258.94,67.49,586.27,277.82,732.47,339,494.43,187.45,698-346.18,1049.89-638.81,431.68-340.41,665.07-163.92,1049.85-43.46,280.05,82.89,363.55,33.24,659.21,26.23,305.46-3.09,421.85,60.64,610.38,72.79-278.1-18.38-252.84-95.25-878.94-65.43-384.15,15.26-549-115.39-854.55-148.62-811.1-66.14-956.39,976.17-1635.84,806.41-285.47-82.3-568.12-313.85-903.37-352.66-308.32-27.7-533.84,79.08-830.13-.5C508.3,820.14,320.2,672.89.25,655.89c316.22,18.89,502.71,160,756.89,231.46,367.33,92,619.39-75.47,1049.86,88.84,185.78,75.14,414.72,219.47,634.81,270.42,484.31,94.28,718.72-346.62,1049.85-574.38C3942.25,383.66,4225.27,473.29,4566,541.37c322.68,62.61,386.58,32.79,659.25,35.73,317.68,6.76,444.48,66,634.77,78.79-193.18-12.92-327.19-71.15-659.21-81.78-389.2-9.1-157.44,21.07-781.29-52.09-141.41-15.77-250.18-22.44-390.64-8.39-209.35,25-449,113.85-586,193.8-316.18,199.18-587.55,589.64-1049.86,530.7-237.53-39.54-400.17-165.58-634.81-257.33-245.43-90.53-396.67-78.7-659.22-73.88-566.84,7.3-641.72-219.69-1098.7-251,369.84,28.64,544.34,203.19,903.38,236,258.33,19.38,426.63-11.31,683.64,53.36,436,119.57,594.66,389.19,1025.45,261.28,255.54-83.84,426-238.45,659.21-398.94,106.3-71.1,212.46-147.65,659.25-238,371.08-70.75,537.27-26.41,1245.19.7,346.35,15.79,485.65,72.48,683.6,85.62C5682.79,644.5,4828.13,457,4053.22,586.16c-610.54,105.48-621.85,108.29-756.86,175.94-236.17,124.61-420.28,289.73-683.64,407.9-458.76,194.19-560.28-76.19-1049.87-219.72-256.79-69.95-428.2-48.21-683.64-70.82C534.49,843.66,344.08,686.33.25,655.89c292.56,29.48,489.9,152.71,781.3,201.55,227.2,33.55,420.66,13.5,683.63,74.9,522.83,131.81,645.41,427.6,1049.88,245.6,254.28-121.76,449.46-297.41,708-419.26,254.41-112.8,278.27-48.26,610.38-96.65,199.79-31,328.66-66.47,537.17-98.77,569.44-83.51,1279.77,79.8,1489.32,92.63-211.58-12.21-375.86-64-756.86-98.4-328-27.79-419.07-51.24-756.9,27.35-194.07,46.57-315.77,85.27-488.29,107.43-311.52,34.38-347.06-50.69-586,6.81-441.39,123-749.52,579.72-1074.28,538.47-198.25-38.34-363.35-175-659.22-277.3-424.3-139-574.12-34.06-1074.28-187.13C270.14,712.8,165.2,674.61.25,655.89,259.37,689.3,438.6,788,732.72,834.08c228.37,32.35,410.57,19.06,683.63,92,304.41,86.49,466.72,213.22,683.64,287.47,127.77,38.83,204.59,41.9,390.65-87.35,240.68-174.09,421-369.44,683.64-453.29,270.19-75.2,343.93,37.49,610.38,45.82,390.34.69,642.88-222.26,1074.28-187.92,635.69,58.91,748.77,112.12,1001,125.09-309.71-14-915.39-162-1196.33-127.33-314,47.58-543.73,223.65-854.55,211.77-315.53-23.75-435.08-250.82-805.72-63.22C2736.12,823.9,2554.73,1074,2344.15,1195.84c-175.28,87.56-256.41,19.94-683.64-175C1324.57,871.18,1152.25,866,806,835.05,435.8,799,284.26,697,.25,655.89,188.42,686.21,297.84,736.08,513,785.54,887.46,866.82,1105.84,796,1562.85,982.15c280.79,117.93,483,255.57,659.22,243.12,135.37-24.41,231.69-133.58,439.48-343.49,633.57-632.7,754.29-172.14,1171.93-127.52,382.41,24.12,617.44-277.59,1049.9-231.12C5371.56,582.7,5587.06,646,5860,655.89c-285.07-7.54-488.2-67.69-952.2-133.45C4461,463.61,4237.44,794.3,3857.92,764.88c-424.9-53.79-569.09-607.82-1172,34.68-218.38,237.52-319.24,378.81-463.89,415.16-183.31,24.08-408.23-129.28-708.05-250.93-462.68-181.67-669.47-104.54-1049.87-189C265.15,728,175.67,687.18.25,655.89,344.07,723.08,330.11,787,830.38,816.08c709.3,44.66,902.89,310.13,1269.61,387.12,245,39.68,316.2-160.09,634.81-515.18,568.57-612.65,725.82,52.51,1171.94,88.32,379.66,10.38,553.83-325.91,1025.46-253.61C5361.29,591.68,5563.33,651.2,5860,655.89c-295.34-.43-486.21-55-878.94-126.68-207.5-36.88-290.69-47-586,96.1C4238.59,702,4114.11,768.18,3955.57,773.08,3478,762.07,3328,13.72,2783.63,581.65c-191.7,209.7-307.51,414.88-463.9,553.13-170.1,131.74-317.78,46.48-708-129.13C1105.18,780.73,892.47,827.54,586.23,794.89c-248.16-30.32-366.43-92.56-586-139C233,708.87,356.8,777,635.06,797.19c533.29,32.11,547.69,18.18,1147.53,284.22,376.4,164.39,451.64,127.24,586-14.47,170.16-193.42,275.54-396.85,463.9-592.16,518-503.76,678.08,316.11,1171.93,294.14,159.69-15.62,286.23-91.06,439.52-166.2,275.18-132,356.76-111.27,610.38-60.39,326.65,68.21,523.4,117.15,805.68,113.56-218.76,6.59-369.51-17.38-585.95-64-435.16-95-499.64-133.54-756.9-25.6-178.44,78.94-281,149.36-439.47,182.21-276.05,44.14-416.46-132.68-610.38-319.7C2995.25-7.73,2796,489,2417.39,988.85c-164.69,207.81-237.24,249.13-586,108.55C1389.54,914,1254.59,811.16,708.3,797.18,366,787.31,269,720.49.25,655.89c338.54,85.18,348.66,131.52,756.89,138.46,516.43,11.14,747,169,1098.69,306.43,340,128.1,407.44,80.53,586-163.64C2816.57,406,3018.22-65.67,3491.66,407.25c188.18,193,335.85,368.51,610.43,322.62,160.65-34.36,262.08-104.68,439.47-177.22C4786.82,458.26,4853.05,499.72,5274,596c281.44,63.23,416.16,68.2,585.95,59.88-632.6,43.53-892.83-253.48-1294-116-318,117.82-519.12,301.36-830.12,63.26C3552,451.5,3485.92,323.79,3320.75,215.78,2851.45-54.62,2594.61,851,2270.9,1116.3c-225.74,150.6-591.11-145.91-1074.28-270.77-401.32-97.88-500.54-19.75-830.13-88.37C217.86,723.74,161.54,698,.25,655.89,173,701.4,236.1,729.43,390.9,760.21c304.13,55,413.4-13.56,805.72,81,489.7,124.9,852.88,413.62,1074.28,266.6C2590.05,847.17,2846.46-44.21,3296.36,159.67c172,92.68,244.56,231.62,439.47,399.27,311.41,250.67,511,84.2,830.12-23.44C4984.68,405,5226.76,714.06,5860,655.89,5245.5,726.6,4999.14,420.36,4590.38,524.26c-162.81,45.67-261.26,100.91-415.08,129.91C3590.06,742.27,3454.07-174.1,2979,164.59,2714.16,377,2542.78,816.52,2319.73,1056.28c-82.54,78.64-122.47,87.25-195.32,85.32-132.93-12.5-266.93-64.22-390.65-113.58C870.54,677.45,826.52,825.24,415.32,762.35,256.22,735.1,178.49,703.32.25,655.89c178.62,46.94,230.52,67.42,366.24,93.94,387.56,69.39,535.87-56.46,1220.78,209,460.91,181.86,573.72,220.65,708,114.91,221.09-204.55,394.06-651.17,659.23-900.6,484.07-415,628.55,483.07,1196.37,456.4,160.35-14.11,267.46-67.54,439.47-108.41,427.73-91.52,657.68,220.7,1269.59,134.71-593.48,99.09-821-203.48-1245.15-141.69-171.66,29-278.32,75-439.52,84.48-590.15,13.22-726.49-882.37-1220.76-430.16-264,262.51-439.12,705.55-659.23,900.64-134.71,101-239.36,56.79-708-121.15C912.69,696,739.62,808,366.49,745.3,233.81,720.89,180.69,701.71.25,655.89c786.41-90.46,766.72,167.75,1294,81.5,255.17-45.73,419.88-119.11,634.8-78.55,255.87,61,325.43,246.65,586,316.28,440.35,91.18,660.71-502.59,1025.47-603.34C4231.75,204.24,4398.74,630.85,5274,743.63c218.36,23,378.37-21.1,585.95-87.74-221.43,67-381.3,110.59-610.38,81.55-106.91-16-462.82-99.56-659.21-177.75-436.9-177.53-591.63-257.52-1049.85-126.22-361.06,113.61-583.14,684.22-1025.47,543C2242.84,873.78,2176.6,675.68,1904.67,634.4c-225.09-23.09-396.31,72.56-659.23,115.86-412.73,59.27-516.13-135.75-1001-117.8-94,4.84-145.8,11.69-244.16,23.43,733.26-91.57,736.07,133,1147.53,111.48,260-21,429.91-127.5,659.22-152.31,292.11-20.51,362.57,139.26,610.39,307.71C2889.11,1223,3109.58,735.89,3442.84,537.38c75.88-39.77,184.81-72.5,268.56-96.62C4059.81,348.62,4235,416.66,4566,548.18,4783.37,633.49,4809.1,629,4981,673.81c338.46,90,443.89,105.22,878.94-17.92-446.66,117-529,103.07-903.38,3.89-640.73-165.33-753-348-1294-145.36-162.07,61.75-166,56.9-244.12,103.4-351.06,230.07-546.55,639.37-1025.47,279-235.32-185.13-314.81-330.75-610.39-286.16C1559.67,651.93,1397.22,755.84,1147.78,776,736.51,796.66,741.89,562.68.25,655.89c741.23-92.48,719.11,135.72,1123.12,130.39,259.43-12,428.85-128.51,659.22-180.77,305.26-58.82,381.55,94.76,634.8,302.45,480.28,377.54,673.47-30.79,1025.45-238.4,77.4-41,83.47-36.25,195.34-84.26,680.9-298.93,700.64-43.58,1562.58,126.87,254.92,45.27,409.82,4.15,659.21-56.28-256.17,56.8-416.08,97.21-683.6,42.41-598.72-133.1-787.81-281.07-1123.15-219-156.6,34.17-266.89,95-415,168-115.14,54.72-127.73,49-219.73,102.27-221.34,139.08-381.08,343.36-634.82,337.56C2623,1072.9,2507.21,980.88,2393,880.43,2159.12,669,2071.36,526.48,1758.17,609.87,1526.86,678.29,1357.76,794.73,1099,795.69,711.08,783.64,730.17,565.37.25,655.89c106.26-12.73,46.52-5.74,122.08-14.81,558.88-63.25,644.94,159.85,1001,164.44,248.82-5.61,411-116.8,634.8-190.35,302-90.73,395.61,32.48,610.39,237.81,114.75,108,231.79,213.78,390.65,251.15C3010.3,1147.06,3172.8,970.3,3394,828.76c86.45-51.9,101.51-52.1,195.35-94.18,145.23-70,260.54-156.52,439.47-218.18,355.65-111.31,578.74,37.48,1147.54,170.25,268.39,58,423.92,21.28,683.6-30.76-255.32,44.89-402.48,78.26-659.21,24.66-147.48-33.59-542.35-166-781.29-192.28C4018,454.36,3824.35,688.55,3564.92,810.75c-90.33,39.73-107.12,43.18-195.3,96.64-219.75,138.65-384.14,287.5-634.82,208.18-169.87-64.37-295-197.45-439.49-340.49-188.35-184-291.37-249.43-586-136.42-222.68,89.48-388.26,190.85-634.81,174.42C898.39,794.9,828.4,741.21,635.06,678.4,381.18,601.16,234,628.72.25,655.89c51.92-5.75,54.34-6.12,122.08-14.47,579.83-68,651.14,177.2,1025.45,183.76,262.85-5,430.51-133.95,659.22-209.95,295.16-88.11,373.55,50.41,634.81,303.56,464.33,439.39,630.73,196,1001,9.13,106.7-50.1,118.51-45.08,219.73-108.4,169.33-110.84,280-208.86,463.91-282.49C4490.4,404.48,4820,575.47,5200.76,667.82c258.63,57.91,404.63,27.46,659.21-11.93-256,34.58-400.86,60.88-659.21-1.09C5044.53,614.51,4820.28,524.92,4566,491.9c-513.49-55.28-715,314.9-1025.42,456.19C3120,1126,2947.23,1373.75,2515.06,989.77c-294.32-271.11-363.48-438.4-634.81-383.93C1663.72,659.63,1502,794.67,1245.44,830.28,847,871.4,741.35,602.2,244.41,629.48c-98.48,7.1-119.89,13.13-244.16,26.41,109.11-11.3,128.29-16.63,219.74-25.17C729.12,591,832.69,859.52,1221,844.08c256.17-19.63,416.35-150.3,634.8-220C2133.6,546.67,2205,692.33,2490.64,971c451.52,429.08,623.5,211,1025.46,48.75,326.85-137.5,530-552.2,1025.46-538.73,254.32,14.1,482.25,112.68,659.2,161,259.71,66.51,403.44,43.45,659.21,13.86-255.71,25.26-397.9,45.07-659.21-26.14C5013.28,575.55,4814,482.06,4566,474c-504.82-1-719.68,465.92-1049.85,603.54-403.71,157.62-578.23,320.6-1001-77.8-298.13-288.69-366.38-437.19-634.81-367.27-217.78,66.34-375.46,200.08-634.81,221-394.93,17.23-507.27-260.23-1001-225.89-103.67,9-125.53,16.28-244.16,28.27,273.59-27,417.42-81.67,732.47,54.25,311.33,139.83,466.57,227.19,830.13,75.14,193.75-84.38,295-151.6,439.48-159.3,163.53,3.82,234.59,96.92,463.89,330.71,249.25,250.46,432.64,392.83,781.32,278.85,335.87-117.08,360.37-137.25,463.86-225.4,420.67-372.33,602.65-685.8,1245.19-475.38C5360.08,671.59,5401.54,692.9,5860,655.89c-460.74,31.33-495.34,7.21-903.38-133.13-634.36-210.1-828,154-1245.19,536.24-75.25,66.12-136.25,130.35-488.3,223.51-636.78,151.89-834.36-645.64-1220.77-642.9-145.81,12.09-245.16,81.89-439.48,164-342.29,137.71-506.79,55.29-805.71-86.22C416.84,561.52,257.37,630.81.25,655.89c108.06-10.46,108.5-15.25,219.74-30.31,503.24-60.53,611.22,216.38,1001,256,259.67,16.51,420.29-104.18,634.8-190.75,283.5-105.56,350.17,16.3,659.23,325.92,385,379.17,563.72,364.66,976.6,228.72,348.57-124.6,573.83-691.89,1049.9-784.25,248.88-38,422.62,58.92,659.2,137.09,269.52,85.06,405.7,72.1,659.21,57.53-257.94,12.27-389.54,22.77-659.21-65.25-364.31-124.07-611.05-281.59-1025.46,76.27-288.14,259.87-435.27,526.68-659.2,616.45-476.86,166.08-679,52.63-976.63-237.2-324.16-321.63-388-444.07-659.22-347.7-207.45,81.09-359.43,199.87-610.39,194.13-407.57-25.26-526-329.91-1025.45-272-112.74,15-132.61,24.6-244.16,35.32,87.23-8.34,89.08-11.31,195.33-30C716.8,540.46,825.28,824.52,1221,893.66c261.53,35.78,416.76-75.19,634.8-169.54,281.28-114.25,347.24-12.37,659.23,301.89,320.35,318.88,523.68,442.13,976.6,306C3845.37,1211.6,4087.79,575.63,4566,459c236-46.61,390,41.92,634.81,126.8,275.12,91.7,404,80.59,659.21,70.13C5631.74,663.36,5500,679,5225.2,589.19,4963.58,500.26,4809.58,403.53,4566,461.73,4103.84,594.6,3851,1232,3516.1,1364c-454.57,151.15-705.64-42.54-976.63-309.57-333.19-332.73-394.31-436.25-683.64-314.22C1649.94,832,1496,936.59,1245.44,902.92c-391.4-67.74-519.52-357-1001-287C119.78,636.3,112.63,645.2.25,655.89c110.36-10.36,121.23-20.2,244.16-42.12,490.36-78.46,623.24,229.57,1025.45,296.07,266.5,33.47,420.09-90.67,634.81-177.39,256.08-94.18,321.41,14.11,659.22,347.64,119.33,116.09,234.29,220.81,390.65,295.52,208.75,90.89,428.76,70.3,586,9.12,333.3-155.67,601.3-819.94,1074.29-926,229.39-40.48,368,50.88,634.77,138C5521.27,681.26,5652,662,5860,655.89c-209.67,5.57-335.5,26.29-610.38-59-268.71-87.43-406.4-177-634.77-129.69-468.25,120-737.46,790.65-1074.29,946.44-172.09,66.11-384,67-586-28.8-154.81-79.68-268.4-184.2-390.65-303.55-349.25-345.33-410.11-441-683.64-327.08-207.63,92-357.31,198.31-610.39,158.83C867.61,834.36,732.8,526.4,244.41,611.63c-122,23.56-135.67,34.22-244.16,44.26C97,647.14,105.73,640.22,220,614.82,717.14,512,847.42,805.66,1245.44,909.33c265.82,59.1,420.26-48.26,634.81-144.93,262.6-111.86,333.36-32,659.22,292.81,238.74,235.82,546.65,524,976.63,389.46,347.81-131.32,613.65-806.51,1074.28-961.16,238.8-68.07,384.13,25.14,659.21,113.23,278.5,85.16,399.22,62.32,610.38,57.15-207.38,5-325.09,31.65-610.38-52.61C4974.92,518.33,4828.8,428.36,4590.38,502c-458.74,164.86-721.17,830.14-1074.28,960.17-461,140.31-794.82-227.16-1074.29-503.22-270-263.21-347.31-284.31-586-176-226,106.12-372.76,192.11-634.8,118.37-399-126.62-517.34-401-1025.45-282C101.42,642.48,85,648.48.25,655.89c108.24-9.13,118.86-20,244.16-49C737.48,502.37,890,827.6,1294.28,919.12c255.5,47.56,406.32-61.43,610.39-150.33,244.68-99.4,314.5-29.48,659.22,309C3730.68,2211.62,3855,800.37,4590.38,518.56c238.12-79.25,380.49,6.07,659.21,89.26C5539,690.23,5650.45,660.75,5860,655.89c-207.18,4.81-315.34,37.94-610.38-40.47C4978.74,540,4841.3,464,4614.82,532.17c-761.55,266.21-864,1679.76-2050.93,542.61-348.42-336.63-418.63-397.57-659.22-301-204.49,87.8-354.37,193-610.39,141.67C899.52,820.73,737.88,508.08,268.82,601.11c-135,29.71-150.06,45.34-268.57,54.78,94.81-7.1,105.93-14.08,219.74-43.72C722.43,488.63,864.44,787.74,1269.86,905.28c253.41,64.05,397.56-22.54,610.39-116.38,223.43-94.32,303.69-74.61,586,190,281.87,267.22,637,635.34,1074.31,493.23,357.65-139.83,639-778.92,1098.68-925.31,225-60.81,358.56,14.76,634.81,82.58,281.27,65.41,384.09,31.2,585.95,26.52-212.08,4.89-305.43,43.88-610.38-23.77-270.71-63.26-407.93-128.74-634.77-53.24-443.15,167.52-718.93,757.48-1074.29,887.2-427.25,129.63-764-201-1074.31-487.72-283.91-258.93-364.42-275.3-586-185-221.28,94.16-368.5,178.34-634.81,98.77C840.22,757.2,709,483.05,195.58,618.94,99.09,645.21,82.74,650.17.25,655.89c156.92-9.93,187.83-47.18,366.24-71.45C863,531.84,1090.23,1002.7,1587.27,902.68c288.27-68.23,410.24-225,634.8-109.42C2548,983.13,3105.74,1752.65,3687,1378.62c302.09-211.06,543.6-608.76,903.37-763.23,306.88-118.58,476.47,21.77,854.55,54.73,192.72,13.36,235.24-10.17,415-14.23-205.64,4.57-287.69,46-585.95.07-281.33-46.39-422.77-106.77-659.2-22.94-431,170.14-715.14,694.13-1074.29,801.56-431.05,106.93-754.6-181.34-1074.31-454.3-288.54-243.4-368-256.3-586-178.09-223.24,83.67-368.38,155.89-634.81,73.93C837.9,738,706.56,485.38,195.58,620.87,106,645.17,85.39,651,.25,655.89c84.32-4.29,105.11-9.5,195.33-33.3,509.84-131.9,641.14,105.2,1049.86,242.72,267.56,82.31,412.88,17,634.81-56.49,216.77-68.5,293.32-54.46,586,176.95,323,257.62,622.1,496.43,1049.88,422.53,378.7-79.51,645-549.82,1074.28-736.39,239.19-95.12,380.18-48.76,659.21-9.82,326.05,42.64,399-1.74,610.38-6.2-194.95,3.86-197.37,28.29-415,27.94C4922.76,675.51,4781,485.39,4175.3,970.55c-359.25,291-500.6,434.08-878.94,414.51-343.72-27.43-593.57-218.49-854.55-411.41C2018.47,665.13,2029,812.8,1611.68,885c-359.62,52.12-570.93-139.7-879-253.65C392.17,514.58,232.51,645.57.25,655.89c233.74-9,392-134.26,732.47-26.07,297.06,102.2,508.46,279.64,854.55,252.73,187.68-19.76,287.34-71.73,439.47-80.47,333-1.18,645.44,500.59,1269.62,539.95,390.12,15.66,524.63-96.38,903.38-375.13C4794.74,534,4922.18,692,5444.93,687.52c216.62-4.57,232.8-28.28,415-31.63-172.29,2.86-183.54,22.31-390.65,33.43-198.8,8.53-313.55-5.6-488.29-5.32-374.11,5.29-564.3,157.53-903.38,376C3783,1247.69,3649,1299.12,3296.36,1290,2632.69,1262.27,2346,834.26,2026.74,820.89c-148,1.1-255,44.09-439.47,55.08C1238.94,888.25,1027.6,721.66,732.72,628.9,392.1,530.3,236.6,648.13.25,655.89,219,650,334.05,567.38,610.64,602.48,982.09,660,1197.58,891,1660.51,867c298.68-20.39,360.62-74.71,610.39,52.24,348.93,181.19,553.71,317.81,1074.29,319.15,269.47-1,385.33,4.91,683.64-148.93,195.23-103.62,324.79-194.17,512.73-280.51,255-112.43,391-106.66,708-109.34,391.92-5.23,389.29-40.41,610.38-43.69-171.77,2.21-170.2,18-415,38.21-225.41,17.23-358.74,14.31-537.16,35.61-509.56,68.57-789,429.65-1294,447.77-.54,0-508.85-4.87-512.73-5-734.09-29.56-765.52-322.56-1220.77-314.57-172,4.88-267.49,15.54-439.48-10.63-352.58-60.51-558.36-219.84-879-245.95C302.8,586.65,218.13,651,.25,655.89c194.24-3.53,238.34-42.25,463.9-51.18,412.63-8.37,621.4,184,1074.28,245.32,285.17,34.52,424.38-4.64,634.81,80.8,510.59,222.51,534.65,196.64,1123.12,179.88,291.76-6.35,358.53,41.9,610.38-5.54C4323.83,1017,4485.5,802.36,5005.46,736.36,5142,720,5228.41,715,5420.5,697.24c287.43-27.7,269.49-39.49,439.47-41.35-79.66.73-833.85,63.27-1147.5,162.55-329.53,109.47-549.66,266-903.38,266-189-4.17-248.14-35.53-415.08-42-169.28-2.89-303.16,22-488.31,42.9-421,44.14-563.67-58.49-781.29-144.12-253-90.74-423.15-39.56-879-169C879.29,665.78,719.11,582,342.07,619.16,154.17,640,160.64,653.59.25,655.89c184.94-2.09,237.92-29.77,463.9-38.94,420-11.56,584.17,113.42,1147.53,229.7,150.62,30.46,206.51,38.58,317.4,64.17,217.53,52.91,231.87,87.49,390.65,141.35,404.67,124.16,661.71-80.93,1049.89-81.68C3688,979.11,3840.52,1162,4395,958.37c291.14-109.08,330.72-141.18,683.64-208.81C5272.59,713.5,5661,657.4,5860,655.89c-237,1.37-551.78,51.28-781.29,103.45-522.81,121.83-593.48,212.53-878.94,265.25C3815.32,1086,3643.19,909.14,3369.62,899c-319.87.2-539.08,184.08-854.56,202.83-184.32,4.63-259.77-42.63-415.07-110-183.43-76.18-281.74-94.49-927.79-268.68C492.91,544.93,391.84,652.67.25,655.89c391.18-2.46,579.83-95.18,1220.78,66.23,905,232.66,932.54,388.57,1196.36,398.25,382.67-3.94,655-360.53,1049.88-283.91C3787.35,914.2,3937.65,1142,4492.73,954.58c455-158.46,849.1-296.35,1367.24-298.69-902.2,2.91-1316.79,425.41-1782.32,359.51C3714,951,3572.34,697.48,3247.54,762.44,2929.54,840.56,2704.1,1127,2393,1143.1,2173.36,1142,2074.43,995,1538.43,802.48,821.07,551,472.33,653.84.25,655.89,662,653.28,1071.57,547.67,1758.17,893c586.89,301.11,543.35,438.13,1147.53-14.23,184.53-136.26,362.57-253.51,586-178.76,206.11,82.19,361.33,260.05,634.82,314C4453.85,1065.69,4674.54,884.6,5249.59,724c221.27-58.77,375.22-67.38,610.38-68.1-271.7.66-415.87.59-683.6,90.25-601.28,208.55-795.77,357.54-1123.15,235.52-274-113.88-423.09-327.13-634.77-375.88-240.58-37.39-419.83,148.61-659.24,360-488.94,425.36-524.13,185.12-1098.7-123.32C1128.39,565.26,813.49,654.25.25,655.89c416.09,0,336.22,17.16,708.05-11.92,476.26-35.19,734.6,63.94,976.62,210.19,536.95,334.44,583.35,586.55,1074.29,88.62,229.53-235.6,402.4-437.59,634.8-415.9,219,38.44,359.53,273.08,634.82,427.1,327.79,169.21,561.84,28.39,1098.67-188.16,309.15-121.2,435.32-109.93,732.47-109.93-242.83,0-105.57,8.59-317.39-52.95-256.95-69.24-415.39-40.16-634.81-37.76C4381.13,562.81,4083.94,152.46,3638.18,246,3500,281.12,3440.6,340,3247.54,362.34c-245.44,19.55-407.92-77.68-634.82-181-484.93-214.8-593.63,14.42-1074.29,495.1-583.28,571.2-763.53,205-1220.78,25.05C166.05,645.76,158.93,655.89.25,655.89c427.31-1,346.36,9.6,708.05-13.59,456.62-25.94,728.53,71,976.62,212.57,545.68,320.63,588.25,557.31,1074.29,99.41C2992.33,731.7,3163,544.2,3394,564.42c218.83,36.19,359.42,258.51,634.82,398.33,306.43,142.77,488.13,37.31,1098.67-198.16,302.74-113.52,434.55-108.15,732.47-108.7-238.61.56-383.78,4.45-610.38,67.44C4676.06,891.37,4456.18,1076,4126.48,1010c-271.79-65.84-431.07-259-634.82-345.87-226.07-80.88-406,48.67-586,193.06-609.16,496.2-566.95,358.66-1147.53,37.89C1120.19,549.58,746.58,653.67.25,655.89c169.62-.57,479.85-18.87,683.64-20.28,901.22,1.31,1406.92,512.19,1684.67,520.15C2679.4,1145,2904,833.21,3223.1,732.68c333.09-88.73,468.19,175.82,830.12,271.59C4549.14,1117,4919,659.53,5860,655.89c-889.16,3.44-1332.27,407-1782.32,365.08-359.21-45.59-494.42-270.15-805.72-226.74-312.41,57.3-525.24,302.66-830.12,335.45-241.09,14.09-251-92.07-830.13-297.36C759.25,535.58,459.49,653.45.25,655.89,206,654.4,290,626.5,561.81,625.06c301.48,1.45,558.54,69.76,1074.28,220.24,643.53,191.32,576,266.15,830.13,265.17,315.39-14,533.18-222.36,854.53-247.64,292.66-11.67,456.24,190.31,830.16,166.86C4500.78,997.6,5059.61,660,5860,655.89c-237.72,1.57-607.77,59.66-854.51,114.46-469.4,106.24-596.89,229.24-903.37,268.61-380.42,38.92-498.42-129.73-830.16-99.63-319.14,37.49-537,190.91-854.54,148.83-180.23-30.23-214.48-80.39-415.06-146.3-173.79-54.12-304.37-73.65-586-146C921.92,666.5,781.1,600,390.9,623.88c-211.84,15-215.54,30.29-390.65,32,167.18-2.15,170.25-18.08,366.24-36.19C746.24,589.13,904.07,671,1294.28,778.4c453.35,122.05,608.63,81.86,879,198.58,354.58,158,505.27,128.39,879,62.34,478.1-82.22,472.26,15.63,805.72,28.12,340,4.83,554.74-142.11,878.94-246.66,297.24-91,957.51-163.5,1123.11-164.89-112.31,1.12-123.52,4-268.56,22.46-193.81,23.93-315.17,32.68-488.3,53.38-446,55.25-487.82,119.87-879,274.35-405.78,155.64-570.3,83.87-805.68,72.41-325.72-9.59-570.29,72.49-903.39-5.23C2309,1020.72,2233,962.88,2100,917.66c-149.22-44.71-256-38.88-463.9-59.87-400-44.17-614.13-171.41-903.37-229.61C398.9,567.77,238.07,652.1.25,655.89c180.19-3.66,209.53-35.44,415.07-51.49,439.47-26,646.68,188,1098.7,247.45,285.09,32.73,430.49-17.69,634.8,54.75,121,48.2,237.31,118.66,439.48,179.76,244.54,69.18,436.59,60.67,732.45,56,272.57-2.59,370.09,37.31,634.82-40C4356.39,977,4523,775.51,5029.85,725.68c136.56-12.43,231.67-16,390.65-29.08,270.14-23.33,266-38.64,439.47-40.71-242.95,3.37-123.47,32.63-756.86,51.22-528.16,19-619.78,161.51-1074.28,378.7-297.33,137.22-411.1,121.87-732.47,120.83-536.1-4.57-691.68-112.9-1074.29-297.62-241-111.13-357.92-34.15-659.22-43.85C1128.93,842.61,900.11,611.28,513,596.63,270.32,593.7,206.76,650.77.25,655.89c230-6.89,370.67-109.8,683.64-40.27,373.64,93.19,563.12,310.6,1074.28,241.46,362.7-51.79,334.71-47.78,732.47,173.27,364.74,200.11,600,242.51,976.63,232.21,466.45-15,679.82-292,1098.68-478.7,245.95-103.78,378.23-91.46,683.64-88.71,379.19,2,386.78-35.73,610.38-39.26C5681,659,5662.4,682,5444.93,689c-189.05,3.86-296.92-11.8-463.9-15-367.29-2.24-560.29,146.41-903.38,384.53-290.84,199-431.17,269.09-781.29,257.58-643-33.72-943.61-498.3-1269.62-504.54-152,4.94-251.82,52.3-439.47,67.77-347.06,19.61-557.83-152.17-854.55-249.9C392.09,525.94,235,647.54.25,655.89c231.26-9.57,392.35-138.33,732.47-25.54,298.3,106.9,509.21,289.4,854.55,255.43,188.36-24,286-80.22,439.47-92.72,335.76-8.43,645.7,512.67,1245.19,572.19,760.81,55.68,947.46-734.26,1684.66-712.64,173.34,8.06,288.13,32.72,488.34,33.39,217-2.17,226.88-26.47,415-30.11-188.87,3.86-204.71,28.54-415,25.76C4932.7,667.14,4775.33,469,4199.74,942.08c-372.95,310.35-513.18,483.07-903.38,461-598.47-51.7-922.24-641.9-1269.62-622.66-154,17.75-251.08,80.35-439.47,110.9-344.41,45-556-145-854.55-259C392.51,511.92,231.11,644.89.25,655.89c84.89-4.59,105.56-10.15,195.33-34.2C706.06,487.9,836,732.48,1245.44,870.83c267.27,82.26,412.83,13.06,634.81-65.41,218.33-73.85,296.18-59.57,586,177.42,314.94,260.52,622.69,523.09,1049.88,442.28,383.71-88,654.28-601.43,1098.72-777.6C4851.05,563,4991.7,618.83,5274,660.61c301,41.53,377.94-.2,585.95-4.72-184.12,4.12-218.16,28.25-415,16.7-504.48-38.46-688-285.17-1245.19,232.07-375,354.4-507.24,574.17-879,562.15-355.93-25-625.38-289.8-878.94-508-410.3-347.9-430-166.27-830.13-63.21-345.93,77.76-552.93-112.42-854.54-248.16C399.9,495.88,242.61,641.3.25,655.89,156.81,645.5,188.4,608,366.49,584.12c504.07-52.27,730.44,442.08,1245.19,314.1C2007,786.67,2031.08,595,2441.81,957c262,234.43,773.61,769.45,1269.59,408.47,291.72-226.77,529.48-614.66,879-763.71,306.1-117,478.19,28.91,854.55,65.9,191.47,15.28,233.12-7.6,415-11.76-209.26,4.86-307.64,42.75-610.38-28.55-269.4-66.69-407.73-135.8-634.77-61.59-445.77,166.37-718.88,771.58-1074.29,906.76-428.46,135.57-770.85-209.23-1074.31-494.42-283-262.56-363.86-279.83-586-186.9-223.43,97.58-369.36,183.24-634.81,104.7-410-135.71-535-413.2-1049.86-277.35C100.1,644.55,83.76,649.85.25,655.89c127.79-9.88,149-30.84,293-60,457.92-81.48,630.68,240.73,1025.45,322.6,257.39,42.93,405.64-70.46,610.39-152.06,236-85.71,309.24-2.78,659.22,329.92,1167.47,1099.5,1287.85-324.22,2050.91-560.58,225.17-58.83,360.86,19.8,634.81,89.83,280.24,67.93,390.15,34.79,585.95,30.25-208.31,4.83-318.15,36.14-610.38-44.44-269.54-77.93-408.06-156.83-634.77-90.47-759.69,259.57-865.25,1700.29-2050.93,555.4C2219.37,740.6,2149,672.57,1904.67,771.44,1700.41,859.89,1550,967,1294.28,917.5,898.27,825,738.86,509.88,268.82,601.36,135.55,630.2,117.91,646.23.25,655.89,161.6,642,210.2,599.77,390.9,586.58,887.59,567,1095,1076.72,1636.09,885.7c292.85-112.25,391.87-242,610.39-97.43,323,235.08,701,852.39,1269.62,681.7,235.48-85.61,392.23-365.3,683.64-676.24,448.13-465.27,664-305.46,1049.85-188.18,286.95,83.23,402,55.24,610.38,50.34-221.87,5.36-339,30.58-634.77-62.56C4957.38,506,4807,418.5,4566,502.27,4113.37,682.79,3847.51,1352.13,3491.66,1462c-457.23,117.09-762.14-216.89-1049.85-502.56-268.15-263-345.34-289.08-586-180.22-224.15,105.08-372.24,194.1-634.8,123C822.25,779.65,705,503.53,195.58,619.82,93.3,644.31,82.92,648.53.25,655.89c135-12.41,142.4-29.52,293-53.69,465.65-63.65,621,267,1025.45,319.79,256.44,22.83,404.52-101.51,610.39-181.67,242.83-84.44,310.31,24.19,659.22,365.43C2709.39,1222.48,2823,1324.54,2979,1401.49c217,98.35,436.16,84.3,586,15.37,324.87-177,598.91-822.69,1049.9-945.44,227.84-50.71,364.79,37.91,634.77,125.54,275.68,85.46,398.08,64.27,610.38,58.93-214.8,6-340.32,24.85-610.38-59.08C4983.19,510,4844,419,4614.82,463c-468.89,112.69-741.54,781.62-1074.29,936.23-171.81,66.44-386,72-586-19-155.73-77.29-269.74-181.69-390.65-299.54-348.38-344.19-409-445.07-683.64-332.42C1665.94,842.1,1510.47,954.86,1245.44,907,846.94,819.78,721.05,524.21,220,617.23,98.48,641.69,97.81,646.8.25,655.89,99.58,646.5,102.82,640.84,220,619,723.73,533,846.4,829.16,1245.44,904.58c264.36,39.66,421.32-76.94,634.81-168.22,267.5-106.37,331.45-8.33,659.22,319,263,259.47,524.91,473.2,976.63,324.45,336.31-131.79,590-773.34,1049.85-914,243-62.3,395.24,33,659.25,122.82,280.28,91.7,410.94,74.11,634.77,67.22-231.61,8.36-363.69,23.25-634.77-64.34C4964.84,503.93,4810,407.08,4566,460.35c-475.7,126.42-719.79,772.43-1074.29,891.73-449.9,132.33-663.91-12.29-976.6-324-320.47-324.72-384.39-416.57-683.64-285.14-220,100.69-374.52,198.77-634.8,148.57C812,803.18,703.13,538.15,195.58,625.09,90.43,644.38,86.61,647.66.25,655.89c102.72-9.84,106.36-15.31,219.74-33C729.66,551,844.44,846.46,1245.44,894c262.64,21,421.53-102.7,634.81-187.71,271.18-98.8,335.81,20.5,659.22,341.9,275.5,269.09,489.34,423.05,976.63,255.29,223.82-89.33,372.23-358.64,659.2-625,420.61-374.58,669.06-212.74,1025.46-90.28,272.43,89.88,402.94,79,659.21,67.69-256.62,13.24-390,24.55-659.21-62.2C4837.5,471.39,4586.81,312.32,4175.3,655.5c-287,250.44-435.06,516.13-659.2,606.35-473.56,166.9-664.38,84.85-976.63-218C2215.27,723,2152,596.44,1880.25,690.39c-214.66,82.11-372.87,208.73-634.81,197.3-393.32-32.35-512.82-319.15-1001-266-117.55,14.87-128.1,23-244.16,34.21C264.46,630.2,418,558.59,757.14,715.32c297.65,142.39,464.58,231.74,805.71,97.42,190.26-79,293.49-151.88,439.48-166.13,395.47-8.66,582.59,804.15,1245.21,649.17,313.83-81,365.48-129,439.47-191.1,391.48-348.9,608.82-796.2,1245.19-595.75,428.74,142.62,437.45,177.46,927.77,147-457.68,33.85-495.82,11.9-903.38-127.42C4318.09,318,4130.64,657,3711.4,1035c-76.34,66.13-130.71,122.82-488.3,228.49-639.71,172.59-833.77-627.87-1220.77-630.93-145,9.9-245.08,78.35-439.48,161.85-356.83,146.6-509.8,59.31-830.13-86.11C409.56,567.67,242.39,632.15.25,655.89c102.21-10.22,95-12.06,195.33-24,532.24-56.63,629.85,223.78,1025.45,228,257.67-7,418.33-135.15,634.8-212,286-90.84,351.61,54,659.23,354.69,394,375.37,563,285.6,1025.47,93.8C3846.69,953.62,4076.88,481.9,4566,469.84c246.49,1.94,439,95.61,634.81,153.78,265.72,74.59,407.33,54.72,659.21,32.27-253.22,27.15-397.1,49.28-659.21-20-179-50.35-385.76-143.5-634.81-157.72-509.41-14.62-718.54,431.72-1049.85,570.45-430.38,170.23-586.48,356.34-1049.88-99.09-270.29-270.83-348-404.39-634.8-309.45-218.22,79.65-379.58,204-634.8,209.81C813.47,844.33,720,581.37,195.58,632.61,100.53,643.16,106,645.08.25,655.89,324,622,441.06,592,757.14,724.85c299.07,128.82,448.67,171.69,805.71,14.6,182.55-82.2,310.29-154.83,463.89-138.51,163.09,31,233,144.92,463.9,367.81,302.34,283.76,476.89,292.15,781.29,137.51,309.68-160.16,267-107,415.08-213.86C4133.54,556.32,4259.2,366,4932.2,565.49,5335.4,690.06,5371,716.9,5860,655.89c-255.13,37.11-401.2,65.27-659.21,5.42C5036.26,620.14,4826.53,537,4566,497c-518.59-69.21-712.3,278.09-1025.42,419.54-408.6,173.14-583.41,439.43-1001.06,92.56-300.13-261-368.38-447.3-634.8-412.51-215.09,39.58-377.74,176.68-634.81,223.9-406.73,61-517.71-208.52-1001-192.1-105.13,5.55-136.26,13.1-268.57,27.5,252.23-28.43,394.63-56.57,659.22,30.66C843.84,751,921.4,805.23,1099,819.15c248.1,10.23,410.22-95.49,634.81-184.36,319.79-119.77,409-13.49,634.8,211.86,114,112.93,232.56,229.77,390.65,285.37,250.42,72.44,414-79.25,634.8-208.72,110.84-61.53,119.84-52.7,219.74-105.25,148.93-84.72,258.81-182.45,439.47-264.64,386.71-162.93,679.94,11.12,1147.54,120.92,257.05,55.49,402.92,23.9,659.21-18.44-255.53,47.77-403.27,82.26-659.21,30.34C5071.21,657.49,4655.58,527,4443.91,492.35c-403.52-57.06-588.33,142.06-854.55,274.56C3494,810.73,3484.21,807.79,3394,860.68c-216.4,134.83-370.47,293.67-610.38,258.21C2623.67,1085,2506.91,981,2393,873.72,2161.74,651.78,2072.53,518,1758.17,617.83,1525.4,698.11,1358.53,815.51,1099,810c-177-10.2-254-61.83-439.48-124.43C396,601.45,250.81,626.32.25,655.89c252.09-30.81,397.4-52.54,659.22,28,178.69,58,249.78,103.09,415.06,115.57,258.23,10.35,425.52-100.61,659.23-179.32,318-99.27,406.49,21,634.8,235.52,114.82,105.93,231.49,207.86,390.65,238.87,251.71,32.62,412.12-151.49,634.8-297.7,97.84-60.11,113.1-56.21,219.74-106,308.58-152.55,461.5-271.16,830.16-195.73,112.42,25.12,611.8,169.84,732.46,197.35,266.89,56.17,424.21,18.16,683.6-36.59-462.44,107.27-527.69,90.49-927.77-16-669.54-172.44-698.54-302.26-1294-23.85-183.42,83.24-165.56,47-415.08,246.87-300.4,239.21-477.68,300-781.29,61.47-309.6-254.49-362.21-435.81-805.72-276C1306.19,771.13,1152.36,851,806,731.5,466.3,612.48,360.21,611,.25,655.89c118.55-14.79,103-13,146.5-17.71,538.29-53.13,637.28,160,1001,142.39,260.3-20.7,430.11-137.33,659.22-176.68,287.69-38.5,362,112.38,610.39,307.69,478.92,359.2,679.49-70.19,1025.45-275.15,73.52-38.9,78.12-34.5,195.34-81.91,574.58-234.9,636.67-77,1318.41,100.8,375.29,100.34,455.48,113.51,903.38.57-443.37,120.5-526.83,107.14-903.38,8.34C4468.35,539.59,4361.86,431.63,4077.65,413c-252.56-9.18-564.15,119.85-634.81,157.21C3108.52,770,2892.51,1241,2417.39,918.81c-253.15-182-325.54-345.71-634.8-305.58-231.52,38-399.5,145.88-659.22,159.47C717.44,781.65,730.7,563.93.25,655.89c92-11.23,136.11-17.19,219.74-22.82,500.24-26.82,599.58,174.87,1001,123.55,252.84-38.34,416.08-133.36,634.8-135,271.45,9.79,334.94,172.67,586,320,463.84,249.68,695.13-279.79,1025.46-449,141.87-62.69,396.74-130.9,634.82-97.12,177.58,29.94,301.83,88.86,488.29,163.34,197.74,77.52,548.13,160.68,659.21,177.19,229.61,28.85,387.69-14.64,610.38-80-211,65.79-368.34,108.88-585.95,86.19-135.27-17.27-498.4-108.29-659.2-171.55-403.55-163.07-597.1-294.18-1074.29-167.9C3173.76,511,2946.22,1114.68,2490.64,967.92c-267.27-101.46-330.21-292.36-610.39-326.59-225.91-17.42-396.5,74-659.22,109.59C761.23,803.49,753,567.3.25,655.89,183,701.48,235.87,719.75,366.49,743c364,59.26,551.33-45.95,1220.78,199.56,524.33,195.6,585.23,214,708,124.26,220.92-191.55,395-630.81,659.23-900.66C3450.28-301.66,3586.84,578,4175.3,584.3c160.54-4.13,267.94-45.83,439.52-71C5050,459,5268.25,762.51,5860,655.89c-596.87,91.77-831.55-209.74-1245.15-140.81-171.91,32.9-277.61,83-439.52,98-580.52,32-718.83-846.52-1196.35-463.84-274.74,243.43-455.48,715.61-683.64,922.26-66.77,51.3-101.88,63.92-195.32,52.11-168-28.81-319.14-96.47-537.14-179.44C897.21,694,731.55,816.86,342.07,742.93,215.76,717,170.81,700,.25,655.89c167.54,44.42,226.12,68,366.24,96.21C778,828,878.71,683.43,1611.68,974c169.44,67.92,326.46,136.16,488.31,160.29,94.82,9.62,129.51-5.16,195.32-58.21,331-312.63,588.26-1209.93,1049.88-951.8,154.59,99.2,228.17,227.92,415.08,388.45,310.81,249.8,521,90.75,830.11,9.84,415.5-98.26,657.9,211.17,1269.59,133.29-618.14,64-868.37-237.61-1269.59-129.82-308.46,91.35-519.64,268.74-830.11,30.91-194.88-160.69-271.12-304.26-439.52-405.66C2857-89.89,2595.62,838.82,2270.9,1103.64c-58.88,39-91.6,51.44-195.33,37-155.18-27.46-294.53-88.83-463.89-158.56C897.62,691.44,790.26,829.53,390.9,759.19c-152.08-29.51-222-58.64-390.65-103.3,150.47,39.46,203.36,62.31,341.82,95C754.48,841.71,899.53,697,1562.85,969c292.52,121.93,530.38,236.64,683.63,159.36,222.59-148.17,402.24-632.79,683.64-885.67,488.93-398,635.92,536.17,1196.36,454.79,160.94-30.56,264.15-97.68,439.47-159.76,408.62-133.64,666,168.6,1294,118.2-630.2,36.87-899.7-252.8-1294-114.2-306.4,116.39-507.07,299.7-805.68,98.1-182-134.48-250.19-264.33-415.08-384.49-472.83-309.88-725.81,540.35-1049.88,846.75-65.39,52.93-100.7,68.44-195.32,60.87-161.17-21.09-304.35-88.26-512.72-177.81-678.68-287.45-803-138.82-1220.78-227.75C217.12,723.14,158.24,696.51.25,655.89c158.49,39,211.94,64.44,366.24,101,417.84,92.71,565.3-45.65,1196.36,221.53,282.26,121.19,522.63,247.35,683.63,171.28,212.43-133.41,388.86-570.39,659.22-811.87C3403-67,3548.15,840.38,4102.09,736.66c160.59-37.43,265.71-110.34,439.47-182.31C4783,460.24,4847.93,498.68,5274,594c216.71,47.67,366.39,70.63,585.95,61.93-217.48,4.52-370.07-20.57-585.95-66-454.71-98.14-517.55-133.74-805.72.6-179.84,86.66-285.05,152.64-439.47,173-279.29,22-411.73-183.09-610.38-355-475.77-385.81-705,245-1049.89,648.37-133.75,145.39-208.17,185.49-586,22.85C1265,853.05,1207.77,819.92,659.47,797.14,362,781.72,244.55,713.27.25,655.89c227.13,49.87,348.56,115.19,610.39,140.57,259.51,21.43,459.86-1.43,830.13,137.28,468.28,181.26,669.26,361.46,879,191.69,269.6-248.27,497.88-798.89,854.55-782.71,314,39.25,424.45,412.17,781.29,428.68,312.69-3,527.93-272.37,854.55-266.9C5059.63,519.79,5437.25,658.27,5860,655.89c-418.34-3.57-870.74-154.7-1098.68-148.16-313.79,23.27-525.8,266.89-830.11,267-351.48-18.6-462-370.19-781.34-373.58-344.28,22.19-568.38,521.23-830.11,743-215.15,159.09-424.1-35.29-879-209-379-139.6-597-109.46-854.54-139.49C338.25,763,219.49,700.5.25,655.89c200.2,37.45,312.87,92.61,537.14,133.71,339.85,57.11,559.13-7.07,1049.88,205.76,311,137.82,512.71,268.17,683.63,196.9C2411.23,1116,2509.5,966,2710.38,743.6c584.14-629.5,739.28-17.41,1171.93,28.4,383.48,20.85,573.41-318.15,1049.89-247.79,454.14,69.9,642.14,125.56,927.77,131.68-281.49-8.85-540.71-79.49-976.59-134.7-423-47-651.39,257.54-1025.46,239.15C3432.2,720,3296.85,202.9,2686,828.47,2470.72,1053,2366.7,1188.77,2222.07,1220c-179.93,18.17-391.75-126.6-683.64-247-469.5-187.63-676.56-106.3-1074.28-198.57C269.17,726.82,171.65,685,.25,655.89,283.09,699,420.55,796.5,806,831.12c354.8,29.59,524.5,43.55,854.54,192.54,357.3,164.76,493,269.58,683.64,163.32,212.19-135.64,391.26-400.65,659.22-544.85,354.39-173.67,489.21,58.78,781.29,103.88,312.4,35.13,542.05-152.15,854.55-214.44,293.72-49.9,847.47,108.86,1220.76,124.32-246.68-11.93-346.54-58.64-976.59-125.56C4434.26,487,4202.05,731.83,3809.09,729.55c-277.18-10.7-345.11-139.41-610.38-91.44-262.17,59.25-440.91,253.89-683.65,451-139.07,109.79-227.95,171.22-390.65,132.61-206-58.76-367.82-183.28-659.23-280C1035.84,806.38,915.63,906,390.9,752.37,186.37,691.71,129.52,673.58.25,655.89c279.68,33.9,466.28,145.61,781.3,188.73,223.09,27.22,417,17.79,683.63,94.35,288.61,88,454.33,215.1,659.23,281.2,159.42,44.51,247.64,1.71,390.65-92.26,241.85-165,425-348.31,683.65-433.82C3466,615.64,3521.42,718,3809.09,708c172.45-10.17,298.95-49.2,512.73-108.65,354.73-96.16,427.45-76.19,781.29-42.77C5478.49,594,5647.78,644.33,5860,655.89c-219.79-13.11-603-112.31-1123.11-121.77-351.4-.56-598.11,108.71-927.77,148.07-329.39,34.29-392-74.12-781.31,152.55-409.84,246-595.57,465.13-879,387.66-253.56-80.92-439.39-257.43-854.54-321.93C1102.66,873.35,975.9,877,806,856.34,492.19,812.85,298.13,687.73.25,655.89c330.15,31.25,520.59,177,854.55,216,247.73,24.92,425.09,5.9,683.63,76,491.8,143.15,598.68,410.45,1025.46,224.05,254.19-117.57,441.8-280.79,683.65-403.81,231.49-112.08,237.32-61.85,610.38-127.69,667.93-121.63,667-115.33,1294-75.18,352.32,24.37,508.14,78,708,90.6-154.1-10.16-250.87-41.79-488.3-70.63-208.51-23.69-300.9-17.55-488.29-28.27-326.95-20.52-545.28-37.07-879,19.14-685.07,121.56-647.8,166.27-1074.27,446.8-813.27,524.88-833.46-59.19-1635.84-119.65C1107,891.34,971.37,899.91,806,875.17c-290.05-50.52-486-193-805.72-219.28C236,673.12,384.11,749.06,610.64,830.44c346.32,120.2,526.6,45.74,854.54,84.92,391.83,54.5,542.5,245.29,854.55,314.32,528.21,96.09,837.49-430.72,1269.63-583.24,609.92-210.36,789-101.32,1318.41-79,172.9,5.62,277.92-3.06,488.34,20.09,236.47,28.28,306.68,57.84,463.86,68.33C5669,643.06,5543.11,586,5225.2,576c-268.51-5.75-315.88,20.41-659.25-35.1-329.53-54.62-621.62-122-1074.29,135.23C3164.78,876.58,2917.3,1303.5,2441.81,1245c-240.29-38.49-445-181.4-659.22-266.4-427.07-159.85-682.22-3-1049.87-102.1C481.07,801.8,301.29,675.18.25,655.89c485.3,27.34,559.83,295.9,1123.12,260.27,260.52-18.71,411.58-46.66,659.22,36.22,215.08,77.46,482.63,250.06,708.05,300.43C2961,1339.88,3184.73,881.13,3516.1,648.18c435.17-287.3,677.28-191.7,1049.85-105.11,308.67,69.22,388.42,35.76,659.25,35.58,319.33,3.3,444,64.48,634.77,77.24-281.33-18.36-249.24-98.43-878.94-60.65-387.28,20-545.9-124.2-854.55-168.49-794.61-90.8-942,1007.76-1611.42,824.62-270.14-84.93-569.06-325.92-903.38-363.49-321.69-27.35-545.71,96.71-854.54,11C508.5,821.54,322.53,672,.25,655.89c526.59,23.14,587.52,346.8,1147.53,267.9,254.52-39.14,409.1-92.78,659.22-26,258.83,76.85,585,289.18,683.64,336.82,497.55,220.83,695.46-329.87,1049.89-644.83,431-363.19,668.22-160.82,1049.85-30.12,274,88.56,367.7,35.06,659.21,24.87,305.93-6.4,421.52,59.36,610.38,71.38-191.41-11.6-303.62-81.18-610.38-68.06C4962.83,604.47,4866,662,4614.82,576.39,4241.7,439.48,4002,182.5,3589.36,522.66,3224.2,840,3028.6,1436.36,2563.89,1244.47c-202.78-94-266.87-205-634.81-346.56-439.18-157.62-668.67,82.23-1049.87,42.64C581.14,897.94,400.48,671.74.25,655.89,575.61,676.17,606.67,1071.67,1221,912.41c243.78-66,406.21-135.33,659.22-72.56,322.86,90.59,512.06,273.31,634.81,354.05,498.4,307,683-311.23,1049.86-675.48,425-398,669.22-88.87,1049.9,67.05,247.19,93.74,344.64,29.27,634.77,5.75C5559,571.17,5660.41,644.41,5860,655.89c-197.45-10.69-301.9-87.77-610.38-61.37-292.39,30.16-390.58,100.69-634.77.18C4237.19,426.24,3997.61,89,3589.36,469.32c-362.81,358.76-552.55,1011.89-1025.47,723.27-212.83-141.09-265.95-266.06-610.39-376.52-253.28-73.47-412-12.62-659.22,72.27C751.22,1071.06,719.45,857.85,268.82,702,151,664.25,94.45,658.85.25,655.89c594.11,16.83,638.42,473.69,1269.61,237.84,240.36-92.67,405.28-181.92,659.22-132.48,326.23,75.1,429.42,228.91,610.39,370.79C3025.08,1491,3206.28,858.23,3564.92,469.29c420.82-428.92,663.66-48.19,1049.9,134.86,242.69,105.76,341.56,29.78,634.77-6.46,308.66-32.42,409.38,48.12,610.38,58.2-204-9.43-302-93.42-610.38-55C4957.14,643,4856,724.53,4614.82,613.59c-377-189.07-620.61-592.35-1025.46-194.14-379.24,398.07-548.84,1076.78-1049.89,668.23-176.16-151.3-302.23-333.54-634.8-377.39-240.41-22.26-394.15,76.06-634.81,180.62C649.3,1151.46,603.25,671,.25,655.89c98.33,2.22,158.23,6.13,293,54.22C743,882.31,801.94,1124.82,1343.11,852.48c231.3-118.26,391.63-214.64,634.8-181.09C2298.17,727.8,2356.57,881,2588.3,1069.34c475.86,361.11,660.48-337.91,1025.45-695.29C4014,11.89,4260.29,453.94,4639.21,632.5c235.2,99.44,342.41,7.5,634.81-32.9,291.78-34.1,380.8,47.66,585.95,56.29-209.7-7.94-293.9-92.34-585.95-54.59-291.83,44.17-400,139.88-634.81,38.7C4258.63,456.79,4012.64-4.26,3613.75,353c-364.29,354.31-545.39,1045.44-1025.45,658.1-226-193.92-308.84-370.63-634.8-392.72-249.9-6.4-408.4,120.19-659.22,255C681.79,1191.6,608.23,668,.25,655.89c613.68,10.87,690.2,551.11,1294,214.58,251.3-145.26,410.33-287.55,659.22-300,306.33-1.82,401.41,161.84,610.39,355.86,492.38,437.23,657.39-190.85,1025.47-569,409.94-391.33,662.16,99.59,1049.85,288,234.93,102,344.55,3.5,634.81-43.05,293.06-40.34,367.52,46.26,585.95,53.62-224.1-6.65-300.83-100.37-610.38-49.58-290.21,53.93-394.43,146-634.77,29.73C4240.7,437.31,3987.25-26.56,3589.36,340.25,3344.84,583.58,3196,945.38,2930.12,1013.64,2769,1039.76,2652.69,939.78,2539.47,834c-192.38-185-308-345.08-610.39-305.94C1680,571.62,1517.52,736.88,1269.86,882.84,704.1,1201,601.88,665.28.25,655.89,605,664.07,713,1211,1269.86,881.6,1516.62,728.3,1681,547.76,1929.08,484.38c310.7-64.88,426.75,107.13,634.81,302.88C2679,892,2794.14,984.59,2954.54,953.22c254.47-73.38,402.37-406.21,634.82-630,395.52-351.74,655.23,119.46,1025.46,315.4,240.24,115.69,344.57,23,634.77-32.18,310.42-52,377.69,43.5,610.38,49.46-235.15-5.23-300.27-101.29-610.38-51.5-283.89,51.89-393.58,144.2-634.77,30.89-384.27-198.62-640.94-675.51-1049.9-302.55-230.17,226.1-379.62,526.92-634.8,561.18-160.45,7.39-277.6-96.84-390.65-200.56-197.24-184.36-318-328.73-610.39-244.67-257.57,86.1-430.27,293.73-683.64,447.92C718.76,1198.36,592.92,662.85.25,655.89c613.37,6.12,732.42,580.55,1294,210,248.13-171.72,413.12-371.33,659.22-461.38,295.54-93.87,407.67,62.87,634.8,261C2706.52,765.3,2820.2,848.67,2979,823.78c244.91-58.95,393.31-339.1,610.41-525.87C3993.09-21,4247.8,463.58,4639.21,642.79c237.13,96.63,348.37-.47,634.81-44.29C5569.7,560.14,5619,651.38,5860,655.89c-249.11-3.9-288.66-95.06-585.95-60.23-284.24,39.87-396.84,134-634.81,40.17-390.83-173-648.11-643.74-1049.85-348.29-220.43,177.12-377.47,452.29-634.82,476.16-158.46,2.21-274-90.82-390.65-188.93C2346.43,388.71,2230.7,263.55,1953.5,372.39c-243.56,107.44-414.58,321-659.22,493.89C739.64,1239.24,614.38,661,.25,655.89c629.49,4.36,748.65,600.92,1318.44,194.21,245.36-183.31,417.42-402.93,659.22-515.16,276.62-114.69,385.14,16.81,634.81,211.53,120.88,91.53,233.59,165.25,390.65,149,248.57-43.74,401.83-291.32,610.38-432.28,388-234.62,642.07,199.72,1025.46,362.16,239.06,90.3,351.88.8,634.81-33.56,297.15-29.41,336.53,60.86,585.95,64.08-259.87-2.64-285.07-92.24-585.95-67.95-280.39,28.87-394.68,113.78-634.81,27-388.77-157.39-638.05-570.56-1025.46-358.1C3405.69,385.07,3241.91,625.36,2979,634.59,2555.54,621.23,2423.83,68.18,1953.5,320.16c-243.27,141.85-412,370.46-659.22,548.62C753,1238,615.66,659.26.25,655.89c75.45.33,127.12-.35,195.33,14.76,451.51,120.81,618.36,485.76,1049.86,232.27,253.9-160.5,431.34-409.28,683.64-582.79,463-298.36,612.18,190.64,1025.46,251.12,266.7,23.36,434.24-180.35,634.82-303.15,396.37-219.37,654,180.29,1049.85,331.34,241.51,82.56,355.21,4.45,634.81-16.78C5579.17,566,5592.69,653.78,5860,655.89c-276.76-1.61-274.92-87.27-585.95-78.55-278,13.51-391.37,84.94-634.81,6.5C4239.49,440.57,3984,70.93,3589.36,264.45,3401,367.21,3227.07,547.79,2954.54,508.74,2541,428.17,2390.09.3,1953.5,288.89c-249.71,176.16-428.33,430.31-683.64,600.67C844.56,1154.67,679.64,826,244.41,682.82c-75.8-22.69-90.87-26.46-244.16-26.93C158.17,656.4,160.52,658,220,673.64c442.45,130.73,608,468.75,1025.45,233.14,255.07-155.91,434.4-411.46,683.64-611.63,443.8-338.73,601.39,50.31,1025.46,152.44,262.81,51.8,426.05-76.56,610.38-173.91,394.52-188.87,651.91,140.07,1049.9,285.08,325.28,108.73,487-31.25,854.5,28.22,250.08,46.62,129.26,67.94,390.65,68.91-188.37-.53-152.12-.12-244.13-31.36-249.77-79.84-398.43-61.36-634.81-44.93-566.47,35-815.28-383.27-1245.2-353.87-319.57,37.06-452.36,342.68-1001,74.55-257.52-129-409.57-233-634.81-128.91-168.44,88.05-302.76,236-488.31,427.16C988.75,1233.34,838.11,946.13,390.9,735.11c-203.69-91.44-244.3-79-390.65-79.22h0c748.9,22.78,769.71,70.94,1147.53,99.59,290.33,20.61,480.41,17.55,732.47,95.46,313.29,103.09,354.78,226.32,586,97C2865,697.24,3148.18-13.63,3540.53,79.78c264,75.88,451.82,272.82,1025.42,447.44,224.74,66.35,267.17,61.26,439.51,112,344.13,104.27,473,139.17,854.51,17.89v0c-397.91,129.58-517.05,90.88-878.94-14-206.57-57.66-339.31-55.62-830.12-280.9-457.53-212.5-609.39-338.64-830.16-216.37-364.94,230.39-675,922.75-1074.27,832.57-155.24-48.46-241.56-164-610.39-206.15-243.81-24.41-407.82-4.55-683.63-38.43C751.29,707,567.59,657.44.25,655.76c761.6-71.07,759,131.89,1245.19,86.65,273.92-29.59,451.16-98.79,683.64-43.77,254.56,71.6,331.47,251.12,586,270.46,440,5.95,660.1-624.38,1049.86-684C3987.53,230.72,4311.26,449.37,4639.21,579,4758.5,624.25,5141,724.18,5274,742.86c221.59,25.93,374.53-16.54,585.95-86.66v0c-578.26,129.17-747.73-148.07-1220.76-143.05-173.51,4.7-280.48,27.23-439.47,14C3887,492,3774.2,326,3516.1,112.19c-457.22-357.46-718.25,340.61-1074.29,800.9-193.81,237.19-250.29,213.33-586,95-266.46-95.1-447.5-162.65-732.46-213.36C539.81,696,830.35,826.94.25,656.16v0c477.09,40,1380.25,106.75,1782.34,222.17,388.87,116.38,413.68,221.59,610.39,106.1,368.35-247.64,677.82-1027.16,1074.29-950,281.82,80.39,381,320.58,1001,464.48,246.13,55.11,354.91,62.51,537.16,117.46C5346.76,722.34,5481.12,769,5860,657.06v0c-375.23,123.64-502.63,102.78-854.51-1.39-343.13-98.58-250.22-15.25-1074.28-401.15-366.09-169.47-473.25-202.35-683.64-33.29C3007,428,2822.18,736.43,2563.89,908.37c-372.12,226-361.33-118.34-1001-152.33-252-10.67-402.51,9.76-683.64-34.14-294.64-48.24-447.88-70.85-879-66.2h0C382.15,623,503.74,638.35,830.38,713.1c371.27,81.84,557.38-7,854.54-23.74,459.45-16.35,487.44,253.95,805.72,277.16,346.77,3.52,573.17-400.58,854.55-619.7,371.73-265.52,957.46,98.76,1294,230.94,159.53,60.11,155,45.93,439.47,123C5393,783.73,5551.91,759.15,5860,656.33v0c-577.76,135-729.08-136.15-1220.76-142.24-186.58.39-297.83,19.8-463.91-4.67C3585.84,404.14,3462.11-347,2954.54,199.48c-264.65,301.46-438.06,703.31-659.23,857.62-147.83,84-195.61,9-756.88-166.25C934.06,706.34,678.82,775.1,317.65,718.7c-126.1-21-186.55-37.11-317.4-62.47v0C895.12,743.64,1376.19,766,1807,899.21c379.18,121.31,407.35,216.09,610.39,66.64,167.49-136.65,288.29-328.77,488.31-583.73,547.63-683.85,636.44-229,1196.39,11.46C4431.81,528.4,4693.7,516,5005.46,610.37,5345.41,716.5,5481.65,766.29,5860,657c-377,125.1-504.1,106-854.51,3.39-185.31-52.77-212.65-42.87-415.08-114.93C4175.49,392.83,3790.25,144.13,3516.1,128.38c-422,4.14-766.85,991.4-1269.62,828.39-155.78-62.25-244.38-175.26-586-205-250.18-17.64-424.69,15.45-708-19.63-239-32.75-386.33-89.6-952.21-76.46v0c721.1-49.38,732.33,89.43,1147.53,89.9,271.45-3.89,447.35-60.16,683.64-26.37,309.87,54.17,346.45,212.14,586,244.53,436.88,30.67,711.9-627.31,1049.88-740.18C3796.69,143,4257.05,414.39,4566,545.32c210,86.39,250.36,79.29,439.51,131.13,343.29,95.68,471.09,108.69,854.51-19.88v0C5278.39,802.75,5171.65,544,4614.82,516.71c-185.35-7.54-301.76-1.74-463.91-40.47C3749.63,368.76,3599.14,40.58,3345.19,4.42,2923-17.1,2634.67,845.4,2295.31,1051.64c-150.83,72.74-191.21-11.42-732.46-170.18-580.34-166-918.92-124.64-1245.2-170.34C185.28,691.41,129.37,677.86.25,656.28c364.33,55.89,281.61,59.37,732.47,81.22,240,13.41,623.41,67.13,976.62,178.64,489.44,157.58,512.47,242.27,732.47,13.12C2798.32,532.14,3080.67-197.88,3516.1,66.05c246.48,163.05,329.78,298.12,610.38,389.15,170.3,50.22,296.47,50.1,488.34,63.19C5198.65,562,5283.86,806.13,5860,656.64v0c-380.37,127.23-508.27,113.48-854.51,15.76-186.86-51.71-218.16-43.23-415.08-119.55-354.59-142-807.25-417.83-1123.11-352.52-340.39,101.14-619,766-1049.88,765.54-243.51-16.5-277.25-182.64-610.39-236.22-236.8-31.34-413.2,18.9-683.63,16.11C724.25,735.71,709,615.1.25,655.65h0c705.35-32.36,729.51,77.51,1123.12,90.44,271.61,5.29,447-38.28,683.63-2.39,338.24,60.45,369.07,224.35,610.39,224.42,423.93-28.86,707.29-701.68,1049.88-790.91,298.7-50.45,724,217.72,1123.11,373.21,197.14,74.33,232.61,67.05,415.08,118C5353.8,768,5481.3,783.12,5860,656.79v0c-361.71,96.83-506.81,45.57-854.51-63.36-345.8-104.92-554.49-55.85-854.55-144.83C3744.24,317.78,3599.66,13.68,3345.19,5.78c-334.63,20.24-578.2,562.75-879,902-262.37,278.77-269.91,128.94-878.95-37.77C1274,786.77,894.39,743.67,732.72,733.57,246.63,706.81,349.46,705,.25,656.28c207.6,26.1,307.26,48.73,561.56,64C2146.61,807,2085.41,1245.63,2417.39,961c169.61-159,289-366.4,488.31-622.63,540.75-676.31,650.21-139.49,1196.39,78.67,136.32,51,244,70.16,390.64,89.53,549.56,70.14,437.5,81.57,756.86,166.85,250,62.5,392.8,43.13,610.38-16.58v0c-380.84,126.72-508.27,107.65-854.51,7.51-189-53.29-213.88-42.73-415.08-116.46C4102.5,363.11,3693.8,79.28,3418.45,167.32,3077.17,308.2,2783.71,973.61,2368.56,971.87c-212.93-16.25-251.2-161.15-586-218.34-237.26-34.72-412.89,2.88-683.64-8.15C728.51,725.58,690.35,631.84.25,655.66h0c301-23.42,454.82-24.66,756.89,40.21,458.06,100.57,557.07,20.58,903.37,3.13,461.53-14.64,486.31,224.91,781.3,264.85,355.43,25.58,586.41-387.87,878.94-629.72C3682.4,57.26,4208.4,402.75,4614.82,567c177.38,69.24,210,63.06,390.64,112.17C5344,772.52,5477.32,784.36,5860,656.45v0c-579.38,140.81-705.4-122.49-1220.76-140.81-186.85-4.37-298.85,9.34-463.91-20.4-586.05-123.07-704-820.76-1196.35-310.72-273.32,300.35-454.34,719.7-683.64,870.19-146.63,77.49-187.6,3.12-732.46-164.24-601-180.45-899-124-1245.2-175.3C187.86,694.62,130.51,679.86.25,656.27v0C180.64,676.44,287.92,696.4,513,712.34c439.19,29.21,906.88,73.37,1318.44,208.49,366.8,123.65,400.9,205.77,610.39,21.39C2808,593,3099.48-146.88,3516.1,46.14c319.47,167.54,380.73,361.16,976.63,459.13,625.86,99.66,412.18,82.66,756.86,173.37C5498.89,739.84,5642,718.45,5860,657"/></g></svg>