<svg xmlns="http://www.w3.org/2000/svg" xmlns:xlink="http://www.w3.org/1999/xlink" viewBox="0 0 1200.15 724.31"><defs><style>.a,.c,.e{fill:none;}.b{fill:#ff0b53;}.c{stroke:#ff0b53;stroke-width:4px;}.c,.e{stroke-miterlimit:10;}.d{clip-path:url(#a);}.e{stroke:#1d1d1f;}</style><clipPath id="a"><rect class="a" width="1200.15" height="724.31"/></clipPath></defs><circle class="b" cx="303.48" cy="192.98" r="141.14" transform="translate(-47.57 271.12) rotate(-45)"/><polygon class="c" points="121.37 600.16 89.9 631.63 58.42 600.16 34.93 623.65 66.41 655.13 34.93 686.6 58.42 710.09 89.9 678.62 121.37 710.09 144.86 686.6 113.39 655.13 144.86 623.65 121.37 600.16"/><g class="d"><path class="b" d="M985.74-240.93c-127.25,0-230.42,103.17-230.42,230.42S858.49,219.91,985.74,219.91s230.42-103.16,230.42-230.42S1113-240.93,985.74-240.93Zm0,345.06A114.64,114.64,0,0,1,871.1-10.51,114.65,114.65,0,0,1,985.74-125.15,114.64,114.64,0,0,1,1100.38-10.51,114.63,114.63,0,0,1,985.74,104.13Z"/><path class="e" d="M-42.84,29.37S8,119.15,133.74,103.19C274.68,85.29,335.26,189,300.35,259.82S110.32,345.61,132,460.34-34.86,626.94-34.86,626.94"/><path class="e" d="M-80.75,133.12S26.69,172,133.59,158.06s119.4,48.82,106.9,73.83C214.55,283.76,75.88,293.74,66.9,377.54c-6.75,63,46.89,147.65-74.82,192.54"/><path class="e" d="M-32.86,175S77,161,57.35,222.91C34.88,293.85-17.9,292.74,32,382.53c17.75,31.93,23,160.61-74.82,134.68"/><ellipse class="e" cx="153.2" cy="219.91" rx="49.38" ry="26.94"/><path class="e" d="M1200.15,307s-198.14-46.56-258,149C899.2,596.33,895.54,672.83,806.44,711.41"/><path class="e" d="M979.92,602.34c93.17-45.8,49.49-201.26,109.88-250.74,47.88-39.24,110.35,45.49,110.35,45.49"/><path class="e" d="M1043.14,668.81C1149.55,603,1107.9,489.24,1169.1,472s122.38,57.2,122.38,57.2"/><polygon class="b" points="1256.61 304.3 1200.15 360.77 1143.68 304.3 1101.54 346.44 1158 402.91 1101.54 459.37 1143.68 501.52 1200.15 445.05 1256.61 501.52 1298.75 459.37 1242.29 402.91 1298.75 346.44 1256.61 304.3"/></g></svg>