<svg version="1.2" xmlns="http://www.w3.org/2000/svg" viewBox="0 0 1080 1080" width="1080" height="1080">
	<title>Nuevo proyecto</title>
	<defs>
		<linearGradient id="g1" x1="999.7" y1="47.1" x2="386.3" y2="47.1" gradientUnits="userSpaceOnUse">
			<stop offset="0" stop-color="#b3b3b3"/>
			<stop offset="1" stop-color="#f1f1f1"/>
		</linearGradient>
		<linearGradient id="g2" x1="1000.1" y1="362.4" x2="894.8" y2="362.4" gradientUnits="userSpaceOnUse">
			<stop offset="0" stop-color="#a1a1a1"/>
			<stop offset="1" stop-color="#e0e0e0"/>
		</linearGradient>
		<linearGradient id="g3" x1="918" y1="501.7" x2="49.8" y2="501.7" gradientUnits="userSpaceOnUse">
			<stop offset="0" stop-color="#424242"/>
			<stop offset="1" stop-color="#2c2c2c"/>
		</linearGradient>
		<radialGradient id="g4" cx="663.4" cy="466.6" r="495.1" gradientUnits="userSpaceOnUse">
			<stop offset="0" stop-color="#cecece"/>
			<stop offset="1" stop-color="#f3f3f3"/>
		</radialGradient>
		<clipPath clipPathUnits="userSpaceOnUse" id="cp1">
			<path d="m918.17 776l-534.25-308.31 67.17-399.36 534.6 308.52z"/>
		</clipPath>
		<linearGradient id="g5" x1="1251.8" y1="310.6" x2="383.7" y2="310.6" gradientUnits="userSpaceOnUse">
			<stop offset="0" stop-color="#5761d7"/>
			<stop offset="1" stop-color="#bcbeff"/>
		</linearGradient>
		<linearGradient id="g6" x1="959.6" y1="275.6" x2="94.2" y2="275.6" gradientUnits="userSpaceOnUse">
			<stop offset="0" stop-color="#c0bff6"/>
			<stop offset="1" stop-color="#e9e9fd"/>
		</linearGradient>
		<linearGradient id="g7" x1="755.3" y1="409.8" x2="938.7" y2="488.2" gradientUnits="userSpaceOnUse">
			<stop offset="0" stop-color="#42e8e0"/>
			<stop offset="1" stop-color="#0f054c"/>
		</linearGradient>
	</defs>
	<style>
		.s0 { fill: #ff0a52 } 
		.s1 { fill: url(#g1) } 
		.s2 { fill: url(#g2) } 
		.s3 { fill: #202020 } 
		.s4 { fill: #0d0d0d } 
		.s5 { fill: url(#g3) } 
		.s6 { fill: url(#g4) } 
		.s7 { fill: #ffffff } 
		.s8 { fill: url(#g5) } 
		.s9 { fill: url(#g6) } 
		.s10 { fill: #4f4f4f } 
		.s11 { fill: #1b162e } 
		.s12 { fill: #42e8e0 } 
		.s13 { opacity: .5;fill: url(#g7) } 
	</style>
	<g id="&lt;Group&gt;">
		<g id="&lt;Group&gt;">
			<path id="&lt;Compound Path&gt;" fill-rule="evenodd" class="s0" d="m590.3 1053c-4.1 0-8.4-1.1-11.9-3.1l-526.7-304c-3.6-2.1-5.7-5-5.7-8 0-2.6 1.5-4.9 4.3-6.5l314.3-181.5c5.6-3.2 15-2.9 21.4 0.8l526.7 304.1c3.6 2.1 5.7 5 5.7 8 0 2.6-1.6 4.9-4.3 6.5l-314.3 181.5c-2.6 1.4-6 2.2-9.5 2.2zm-536.7-310.4l526.7 304.1c5.1 3 13.2 3.3 17.6 0.8l314.3-181.5c1.1-0.6 2.4-1.7 2.4-3.2 0-1.6-1.4-3.4-3.8-4.7l-526.7-304.1c-5.2-3-13.2-3.4-17.6-0.8l-314.3 181.4c-1.1 0.7-2.4 1.7-2.4 3.3 0 1.6 1.4 3.3 3.8 4.7z"/>
			<g id="&lt;Group&gt;">
				<g id="&lt;Group&gt;">
					<g id="&lt;Group&gt;">
						<g id="&lt;Group&gt;">
							<g id="&lt;Group&gt;">
								<path id="&lt;Path&gt;" class="s1" d="m385.8 457.5l66.5-395-5.3-2.2 8-4.6c1.6-1 3.8-1 6.2 0.4l532.1 307.2c4.4 2.6 7.7 9 6.9 13.6l-67.1 398.1c-0.3 2.1-1.4 3.5-2.8 4.1l-7.8 4.5-1.4-7.3 0.5 0.1-528.9-305.4c-4.4-2.5-7.7-8.9-6.9-13.5z"/>
								<path id="&lt;Path&gt;" class="s2" d="m990.4 374.1l8.7-3.8c1 2.2 1.5 4.6 1.1 6.6l-67.1 398.1c-0.3 2.1-1.4 3.5-2.8 4.1l-7.8 4.5-1.4-7.3 0.5 0.1-26.8-15.5z"/>
								<path id="&lt;Path&gt;" class="s3" d="m377.4 462.3l67.1-398.1c0.7-4.3 4.3-5.6 8.4-3.3l532.1 307.2c4.3 2.6 7.7 9 6.9 13.6l-67.1 398.1c-0.7 4.2-4.3 5.6-8.4 3.2l-532.1-307.2c-4.3-2.5-7.6-9-6.9-13.5z"/>
								<g id="&lt;Group&gt;" style="opacity: .5">
									<path id="&lt;Path&gt;" class="s4" d="m451.1 68.3l534.6 308.5-67.5 399.2-534.3-308.3z"/>
								</g>
							</g>
							<g id="&lt;Group&gt;">
								<path id="&lt;Path&gt;" class="s5" d="m49.8 664.3l29.1 15.2 291.2-168.1c4.8-2.8 13.3-2.5 19 0.8l502.2 289.9q4.8-2.7 26.7-13.2l-10.6 17.3q-0.1-0.1-0.1-0.1c-0.4 1.3-1.4 2.4-3 3.3l-306.6 177.1c-4.9 2.8-13.4 2.5-19-0.8l-513.9-296.7c-2.3-1.3-3.8-2.9-4.4-4.6z"/>
								<path id="&lt;Path&gt;" class="s6" d="m52.9 657.9l314.3-181.5c5-2.9 13.7-2.5 19.5 0.8l526.7 304.1c5.8 3.3 6.4 8.4 1.4 11.2l-314.3 181.5c-5 2.9-13.7 2.5-19.5-0.8l-526.7-304.1c-5.7-3.3-6.4-8.4-1.4-11.2z"/>
								<path id="&lt;Path&gt;" class="s7" d="m54.3 666.8l526.7 304c5.8 3.4 14.5 3.7 19.5 0.8l314.3-181.4c1.8-1 2.8-2.3 3.2-3.7 0.5 2.2-0.5 4.5-3.2 6l-314.3 181.5c-5 2.9-13.7 2.5-19.5-0.8l-526.7-304.1c-3.7-2.1-5.2-5-4.5-7.6 0.4 1.9 1.9 3.7 4.5 5.3z"/>
							</g>
						</g>
						<g id="&lt;Clip Group&gt;" clip-path="url(#cp1)" style="opacity: .1">
							<g id="&lt;Group&gt;">
								<g id="&lt;Group&gt;">
									<path id="&lt;Path&gt;" class="s8" d="m383.7 473.3l29 15.1 291.2-168.1c4.9-2.8 13.4-2.4 19 0.8l502.2 290q4.8-2.7 26.7-13.3l-10.6 17.3q0 0-0.1 0c-0.4 1.2-1.3 2.4-2.9 3.3l-306.7 177c-4.9 2.8-13.4 2.5-19-0.8l-513.9-296.7c-2.3-1.3-3.7-2.9-4.3-4.5h-0.1z"/>
									<path id="&lt;Path&gt;" class="s9" d="m386.8 466.8l314.3-181.5c5-2.8 13.7-2.5 19.4 0.9l526.7 304c5.8 3.4 6.4 8.4 1.4 11.3l-314.3 181.4c-5 2.9-13.7 2.6-19.4-0.8l-526.7-304.1c-5.8-3.3-6.4-8.3-1.4-11.2z"/>
									<path id="&lt;Path&gt;" class="s7" d="m1248.6 601.5l-314.3 181.4c-2.7 1.6-6.5 2.2-10.3 1.9 2.4-0.2 4.7-0.8 6.5-1.9l314.3-181.4c4.9-2.9 4.3-7.9-1.4-11.3l-526.7-304c-2.7-1.6-5.9-2.4-9.2-2.7 4.4-0.4 9.3 0.5 13 2.7l526.7 304c5.8 3.4 6.4 8.4 1.4 11.3z"/>
								</g>
								<path id="&lt;Path&gt;" class="s10" d="m663.8 428.7l-18.7 10.9c-1.5 0.9-3.8 1-5.2 0.2l-16.8-9.8c-1.4-0.7-1.3-2.1 0.2-2.9l18.7-11c1.5-0.9 3.8-0.9 5.2-0.1l16.8 9.7c1.4 0.8 1.3 2.1-0.2 3zm26.1 15l-18.8 11c-1.4 0.9-3.7 0.9-5.1 0.1l-16.9-9.7c-1.3-0.8-1.2-2.1 0.3-3l18.7-11c1.5-0.8 3.8-0.9 5.1-0.1l16.9 9.8c1.4 0.7 1.3 2.1-0.2 2.9zm26.1 15.1l-18.8 10.9c-1.5 0.9-3.8 1-5.1 0.2l-16.9-9.8c-1.3-0.7-1.3-2.1 0.2-2.9l18.8-11c1.5-0.9 3.8-0.9 5.1-0.1l16.9 9.7c1.3 0.8 1.3 2.1-0.2 3zm-19.9 20l-15.7 9.2c-1.5 0.9-3.8 0.9-5.1 0.2l-16.9-9.8c-1.4-0.8-1.3-2.1 0.2-3l15.7-9.2c1.5-0.8 3.8-0.9 5.2-0.1l16.8 9.7c1.4 0.8 1.3 2.2-0.2 3zm26.1 15.1l-15.8 9.2c-1.4 0.8-3.7 0.9-5.1 0.1l-16.9-9.7c-1.3-0.8-1.2-2.1 0.3-3l15.7-9.2c1.5-0.9 3.8-0.9 5.1-0.2l16.9 9.8c1.4 0.8 1.3 2.1-0.2 3zm26.1 15l-15.8 9.2c-1.5 0.9-3.7 0.9-5.1 0.2l-16.9-9.8c-1.3-0.8-1.2-2.1 0.2-3l15.8-9.2c1.5-0.8 3.7-0.9 5.1-0.1l16.9 9.7c1.3 0.8 1.2 2.2-0.2 3zm26 15.1l-15.7 9.2c-1.5 0.8-3.8 0.9-5.1 0.1l-16.9-9.7c-1.4-0.8-1.3-2.1 0.2-3l15.8-9.2c1.4-0.9 3.7-0.9 5.1-0.1l16.9 9.7c1.3 0.8 1.2 2.1-0.3 3zm26.1 15l-15.7 9.2c-1.5 0.9-3.8 1-5.2 0.2l-16.8-9.8c-1.4-0.8-1.3-2.1 0.2-3l15.7-9.2c1.5-0.8 3.8-0.9 5.1-0.1l16.9 9.8c1.4 0.7 1.3 2.1-0.2 2.9zm26.1 15.1l-15.8 9.2c-1.4 0.8-3.7 0.9-5.1 0.1l-16.9-9.7c-1.3-0.8-1.2-2.1 0.2-3l15.8-9.2c1.5-0.9 3.8-0.9 5.1-0.1l16.9 9.7c1.4 0.8 1.3 2.1-0.2 3zm26.1 15l-15.8 9.2c-1.5 0.9-3.8 1-5.1 0.2l-16.9-9.8c-1.4-0.8-1.3-2.1 0.2-2.9l15.8-9.2c1.4-0.9 3.7-1 5.1-0.2l16.9 9.8c1.3 0.7 1.2 2.1-0.2 2.9zm26 15.1l-15.7 9.2c-1.5 0.8-3.8 0.9-5.1 0.1l-16.9-9.7c-1.4-0.8-1.3-2.1 0.2-3l15.7-9.2c1.5-0.9 3.8-0.9 5.2-0.1l16.8 9.7c1.4 0.8 1.3 2.1-0.2 3zm26.1 15l-15.7 9.2c-1.5 0.9-3.8 1-5.2 0.2l-16.9-9.8c-1.3-0.7-1.2-2.1 0.3-2.9l15.7-9.2c1.5-0.9 3.8-1 5.1-0.2l16.9 9.8c1.4 0.7 1.3 2.1-0.2 2.9zm26.1 15.1l-15.8 9.2c-1.4 0.9-3.7 0.9-5.1 0.1l-16.9-9.7c-1.3-0.8-1.2-2.1 0.2-3l15.8-9.2c1.5-0.9 3.8-0.9 5.1-0.1l16.9 9.7c1.3 0.8 1.3 2.1-0.2 3zm-245.5-114l-15.8 9.2c-1.5 0.9-3.8 0.9-5.1 0.1l-16.9-9.7c-1.3-0.8-1.2-2.1 0.2-3l15.8-9.2c1.4-0.8 3.7-0.9 5.1-0.1l16.9 9.7c1.3 0.8 1.2 2.1-0.2 3zm-26.5-15.3l-15.7 9.2c-1.5 0.9-3.8 1-5.2 0.2l-16.9-9.8c-1.3-0.8-1.2-2.1 0.3-3l15.7-9.2c1.5-0.8 3.8-0.9 5.1-0.1l16.9 9.8c1.4 0.7 1.3 2.1-0.2 2.9zm-26.5-15.3l-15.7 9.2c-1.5 0.9-3.8 1-5.2 0.2l-36.3-21c-1.4-0.8-1.3-2.1 0.2-3l15.7-9.2c1.5-0.9 3.8-0.9 5.2-0.1l36.3 20.9c1.4 0.8 1.3 2.2-0.2 3zm-30.7 10l-15.8 9.2c-1.5 0.9-3.8 1-5.1 0.2l-29.5-17.1c-1.4-0.7-1.3-2.1 0.2-2.9l15.7-9.2c1.5-0.9 3.8-1 5.2-0.2l29.5 17.1c1.3 0.7 1.2 2.1-0.2 2.9zm109.7 35.7l-15.7 9.2c-1.5 0.8-3.8 0.9-5.1 0.1l-16.9-9.7c-1.4-0.8-1.3-2.2 0.2-3l15.7-9.2c1.5-0.9 3.8-0.9 5.2-0.2l16.9 9.8c1.3 0.8 1.2 2.1-0.3 3zm26.1 15l-15.7 9.2c-1.5 0.9-3.8 0.9-5.2 0.2l-16.8-9.8c-1.4-0.8-1.3-2.1 0.2-3l15.7-9.2c1.5-0.8 3.8-0.9 5.1-0.1l16.9 9.7c1.4 0.8 1.3 2.1-0.2 3zm26.1 15.1l-15.8 9.2c-1.4 0.8-3.7 0.9-5.1 0.1l-16.9-9.7c-1.3-0.8-1.2-2.2 0.2-3l15.8-9.2c1.5-0.9 3.8-0.9 5.1-0.2l16.9 9.8c1.4 0.8 1.3 2.1-0.2 3zm26.1 15l-15.8 9.2c-1.5 0.9-3.8 0.9-5.1 0.2l-16.9-9.8c-1.4-0.8-1.3-2.1 0.2-3l15.8-9.2c1.4-0.8 3.7-0.9 5.1-0.1l16.9 9.7c1.3 0.8 1.2 2.2-0.2 3zm26 15.1l-15.7 9.2c-1.5 0.8-3.8 0.9-5.1 0.1l-16.9-9.7c-1.4-0.8-1.3-2.1 0.2-3l15.7-9.2c1.5-0.9 3.8-0.9 5.2-0.2l16.8 9.8c1.4 0.8 1.3 2.1-0.2 3zm26.1 15l-15.8 9.2c-1.4 0.9-3.7 0.9-5.1 0.2l-16.9-9.8c-1.3-0.8-1.2-2.1 0.3-3l15.7-9.2c1.5-0.8 3.8-0.9 5.1-0.1l16.9 9.7c1.4 0.8 1.3 2.2-0.2 3zm26.1 15.1l-15.8 9.2c-1.5 0.8-3.7 0.9-5.1 0.1l-16.9-9.7c-1.3-0.8-1.2-2.1 0.2-3l15.8-9.2c1.5-0.9 3.7-0.9 5.1-0.1l16.9 9.7c1.3 0.8 1.2 2.1-0.2 3zm26 15l-15.7 9.2c-1.5 0.9-3.8 1-5.1 0.2l-16.9-9.8c-1.4-0.8-1.3-2.1 0.2-3l15.8-9.2c1.4-0.8 3.7-0.9 5.1-0.1l16.9 9.8c1.3 0.7 1.2 2.1-0.3 2.9zm26.1 15.1l-15.7 9.2c-1.5 0.8-3.8 0.9-5.2 0.1l-16.8-9.7c-1.4-0.8-1.3-2.1 0.2-3l15.7-9.2c1.5-0.9 3.8-0.9 5.1-0.1l16.9 9.7c1.4 0.8 1.3 2.1-0.2 3zm46.4 26.7l-15.8 9.2c-1.5 0.9-3.8 1-5.1 0.2l-36.8-21.3c-1.4-0.8-1.3-2.1 0.2-3l15.7-9.2c1.5-0.8 3.8-0.9 5.1-0.1l36.9 21.3c1.3 0.7 1.2 2.1-0.2 2.9zm-47.8 28l-15.8 9.2c-1.5 0.8-3.7 0.9-5.1 0.1l-31.1-17.9c-1.3-0.8-1.3-2.2 0.2-3l15.8-9.2c1.4-0.9 3.7-0.9 5.1-0.2l31.1 18c1.3 0.8 1.2 2.1-0.2 3zm-210.8-149.5l-15.7 9.2c-1.5 0.9-3.8 1-5.2 0.2l-16.8-9.8c-1.4-0.8-1.3-2.1 0.2-3l15.7-9.2c1.5-0.8 3.8-0.9 5.2-0.1l16.8 9.8c1.4 0.7 1.3 2.1-0.2 2.9zm-26.7-15.4l-15.8 9.2c-1.4 0.9-3.7 0.9-5.1 0.1l-16.9-9.7c-1.3-0.8-1.2-2.1 0.3-3l15.7-9.2c1.5-0.8 3.8-0.9 5.1-0.1l16.9 9.7c1.4 0.8 1.3 2.1-0.2 3zm-26.7-15.4l-15.8 9.2c-1.4 0.8-3.7 0.9-5.1 0.1l-16.9-9.7c-1.3-0.8-1.2-2.1 0.2-3l15.8-9.2c1.5-0.9 3.8-0.9 5.1-0.2l16.9 9.8c1.3 0.8 1.3 2.1-0.2 3zm-26.7-15.5l-15.8 9.2c-1.5 0.9-3.8 1-5.1 0.2l-16.9-9.8c-1.4-0.7-1.3-2.1 0.2-2.9l15.8-9.2c1.4-0.9 3.7-1 5.1-0.2l16.9 9.8c1.3 0.8 1.2 2.1-0.2 2.9zm106.2 61.4l-15.8 9.2c-1.4 0.8-3.7 0.9-5.1 0.1l-16.9-9.7c-1.3-0.8-1.2-2.1 0.2-3l15.8-9.2c1.5-0.9 3.8-0.9 5.1-0.1l16.9 9.7c1.4 0.8 1.3 2.1-0.2 3zm26.1 15l-15.8 9.2c-1.5 0.9-3.8 1-5.1 0.2l-16.9-9.8c-1.3-0.8-1.3-2.1 0.2-2.9l15.8-9.2c1.4-0.9 3.7-1 5.1-0.2l16.9 9.8c1.3 0.7 1.2 2.1-0.2 2.9zm26 15.1l-15.7 9.2c-1.5 0.8-3.8 0.9-5.1 0.1l-16.9-9.7c-1.4-0.8-1.3-2.1 0.2-3l15.7-9.2c1.5-0.9 3.8-0.9 5.2-0.1l16.9 9.7c1.3 0.8 1.2 2.1-0.3 3zm26.1 15l-15.7 9.2c-1.5 0.9-3.8 1-5.2 0.2l-16.8-9.8c-1.4-0.7-1.3-2.1 0.2-2.9l15.7-9.2c1.5-0.9 3.8-1 5.1-0.2l16.9 9.8c1.4 0.7 1.3 2.1-0.2 2.9zm26.1 15.1l-15.8 9.2c-1.4 0.9-3.7 0.9-5.1 0.1l-16.9-9.7c-1.3-0.8-1.2-2.1 0.2-3l15.8-9.2c1.5-0.9 3.8-0.9 5.1-0.1l16.9 9.7c1.4 0.8 1.3 2.1-0.2 3zm26.1 15l-15.8 9.2c-1.5 0.9-3.8 1-5.1 0.2l-16.9-9.8c-1.4-0.7-1.3-2.1 0.2-2.9l15.8-9.2c1.4-0.9 3.7-1 5.1-0.2l16.9 9.8c1.3 0.7 1.2 2.1-0.2 2.9zm26 15.1l-15.7 9.2c-1.5 0.9-3.8 0.9-5.1 0.1l-16.9-9.7c-1.4-0.8-1.3-2.1 0.2-3l15.7-9.2c1.5-0.8 3.8-0.9 5.2-0.1l16.8 9.7c1.4 0.8 1.3 2.1-0.2 3zm26.1 15l-15.8 9.3c-1.4 0.8-3.7 0.9-5.1 0.1l-16.9-9.8c-1.3-0.7-1.2-2.1 0.3-2.9l15.7-9.2c1.5-0.9 3.8-1 5.1-0.2l16.9 9.8c1.4 0.8 1.3 2.1-0.2 2.9zm26.1 15.1l-15.8 9.2c-1.5 0.9-3.7 0.9-5.1 0.1l-16.9-9.7c-1.3-0.8-1.2-2.1 0.2-3l15.8-9.2c1.5-0.8 3.7-0.9 5.1-0.1l16.9 9.7c1.3 0.8 1.2 2.1-0.2 3zm-297.7-144.1l-15.7 9.2c-1.5 0.9-3.8 0.9-5.2 0.2l-16.8-9.8c-1.4-0.8-1.3-2.1 0.2-3l15.7-9.2c1.5-0.8 3.8-0.9 5.1-0.1l16.9 9.7c1.4 0.8 1.3 2.1-0.2 3zm-25.9-15l-15.8 9.2c-1.5 0.9-3.7 1-5.1 0.2l-16.9-9.8c-1.3-0.8-1.2-2.1 0.2-2.9l15.8-9.2c1.5-0.9 3.7-1 5.1-0.2l16.9 9.8c1.3 0.7 1.2 2.1-0.2 2.9zm-26-14.9l-15.7 9.2c-1.5 0.8-3.8 0.9-5.1 0.1l-16.9-9.7c-1.4-0.8-1.3-2.2 0.2-3l15.7-9.2c1.5-0.9 3.8-1 5.2-0.2l16.8 9.8c1.4 0.8 1.3 2.1-0.2 3zm-25.9-15l-15.8 9.2c-1.4 0.8-3.7 0.9-5.1 0.1l-16.9-9.7c-1.3-0.8-1.2-2.1 0.2-3l15.8-9.2c1.5-0.9 3.8-0.9 5.1-0.1l16.9 9.7c1.4 0.8 1.3 2.1-0.2 3zm-25.1 14.7l-5.2 3c-1.5 0.9-3.8 0.9-5.2 0.1l-16.8-9.7c-1.4-0.8-1.3-2.1 0.2-3l5.2-3c1.5-0.9 3.7-1 5.1-0.2l16.9 9.8c1.3 0.8 1.2 2.1-0.2 3zm33.8 19.5l-5.2 3c-1.5 0.9-3.8 1-5.1 0.2l-16.9-9.8c-1.3-0.7-1.2-2.1 0.2-2.9l5.2-3.1c1.5-0.8 3.8-0.9 5.2-0.1l16.8 9.7c1.4 0.8 1.3 2.1-0.2 3zm25.9 14.9l-5.2 3.1c-1.5 0.8-3.8 0.9-5.2 0.1l-16.9-9.8c-1.3-0.7-1.2-2.1 0.3-2.9l5.2-3.1c1.4-0.8 3.7-0.9 5.1-0.1l16.9 9.7c1.3 0.8 1.2 2.2-0.2 3zm25.8 14.9l-5.2 3.1c-1.5 0.8-3.8 0.9-5.1 0.1l-16.9-9.7c-1.4-0.8-1.3-2.2 0.2-3l5.2-3.1c1.5-0.8 3.8-0.9 5.1-0.1l16.9 9.8c1.4 0.7 1.3 2.1-0.2 2.9zm25.8 14.9l-5.2 3.1c-1.5 0.8-3.7 0.9-5.1 0.1l-16.9-9.7c-1.3-0.8-1.2-2.1 0.2-3l5.2-3c1.5-0.9 3.8-1 5.2-0.2l16.8 9.8c1.4 0.8 1.3 2.1-0.2 2.9zm144.3 83.3l-5.3 3.1c-1.4 0.8-3.7 0.9-5.1 0.1l-16.9-9.7c-1.3-0.8-1.2-2.2 0.3-3l5.2-3.1c1.4-0.8 3.7-0.9 5.1-0.1l16.9 9.7c1.3 0.8 1.2 2.2-0.2 3zm25.8 14.9l-5.2 3.1c-1.5 0.8-3.8 0.9-5.1 0.1l-16.9-9.7c-1.4-0.8-1.3-2.1 0.2-3l5.2-3.1c1.5-0.8 3.8-0.9 5.1-0.1l16.9 9.8c1.4 0.7 1.3 2.1-0.2 2.9zm25.8 14.9l-5.2 3.1c-1.5 0.8-3.8 0.9-5.1 0.1l-16.9-9.7c-1.3-0.8-1.2-2.1 0.2-3l5.2-3c1.5-0.9 3.8-1 5.2-0.2l16.8 9.8c1.4 0.8 1.3 2.1-0.2 2.9zm25.9 15l-5.2 3c-1.5 0.9-3.8 0.9-5.2 0.1l-16.9-9.7c-1.3-0.8-1.2-2.1 0.3-3l5.2-3c1.4-0.9 3.7-0.9 5.1-0.2l16.9 9.8c1.3 0.8 1.2 2.1-0.2 3zm-204.1-147l-15.8 9.2c-1.4 0.8-3.7 0.9-5.1 0.1l-16.9-9.7c-1.3-0.8-1.2-2.2 0.2-3l15.8-9.2c1.5-0.9 3.8-0.9 5.1-0.2l16.9 9.8c1.4 0.8 1.3 2.1-0.2 3zm26.1 15l-15.8 9.2c-1.5 0.9-3.8 0.9-5.1 0.2l-16.9-9.8c-1.4-0.8-1.3-2.1 0.2-3l15.8-9.2c1.4-0.8 3.7-0.9 5.1-0.1l16.9 9.7c1.3 0.8 1.2 2.2-0.2 3zm26 15.1l-15.7 9.2c-1.5 0.8-3.8 0.9-5.1 0.1l-16.9-9.7c-1.4-0.8-1.3-2.2 0.2-3l15.7-9.2c1.5-0.9 3.8-0.9 5.2-0.2l16.8 9.8c1.4 0.8 1.3 2.1-0.2 3zm26.1 15l-15.7 9.2c-1.5 0.9-3.8 0.9-5.2 0.2l-16.9-9.8c-1.3-0.8-1.2-2.1 0.3-3l15.7-9.2c1.5-0.8 3.8-0.9 5.1-0.1l16.9 9.7c1.4 0.8 1.3 2.2-0.2 3zm26.1 15.1l-15.8 9.2c-1.4 0.8-3.7 0.9-5.1 0.1l-16.9-9.7c-1.3-0.8-1.2-2.1 0.2-3l15.8-9.2c1.5-0.9 3.8-0.9 5.1-0.2l16.9 9.8c1.3 0.8 1.2 2.1-0.2 3zm26 15l-15.7 9.2c-1.5 0.9-3.8 1-5.1 0.2l-16.9-9.8c-1.4-0.8-1.3-2.1 0.2-3l15.8-9.2c1.4-0.8 3.7-0.9 5.1-0.1l16.9 9.7c1.3 0.8 1.2 2.2-0.3 3zm26.1 15.1l-15.7 9.2c-1.5 0.8-3.8 0.9-5.2 0.1l-16.8-9.7c-1.4-0.8-1.3-2.1 0.2-3l15.7-9.2c1.5-0.9 3.8-0.9 5.2-0.1l16.8 9.7c1.4 0.8 1.3 2.1-0.2 3zm26.1 15l-15.8 9.2c-1.4 0.9-3.7 1-5.1 0.2l-16.9-9.8c-1.3-0.8-1.2-2.1 0.2-2.9l15.8-9.3c1.5-0.8 3.8-0.9 5.1-0.1l16.9 9.8c1.4 0.7 1.3 2.1-0.2 2.9zm26.1 15.1l-15.8 9.2c-1.5 0.8-3.8 0.9-5.1 0.1l-16.9-9.7c-1.3-0.8-1.3-2.1 0.2-3l15.8-9.2c1.4-0.9 3.7-0.9 5.1-0.1l16.9 9.7c1.3 0.8 1.2 2.1-0.2 3zm-209.8-204.4l-15.8 9.2c-1.5 0.8-3.8 0.9-5.1 0.1l-49.7-28.7c-1.4-0.8-1.3-2.1 0.2-3l15.7-9.2c1.5-0.8 3.8-0.9 5.2-0.1l49.7 28.7c1.3 0.8 1.2 2.1-0.2 3zm320.3 184.9l-15.8 9.2c-1.5 0.9-3.8 0.9-5.1 0.1l-49.7-28.7c-1.4-0.7-1.3-2.1 0.2-2.9l15.7-9.2c1.5-0.9 3.8-1 5.2-0.2l49.7 28.7c1.3 0.8 1.2 2.1-0.2 3zm-48.4-59.4l-18.8 11c-1.4 0.8-3.7 0.9-5.1 0.1l-16.9-9.8c-1.3-0.7-1.2-2.1 0.2-2.9l18.8-11c1.5-0.9 3.8-0.9 5.1-0.1l16.9 9.7c1.4 0.8 1.3 2.1-0.2 3zm-189.3-109.3l-18.8 10.9c-1.5 0.9-3.8 1-5.1 0.2l-27-15.6c-1.4-0.8-1.3-2.1 0.2-3l18.8-10.9c1.4-0.9 3.7-1 5.1-0.2l27 15.6c1.3 0.8 1.2 2.1-0.2 3zm164.2 94.8l-18.8 10.9c-1.5 0.9-3.7 1-5.1 0.2l-27-15.6c-1.4-0.8-1.3-2.1 0.2-3l18.8-10.9c1.4-0.9 3.7-1 5.1-0.2l27 15.6c1.4 0.8 1.3 2.1-0.2 3zm-126.6-73.1l-18.8 11c-1.5 0.8-3.7 0.9-5.1 0.1l-27-15.6c-1.4-0.8-1.3-2.1 0.2-3l18.8-10.9c1.4-0.9 3.7-1 5.1-0.2l27 15.6c1.4 0.8 1.3 2.1-0.2 3zm-26.6-18.5l117.4 67.8c1.4 0.9 1.5 2.2 0.1 3l-19.1 11.2c-1.4 0.8-3.7 0.7-5.1-0.1l-117.4-67.8zm226.7 142.4l7.7-4.5c1.2-0.7 3.1-0.8 4.2-0.1l18.8 10.8c1.1 0.7 1 1.8-0.2 2.5l-7.7 4.5c-1.2 0.7-3 0.7-4.2 0.1l-18.8-10.9c-1.1-0.6-1-1.7 0.2-2.4zm-26.3-15.2l7.7-4.5c1.2-0.7 3.1-0.7 4.2-0.1l18.8 10.9c1.1 0.6 1 1.7-0.2 2.4l-7.6 4.5c-1.3 0.7-3.1 0.7-4.2 0.1l-18.9-10.9c-1.1-0.6-1-1.7 0.2-2.4zm-26-15.1l7.6-4.4c1.2-0.7 3.1-0.8 4.2-0.2l18.8 10.9c1.1 0.6 1.1 1.7-0.1 2.4l-7.7 4.5c-1.2 0.7-3.1 0.8-4.2 0.1l-18.8-10.8c-1.1-0.7-1.1-1.7 0.2-2.5zm12.5 23l7.6-4.5c1.3-0.7 3.1-0.7 4.2-0.1l18.8 10.9c1.2 0.6 1.1 1.7-0.1 2.4l-7.7 4.5c-1.2 0.7-3.1 0.8-4.2 0.1l-18.8-10.8c-1.1-0.7-1-1.8 0.2-2.5z"/>
							</g>
						</g>
					</g>
					<path id="&lt;Path&gt;" class="s11" d="m296.6 635.4l-16.7-9.6c-1.4-0.8-1.2-2.1 0.4-3l19.7-11.4c1.6-0.9 3.9-1 5.2-0.3l16.8 9.7c1.3 0.8 1.1 2.1-0.4 3l-19.8 11.4c-1.5 0.9-3.8 1-5.2 0.2zm25.8 14.9l-16.7-9.6c-1.3-0.8-1.2-2.1 0.4-3l19.7-11.4c1.6-0.9 3.9-1 5.3-0.2l16.7 9.6c1.3 0.8 1.2 2.1-0.4 3l-19.7 11.4c-1.6 0.9-3.9 1-5.3 0.2zm25.9 15l-16.8-9.7c-1.3-0.8-1.1-2.1 0.4-3l19.7-11.4c1.6-0.9 3.9-1 5.3-0.2l16.7 9.6c1.3 0.8 1.2 2.1-0.4 3l-19.7 11.4c-1.6 0.9-3.9 1-5.2 0.3zm35.7-12.4l-16.8-9.6c-1.3-0.8-1.1-2.1 0.4-3l16.6-9.6c1.5-0.9 3.9-1 5.2-0.2l16.7 9.6c1.4 0.8 1.2 2.2-0.3 3.1l-16.6 9.5c-1.5 0.9-3.9 1-5.2 0.2zm25.8 14.9l-16.7-9.6c-1.4-0.8-1.2-2.1 0.3-3l16.6-9.6c1.6-0.9 3.9-1 5.2-0.2l16.8 9.6c1.3 0.8 1.1 2.2-0.4 3.1l-16.6 9.5c-1.5 0.9-3.9 1-5.2 0.2zm25.8 15l-16.7-9.7c-1.4-0.8-1.2-2.1 0.4-3l16.5-9.6c1.6-0.9 3.9-1 5.3-0.2l16.7 9.6c1.3 0.8 1.2 2.2-0.4 3.1l-16.6 9.5c-1.5 0.9-3.9 1-5.2 0.3zm25.8 14.9l-16.7-9.7c-1.3-0.8-1.2-2.1 0.4-3l16.5-9.6c1.6-0.9 3.9-1 5.3-0.2l16.7 9.7c1.3 0.7 1.2 2.1-0.4 3l-16.5 9.5c-1.6 0.9-3.9 1-5.3 0.3zm25.8 14.9l-16.7-9.7c-1.3-0.8-1.1-2.1 0.4-3l16.6-9.6c1.5-0.9 3.9-1 5.2-0.2l16.7 9.7c1.4 0.7 1.2 2.1-0.3 3l-16.6 9.6c-1.6 0.8-3.9 0.9-5.3 0.2zm25.9 14.9l-16.8-9.7c-1.3-0.8-1.1-2.1 0.4-3l16.6-9.6c1.5-0.9 3.9-1 5.2-0.2l16.7 9.7c1.4 0.7 1.2 2.1-0.3 3l-16.6 9.6c-1.5 0.9-3.9 1-5.2 0.2zm25.8 14.9l-16.7-9.7c-1.4-0.7-1.2-2.1 0.3-3l16.6-9.6c1.6-0.9 3.9-0.9 5.2-0.2l16.8 9.7c1.3 0.8 1.1 2.1-0.4 3l-16.6 9.6c-1.5 0.9-3.9 1-5.2 0.2zm25.8 14.9l-16.7-9.7c-1.4-0.7-1.2-2.1 0.4-3l16.5-9.5c1.6-0.9 3.9-1 5.3-0.3l16.7 9.7c1.3 0.8 1.2 2.1-0.4 3l-16.6 9.6c-1.5 0.9-3.8 1-5.2 0.2zm25.8 14.9l-16.7-9.7c-1.3-0.7-1.2-2.1 0.4-3l16.6-9.5c1.5-0.9 3.8-1 5.2-0.3l16.7 9.7c1.4 0.8 1.2 2.1-0.4 3l-16.5 9.6c-1.6 0.9-3.9 1-5.3 0.2zm25.9 14.9l-16.8-9.6c-1.3-0.8-1.1-2.2 0.4-3.1l16.6-9.5c1.5-0.9 3.9-1 5.2-0.3l16.7 9.7c1.4 0.8 1.2 2.1-0.3 3l-16.6 9.6c-1.6 0.9-3.9 1-5.2 0.2zm-194.4-141.2l-16.7-9.7c-1.4-0.7-1.2-2.1 0.4-3l16.5-9.6c1.6-0.9 3.9-1 5.3-0.2l16.7 9.7c1.3 0.8 1.2 2.1-0.4 3l-16.6 9.6c-1.5 0.9-3.8 1-5.2 0.2zm-26.2-15.1l-16.7-9.7c-1.4-0.8-1.2-2.1 0.4-3l16.5-9.6c1.6-0.9 3.9-1 5.3-0.2l16.7 9.6c1.3 0.8 1.2 2.2-0.4 3.1l-16.6 9.5c-1.5 0.9-3.9 1-5.2 0.3zm-26.2-15.2l-36.1-20.8c-1.3-0.8-1.1-2.1 0.4-3l16.6-9.6c1.5-0.9 3.9-1 5.2-0.2l36 20.8c1.4 0.8 1.2 2.1-0.3 3l-16.6 9.6c-1.6 0.9-3.9 1-5.2 0.2zm18.3-18.4l-29.2-16.9c-1.4-0.8-1.2-2.1 0.4-3l16.5-9.6c1.6-0.9 3.9-1 5.3-0.2l29.2 16.9c1.3 0.7 1.2 2.1-0.4 3l-16.6 9.5c-1.5 0.9-3.9 1-5.2 0.3zm59.9 63.6l-16.7-9.7c-1.3-0.7-1.2-2.1 0.4-3l16.6-9.6c1.5-0.8 3.8-0.9 5.2-0.2l16.7 9.7c1.4 0.8 1.2 2.1-0.4 3l-16.5 9.6c-1.6 0.9-3.9 1-5.3 0.2zm25.9 14.9l-16.8-9.7c-1.3-0.7-1.1-2.1 0.4-3l16.6-9.5c1.5-0.9 3.9-1 5.2-0.3l16.7 9.7c1.4 0.8 1.2 2.1-0.3 3l-16.6 9.6c-1.6 0.9-3.9 1-5.2 0.2zm25.8 14.9l-16.7-9.6c-1.4-0.8-1.2-2.2 0.3-3.1l16.6-9.5c1.5-0.9 3.9-1 5.2-0.3l16.8 9.7c1.3 0.8 1.1 2.1-0.4 3l-16.6 9.6c-1.5 0.9-3.9 1-5.2 0.2zm25.8 14.9l-16.7-9.6c-1.4-0.8-1.2-2.2 0.3-3.1l16.6-9.5c1.6-0.9 3.9-1 5.3-0.2l16.7 9.6c1.3 0.8 1.1 2.1-0.4 3l-16.6 9.6c-1.5 0.9-3.9 1-5.2 0.2zm25.8 14.9l-16.7-9.6c-1.3-0.8-1.2-2.2 0.4-3.1l16.5-9.5c1.6-0.9 3.9-1 5.3-0.2l16.7 9.6c1.3 0.8 1.2 2.1-0.4 3l-16.5 9.6c-1.6 0.9-3.9 1-5.3 0.2zm25.8 14.9l-16.7-9.6c-1.3-0.8-1.2-2.2 0.4-3.1l16.6-9.5c1.5-0.9 3.9-1 5.2-0.2l16.7 9.6c1.4 0.8 1.2 2.1-0.4 3l-16.5 9.6c-1.6 0.9-3.9 1-5.3 0.2zm25.9 14.9l-16.8-9.6c-1.3-0.8-1.1-2.1 0.4-3l16.6-9.6c1.5-0.9 3.9-1 5.2-0.2l16.7 9.6c1.4 0.8 1.2 2.2-0.3 3.1l-16.6 9.5c-1.6 0.9-3.9 1-5.2 0.2zm25.8 14.9l-16.7-9.6c-1.4-0.8-1.2-2.1 0.3-3l16.6-9.6c1.5-0.9 3.9-1 5.2-0.2l16.8 9.6c1.3 0.8 1.1 2.2-0.4 3.1l-16.6 9.5c-1.5 0.9-3.9 1-5.2 0.2zm25.8 14.9l-16.7-9.6c-1.4-0.8-1.2-2.1 0.4-3l16.5-9.6c1.6-0.9 3.9-1 5.3-0.2l16.7 9.6c1.3 0.8 1.2 2.2-0.4 3.1l-16.6 9.5c-1.5 0.9-3.9 1-5.2 0.2zm45.9 26.6l-36.5-21.1c-1.3-0.8-1.2-2.1 0.4-3l16.6-9.6c1.5-0.9 3.9-1 5.2-0.2l36.5 21c1.3 0.8 1.2 2.2-0.4 3.1l-16.6 9.5c-1.5 0.9-3.9 1-5.2 0.3zm50.3-29.1l-30.8-17.7c-1.4-0.8-1.2-2.2 0.4-3.1l16.5-9.5c1.6-0.9 3.9-1 5.3-0.3l30.7 17.8c1.4 0.8 1.2 2.2-0.3 3l-16.6 9.6c-1.5 0.9-3.9 1-5.2 0.2zm-257.6-119.6l-16.7-9.7c-1.3-0.8-1.1-2.1 0.4-3l16.6-9.6c1.5-0.9 3.9-1 5.2-0.2l16.7 9.7c1.4 0.7 1.2 2.1-0.3 3l-16.6 9.6c-1.6 0.8-3.9 0.9-5.3 0.2zm-26.4-15.3l-16.7-9.7c-1.4-0.7-1.2-2.1 0.3-3l16.6-9.5c1.6-0.9 3.9-1 5.2-0.3l16.8 9.7c1.3 0.8 1.1 2.1-0.4 3l-16.6 9.6c-1.5 0.9-3.9 1-5.2 0.2zm-26.5-15.3l-16.7-9.6c-1.3-0.8-1.2-2.2 0.4-3.1l16.5-9.5c1.6-0.9 3.9-1 5.3-0.2l16.7 9.6c1.3 0.8 1.2 2.1-0.4 3l-16.5 9.6c-1.6 0.9-3.9 1-5.3 0.2zm-26.4-15.3l-16.8-9.6c-1.3-0.8-1.1-2.1 0.4-3l16.6-9.6c1.5-0.9 3.9-1 5.2-0.2l16.7 9.6c1.4 0.8 1.2 2.2-0.3 3.1l-16.6 9.5c-1.6 0.9-3.9 1-5.2 0.2zm105.2 60.8l-16.8-9.7c-1.3-0.7-1.1-2.1 0.4-3l16.6-9.6c1.5-0.9 3.9-1 5.2-0.2l16.7 9.7c1.4 0.7 1.2 2.1-0.3 3l-16.6 9.6c-1.5 0.9-3.9 1-5.2 0.2zm25.8 14.9l-16.7-9.7c-1.4-0.7-1.2-2.1 0.3-3l16.6-9.6c1.6-0.9 3.9-0.9 5.2-0.2l16.8 9.7c1.3 0.8 1.1 2.1-0.4 3l-16.6 9.6c-1.5 0.9-3.9 1-5.2 0.2zm25.8 14.9l-16.7-9.7c-1.4-0.7-1.2-2.1 0.4-3l16.5-9.5c1.6-0.9 3.9-1 5.3-0.3l16.7 9.7c1.3 0.8 1.2 2.1-0.4 3l-16.6 9.6c-1.5 0.9-3.8 1-5.2 0.2zm25.8 14.9l-16.7-9.7c-1.3-0.7-1.2-2.1 0.4-3l16.6-9.5c1.5-0.9 3.8-1 5.2-0.3l16.7 9.7c1.4 0.8 1.2 2.1-0.4 3l-16.5 9.6c-1.6 0.9-3.9 1-5.3 0.2zm25.9 14.9l-16.8-9.6c-1.3-0.8-1.1-2.2 0.4-3.1l16.6-9.5c1.5-0.9 3.9-1 5.2-0.2l16.7 9.6c1.4 0.8 1.2 2.1-0.3 3l-16.6 9.6c-1.6 0.9-3.9 1-5.2 0.2zm25.8 14.9l-16.7-9.6c-1.4-0.8-1.2-2.2 0.3-3.1l16.6-9.5c1.5-0.9 3.9-1 5.2-0.2l16.8 9.6c1.3 0.8 1.1 2.1-0.4 3l-16.6 9.6c-1.5 0.9-3.9 1-5.2 0.2zm25.8 14.9l-16.7-9.6c-1.4-0.8-1.2-2.2 0.3-3.1l16.6-9.5c1.6-0.9 3.9-1 5.3-0.2l16.7 9.6c1.3 0.8 1.1 2.1-0.4 3l-16.6 9.6c-1.5 0.9-3.9 1-5.2 0.2zm25.8 14.9l-16.7-9.6c-1.3-0.8-1.2-2.1 0.4-3l16.5-9.6c1.6-0.9 3.9-1 5.3-0.2l16.7 9.6c1.3 0.8 1.2 2.2-0.4 3.1l-16.5 9.5c-1.6 0.9-3.9 1-5.3 0.2zm25.8 14.9l-16.7-9.6c-1.3-0.8-1.2-2.1 0.4-3l16.6-9.6c1.5-0.9 3.9-1 5.2-0.2l16.7 9.6c1.4 0.8 1.2 2.2-0.4 3.1l-16.5 9.5c-1.6 0.9-3.9 1-5.3 0.2zm-245.9-171l-16.8-9.7c-1.3-0.7-1.1-2.1 0.4-3l16.6-9.5c1.5-0.9 3.9-1 5.2-0.3l16.7 9.7c1.4 0.8 1.2 2.1-0.3 3l-16.6 9.6c-1.6 0.9-3.9 1-5.2 0.2zm-25.7-14.8l-16.8-9.7c-1.3-0.8-1.1-2.1 0.4-3l16.6-9.6c1.5-0.9 3.9-1 5.2-0.2l16.7 9.7c1.4 0.7 1.2 2.1-0.3 3l-16.6 9.5c-1.6 0.9-3.9 1-5.2 0.3zm-25.7-14.9l-16.8-9.6c-1.3-0.8-1.1-2.2 0.4-3l16.6-9.6c1.5-0.9 3.9-1 5.2-0.2l16.7 9.6c1.4 0.8 1.2 2.2-0.3 3l-16.6 9.6c-1.5 0.9-3.9 1-5.2 0.2zm-25.7-14.8l-16.7-9.7c-1.4-0.7-1.2-2.1 0.3-3l16.6-9.5c1.5-0.9 3.9-1 5.2-0.3l16.8 9.7c1.3 0.8 1.1 2.1-0.4 3l-16.6 9.6c-1.5 0.9-3.9 1-5.2 0.2zm26.4-15.3l-16.7-9.6c-1.4-0.8-1.2-2.1 0.3-3l5.5-3.2c1.6-0.9 3.9-1 5.3-0.2l16.7 9.6c1.3 0.8 1.2 2.2-0.4 3.1l-5.5 3.1c-1.5 0.9-3.9 1-5.2 0.2zm33.5 19.4l-16.7-9.7c-1.3-0.7-1.2-2.1 0.4-3l5.5-3.1c1.5-0.9 3.8-1 5.2-0.3l16.7 9.7c1.4 0.8 1.2 2.1-0.4 3l-5.4 3.2c-1.6 0.9-3.9 1-5.3 0.2zm25.6 14.8l-16.7-9.7c-1.4-0.8-1.2-2.1 0.4-3l5.4-3.2c1.6-0.9 3.9-1 5.3-0.2l16.7 9.7c1.3 0.7 1.2 2.1-0.4 3l-5.5 3.2c-1.5 0.9-3.9 0.9-5.2 0.2zm25.6 14.7l-16.7-9.6c-1.4-0.8-1.2-2.1 0.3-3l5.5-3.2c1.6-0.9 3.9-1 5.3-0.2l16.7 9.6c1.3 0.8 1.2 2.2-0.4 3.1l-5.5 3.1c-1.5 0.9-3.9 1-5.2 0.2zm25.6 14.8l-16.7-9.6c-1.4-0.8-1.2-2.2 0.3-3.1l5.5-3.1c1.6-0.9 3.9-1 5.2-0.2l16.8 9.6c1.3 0.8 1.1 2.1-0.4 3l-5.5 3.2c-1.5 0.9-3.9 1-5.2 0.2zm142.8 82.5l-16.7-9.7c-1.3-0.7-1.2-2.1 0.4-3l5.4-3.2c1.6-0.8 3.9-0.9 5.3-0.2l16.7 9.7c1.3 0.8 1.2 2.1-0.4 3l-5.4 3.2c-1.6 0.9-3.9 1-5.3 0.2zm25.6 14.8l-16.7-9.7c-1.4-0.8-1.2-2.1 0.4-3l5.4-3.2c1.6-0.9 3.9-1 5.3-0.2l16.7 9.7c1.3 0.7 1.2 2.1-0.4 3l-5.5 3.1c-1.5 0.9-3.9 1-5.2 0.3zm25.6 14.7l-16.7-9.6c-1.4-0.8-1.2-2.2 0.3-3l5.5-3.2c1.6-0.9 3.9-1 5.3-0.2l16.7 9.6c1.3 0.8 1.2 2.2-0.4 3l-5.5 3.2c-1.5 0.9-3.9 1-5.2 0.2zm25.6 14.8l-16.7-9.7c-1.4-0.7-1.2-2.1 0.3-3l5.5-3.1c1.6-0.9 3.9-1 5.2-0.3l16.8 9.7c1.3 0.8 1.1 2.1-0.4 3l-5.5 3.2c-1.5 0.9-3.9 1-5.2 0.2zm-253.4-115.8l-16.7-9.6c-1.4-0.8-1.2-2.2 0.3-3.1l16.6-9.5c1.5-0.9 3.9-1 5.2-0.3l16.8 9.7c1.3 0.8 1.1 2.1-0.4 3l-16.6 9.6c-1.5 0.9-3.9 1-5.2 0.2zm25.8 14.9l-16.7-9.6c-1.4-0.8-1.2-2.2 0.3-3.1l16.6-9.5c1.6-0.9 3.9-1 5.3-0.2l16.7 9.6c1.3 0.8 1.1 2.1-0.4 3l-16.6 9.6c-1.5 0.9-3.9 1-5.2 0.2zm25.8 14.9l-16.7-9.6c-1.3-0.8-1.2-2.2 0.4-3.1l16.5-9.5c1.6-0.9 3.9-1 5.3-0.2l16.7 9.6c1.3 0.8 1.2 2.1-0.4 3l-16.5 9.6c-1.6 0.9-3.9 1-5.3 0.2zm25.8 14.9l-16.7-9.6c-1.3-0.8-1.2-2.2 0.4-3l16.6-9.6c1.5-0.9 3.9-1 5.2-0.2l16.7 9.6c1.4 0.8 1.2 2.2-0.4 3l-16.5 9.6c-1.6 0.9-3.9 1-5.3 0.2zm25.9 14.9l-16.8-9.6c-1.3-0.8-1.1-2.1 0.4-3l16.6-9.6c1.5-0.9 3.9-1 5.2-0.2l16.7 9.6c1.4 0.8 1.2 2.2-0.3 3.1l-16.6 9.5c-1.6 0.9-3.9 1-5.2 0.2zm25.8 14.9l-16.7-9.6c-1.4-0.8-1.2-2.1 0.3-3l16.6-9.6c1.5-0.9 3.9-1 5.2-0.2l16.8 9.6c1.3 0.8 1.1 2.2-0.4 3.1l-16.6 9.5c-1.5 0.9-3.9 1-5.2 0.2zm25.8 15l-16.7-9.7c-1.4-0.8-1.2-2.1 0.4-3l16.5-9.6c1.6-0.9 3.9-1 5.3-0.2l16.7 9.6c1.3 0.8 1.2 2.2-0.4 3.1l-16.6 9.5c-1.5 0.9-3.9 1-5.2 0.3zm25.8 14.9l-16.7-9.7c-1.3-0.8-1.2-2.1 0.4-3l16.5-9.6c1.6-0.9 3.9-1 5.3-0.2l16.7 9.7c1.3 0.7 1.2 2.1-0.4 3l-16.5 9.5c-1.6 0.9-3.9 1-5.3 0.3zm25.8 14.9l-16.7-9.7c-1.3-0.8-1.2-2.1 0.4-3l16.6-9.6c1.5-0.9 3.9-1 5.2-0.2l16.7 9.7c1.4 0.7 1.2 2.1-0.4 3l-16.5 9.6c-1.6 0.8-3.9 0.9-5.3 0.2zm-354.1-117.5l-49.3-28.4c-1.3-0.8-1.2-2.1 0.4-3l16.6-9.6c1.5-0.9 3.8-1 5.2-0.2l49.2 28.4c1.4 0.8 1.2 2.2-0.3 3.1l-16.6 9.5c-1.6 0.9-3.9 1-5.2 0.2zm317.2 183.2l-49.3-28.4c-1.3-0.8-1.2-2.2 0.4-3.1l16.6-9.5c1.5-0.9 3.9-1 5.2-0.2l49.2 28.4c1.4 0.8 1.2 2.1-0.3 3l-16.6 9.6c-1.5 0.9-3.9 1-5.2 0.2zm-103.3-26.7l-16.7-9.7c-1.4-0.7-1.2-2.1 0.4-3l19.7-11.4c1.5-0.9 3.9-1 5.2-0.2l16.8 9.7c1.3 0.7 1.1 2.1-0.4 3l-19.8 11.4c-1.5 0.9-3.9 1-5.2 0.2zm-187.5-108.3l-26.7-15.4c-1.4-0.8-1.2-2.1 0.3-3l19.8-11.4c1.5-0.9 3.9-1 5.2-0.2l26.7 15.4c1.4 0.8 1.2 2.1-0.3 3l-19.8 11.4c-1.5 0.9-3.9 1-5.2 0.2zm162.6 93.9l-26.7-15.4c-1.4-0.8-1.2-2.1 0.4-3l19.7-11.4c1.5-0.9 3.9-1 5.2-0.2l26.8 15.4c1.3 0.8 1.1 2.1-0.4 3l-19.7 11.4c-1.6 0.9-3.9 1-5.3 0.2zm-125.4-72.3l-26.7-15.5c-1.3-0.8-1.2-2.1 0.4-3l19.7-11.4c1.6-0.9 3.9-1 5.3-0.2l26.7 15.4c1.3 0.8 1.2 2.1-0.4 3l-19.7 11.4c-1.6 0.9-3.9 1-5.3 0.3zm-1.2-30l116.3 67.1c1.4 0.8 1.4 2.2 0 3l-20.1 11.6c-1.5 0.9-3.8 0.9-5.3 0l-116.2-67.1zm223.6 143.8l18.6 10.7c1.1 0.7 1 1.8-0.3 2.5l-8 4.7c-1.3 0.7-3.2 0.8-4.3 0.1l-18.7-10.7c-1.1-0.7-0.9-1.8 0.4-2.5l8-4.7c1.3-0.7 3.2-0.8 4.3-0.1zm-26-15.1l18.6 10.8c1.1 0.6 1 1.7-0.3 2.5l-8.1 4.6c-1.2 0.8-3.2 0.8-4.3 0.2l-18.6-10.7c-1.1-0.7-1-1.8 0.3-2.5l8.1-4.7c1.3-0.7 3.2-0.8 4.3-0.2zm-25.8-14.9l18.6 10.8c1.1 0.6 1 1.7-0.3 2.5l-8.1 4.6c-1.3 0.8-3.2 0.8-4.3 0.2l-18.6-10.8c-1.1-0.6-1-1.7 0.3-2.4l8.1-4.7c1.2-0.7 3.2-0.8 4.3-0.2zm40 6.7l18.7 10.8c1.1 0.6 0.9 1.7-0.3 2.4l-8.1 4.7c-1.3 0.7-3.2 0.8-4.3 0.2l-18.6-10.8c-1.1-0.6-1-1.7 0.3-2.5l8.1-4.6c1.2-0.8 3.1-0.8 4.2-0.2z"/>
				</g>
				<g id="&lt;Group&gt;">
					<path id="&lt;Compound Path&gt;" fill-rule="evenodd" class="s12" d="m895.4 396.2c-1.3 0-2.6-0.4-3.9-1.1-3.9-2.3-6.4-7.4-5.4-11.5 0.4-2 1.6-3.4 3.2-4.2 1.9-0.8 4.1-0.5 6.2 0.7 4 2.3 6.4 7.4 5.5 11.5-0.5 2-1.6 3.4-3.3 4.2q-1.1 0.4-2.3 0.4zm-3.8-15.4q-0.8 0-1.6 0.3c-1.1 0.5-1.9 1.5-2.2 2.9-0.8 3.4 1.3 7.6 4.6 9.6 1.6 0.9 3.3 1.1 4.6 0.5 1.1-0.5 1.9-1.5 2.2-2.9 0.8-3.4-1.2-7.7-4.6-9.6-1-0.5-2-0.8-3-0.8z"/>
					<path id="&lt;Compound Path&gt;" fill-rule="evenodd" class="s12" d="m916.7 408.5c-1.3 0-2.6-0.4-3.9-1.1-3.9-2.3-6.4-7.4-5.4-11.5 0.4-2 1.6-3.5 3.2-4.2 1.8-0.8 4.1-0.5 6.2 0.7 4 2.3 6.4 7.4 5.5 11.5-0.5 2-1.6 3.4-3.3 4.2q-1.1 0.4-2.3 0.4zm-3.8-15.5q-0.8 0-1.6 0.4c-1.1 0.5-1.9 1.5-2.2 2.9-0.8 3.3 1.3 7.6 4.6 9.5 1.6 1 3.3 1.2 4.6 0.6 1.1-0.5 1.9-1.5 2.2-2.9 0.8-3.4-1.3-7.7-4.6-9.6-1-0.6-2-0.9-3-0.9z"/>
					<path id="&lt;Path&gt;" class="s12" d="m942.7 416c-0.9 3.7-4.5 5-8.2 2.9-3.6-2.1-5.8-6.8-5-10.5 0.9-3.7 4.5-5.1 8.2-3 3.6 2.1 5.9 6.9 5 10.6z"/>
				</g>
				<path id="&lt;Path&gt;" class="s12" d="m534.5 181.1l-11.4-6.6 0.9-5.3 11.4 6.6z"/>
				<path id="&lt;Path&gt;" class="s12" d="m551 190.6l-11.4-6.6 0.9-5.2 11.4 6.6z"/>
				<path id="&lt;Path&gt;" class="s12" d="m518.1 171.6l-25-14.4 0.9-5.3 25 14.4z"/>
			</g>
			<g id="&lt;Group&gt;">
				<g id="&lt;Group&gt;">
					<path id="&lt;Path&gt;" class="s12" d="m521.2 271l-19-11.1 0.7-4.4 19.1 11z"/>
					<path id="&lt;Path&gt;" class="s12" d="m537.5 280.3l-9.5-5.5 0.7-4.4 9.5 5.5z"/>
					<path id="&lt;Path&gt;" class="s12" d="m525.1 284.5l-8.1-4.7 0.8-4.4 8.1 4.7z"/>
					<path id="&lt;Path&gt;" class="s12" d="m538.7 292.4l-9.5-5.5 0.7-4.4 9.6 5.5z"/>
					<path id="&lt;Path&gt;" class="s12" d="m552.7 311.8l-37.4-21.6 0.7-4.4 37.5 21.6z"/>
					<path id="&lt;Path&gt;" class="s12" d="m520.3 398.3l-37.5-21.7 0.8-4.4 37.4 21.7z"/>
					<path id="&lt;Path&gt;" class="s12" d="m534.7 406.6l-9.6-5.5 0.8-4.4 9.5 5.5z"/>
					<path id="&lt;Path&gt;" class="s12" d="m521.7 305.2l-8.1-4.7 0.7-4.4 8.1 4.7z"/>
					<path id="&lt;Path&gt;" class="s12" d="m535.3 313l-9.6-5.5 0.8-4.4 9.5 5.5z"/>
					<path id="&lt;Path&gt;" class="s12" d="m532.4 322.7l-20.6-11.9 0.8-4.4 20.5 11.9z"/>
					<path id="&lt;Path&gt;" class="s12" d="m546.2 330.7l-9.5-5.5 0.7-4.4 9.5 5.5z"/>
					<path id="&lt;Path&gt;" class="s12" d="m560 338.7l-9.5-5.5 0.7-4.4 9.6 5.5z"/>
					<path id="&lt;Path&gt;" class="s12" d="m582.4 351.6l-18-10.4 0.7-4.4 18 10.4z"/>
					<path id="&lt;Path&gt;" class="s12" d="m568.1 366l-9.5-5.5 0.7-4.4 9.6 5.5z"/>
					<path id="&lt;Path&gt;" class="s12" d="m590.5 378.9l-18.1-10.4 0.8-4.4 18 10.4z"/>
					<path id="&lt;Path&gt;" class="s12" d="m517.9 337l-9.5-5.5 0.7-4.4 9.5 5.5z"/>
					<path id="&lt;Path&gt;" class="s12" d="m531.7 345l-9.5-5.5 0.7-4.4 9.6 5.5z"/>
					<path id="&lt;Path&gt;" class="s12" d="m554.1 357.9l-18-10.4 0.7-4.4 18 10.4z"/>
					<path id="&lt;Path&gt;" class="s12" d="m583.4 363.5l-9.5-5.5 0.7-4.4 9.5 5.5z"/>
					<path id="&lt;Path&gt;" class="s12" d="m597.2 371.5l-9.5-5.5 0.7-4.4 9.6 5.5z"/>
					<path id="&lt;Path&gt;" class="s12" d="m619.6 384.4l-18-10.4 0.7-4.4 18 10.4z"/>
					<path id="&lt;Path&gt;" class="s12" d="m549.6 415.2l-9.6-5.5 0.8-4.4 9.5 5.5z"/>
					<path id="&lt;Path&gt;" class="s12" d="m571.9 428.1l-18-10.4 0.7-4.4 18.1 10.4z"/>
					<path id="&lt;Path&gt;" class="s12" d="m514.4 357.6l-9.5-5.5 0.7-4.4 9.6 5.5z"/>
					<path id="&lt;Path&gt;" class="s12" d="m536.8 370.6l-18.1-10.5 0.8-4.4 18 10.4z"/>
					<path id="&lt;Path&gt;" class="s12" d="m560 432.5l-9.6-5.5 0.8-4.4 9.5 5.5z"/>
					<path id="&lt;Path&gt;" class="s12" d="m582.3 445.4l-18-10.4 0.7-4.4 18 10.4z"/>
					<path id="&lt;Path&gt;" class="s12" d="m581.2 328.2l-9.5-5.5 0.7-4.4 9.6 5.5z"/>
					<path id="&lt;Path&gt;" class="s12" d="m566.8 319.9l-9.5-5.5 0.7-4.4 9.5 5.5z"/>
					<path id="&lt;Path&gt;" class="s12" d="m603.6 341.1l-18.1-10.4 0.8-4.4 18 10.4z"/>
					<path id="&lt;Path&gt;" class="s12" d="m518.7 326.1l-8.6-4.9 0.7-4.4 8.6 4.9z"/>
					<path id="&lt;Path&gt;" class="s12" d="m544.2 340.8l-20.9-12 0.7-4.4 20.9 12z"/>
					<path id="&lt;Path&gt;" class="s12" d="m569.7 355.6l-20.9-12.1 0.7-4.4 20.9 12.1z"/>
					<path id="&lt;Path&gt;" class="s12" d="m616.8 348.8l-8.6-5 0.8-4.4 8.5 5z"/>
					<path id="&lt;Path&gt;" class="s12" d="m642.3 363.5l-20.9-12.1 0.7-4.4 20.9 12.1z"/>
					<path id="&lt;Path&gt;" class="s12" d="m667.8 378.2l-20.9-12 0.7-4.4 20.9 12z"/>
					<path id="&lt;Path&gt;" class="s12" d="m527.7 354l-20.9-12.1 0.7-4.4 20.9 12.1z"/>
					<path id="&lt;Path&gt;" class="s12" d="m538.7 360.3l-6.4-3.7 0.7-4.4 6.5 3.7z"/>
					<path id="&lt;Path&gt;" class="s12" d="m549.8 366.7l-6.5-3.7 0.8-4.4 6.4 3.7z"/>
					<path id="&lt;Path&gt;" class="s12" d="m570.2 378.5l-15.8-9.1 0.7-4.4 15.8 9.1z"/>
					<path id="&lt;Path&gt;" class="s12" d="m593 357.7l-6.4-3.7 0.8-4.4 6.4 3.7z"/>
					<path id="&lt;Path&gt;" class="s12" d="m613.5 369.5l-15.8-9.1 0.7-4.4 15.8 9.1z"/>
					<path id="&lt;Path&gt;" class="s12" d="m617.7 372l-15.7-9.1 0.7-4.4 15.8 9.1z"/>
					<path id="&lt;Path&gt;" class="s12" d="m533.7 428.7l-20.6-11.9 0.7-4.4 20.6 11.9z"/>
					<path id="&lt;Path&gt;" class="s12" d="m547.5 436.6l-9.6-5.5 0.8-4.4 9.5 5.5z"/>
					<path id="&lt;Path&gt;" class="s12" d="m561.3 444.6l-9.5-5.5 0.7-4.4 9.6 5.5z"/>
					<path id="&lt;Path&gt;" class="s12" d="m583.7 457.5l-18.1-10.4 0.8-4.4 18 10.4z"/>
					<path id="&lt;Path&gt;" class="s12" d="m598 465.8l-9.6-5.5 0.8-4.4 9.5 5.5z"/>
					<path id="&lt;Path&gt;" class="s12" d="m620.3 478.7l-18-10.4 0.7-4.4 18.1 10.4z"/>
					<path id="&lt;Path&gt;" class="s12" d="m551.8 461.8l-9.6-5.5 0.8-4.5 9.5 5.5z"/>
					<path id="&lt;Path&gt;" class="s12" d="m574.1 474.7l-18-10.5 0.7-4.4 18 10.5z"/>
					<path id="&lt;Path&gt;" class="s12" d="m502 433l-9.5-5.5 0.7-4.4 9.5 5.5z"/>
					<path id="&lt;Path&gt;" class="s12" d="m515.8 441l-9.5-5.5 0.7-4.4 9.6 5.5z"/>
					<path id="&lt;Path&gt;" class="s12" d="m538.2 453.9l-18-10.4 0.7-4.4 18 10.4z"/>
					<path id="&lt;Path&gt;" class="s12" d="m520 432.1l-8.6-5 0.7-4.4 8.6 5z"/>
					<path id="&lt;Path&gt;" class="s12" d="m545.5 446.8l-20.9-12.1 0.7-4.4 20.9 12.1z"/>
					<path id="&lt;Path&gt;" class="s12" d="m571 461.5l-20.9-12.1 0.7-4.4 20.9 12.1z"/>
					<path id="&lt;Path&gt;" class="s12" d="m495 440.3l-20.9-12.1 0.7-4.4 20.9 12.1z"/>
					<path id="&lt;Path&gt;" class="s12" d="m506 446.6l-6.5-3.7 0.8-4.4 6.4 3.7z"/>
					<path id="&lt;Path&gt;" class="s12" d="m517 453l-6.4-3.7 0.7-4.4 6.4 3.7z"/>
					<path id="&lt;Path&gt;" class="s12" d="m537.4 464.8l-15.8-9.1 0.8-4.4 15.8 9.1z"/>
					<path id="&lt;Path&gt;" class="s12" d="m541.7 467.3l-15.8-9.1 0.8-4.4 15.7 9.1z"/>
					<path id="&lt;Path&gt;" class="s12" d="m504.4 400.4l-6.5-3.7 0.8-4.4 6.4 3.7z"/>
					<path id="&lt;Path&gt;" class="s12" d="m524.8 412.2l-15.8-9.1 0.7-4.4 15.8 9.1z"/>
					<path id="&lt;Path&gt;" class="s12" d="m545.6 424.2l-15.8-9.1 0.8-4.4 15.8 9.1z"/>
					<path id="&lt;Path&gt;" class="s12" d="m626 493.3l-9.6-5.5 0.8-4.4 9.5 5.5z"/>
					<path id="&lt;Path&gt;" class="s12" d="m648.3 506.2l-18-10.4 0.7-4.4 18.1 10.4z"/>
					<path id="&lt;Path&gt;" class="s12" d="m590.8 473l-15.8-9.2 0.7-4.4 15.8 9.2z"/>
					<path id="&lt;Path&gt;" class="s12" d="m611.6 485l-15.7-9.1 0.7-4.4 15.8 9.1z"/>
					<path id="&lt;Path&gt;" class="s12" d="m493.2 356.7l-6.4-3.7 0.7-4.4 6.4 3.7z"/>
					<path id="&lt;Path&gt;" class="s12" d="m513.6 368.5l-15.8-9.1 0.8-4.4 15.7 9.1z"/>
					<path id="&lt;Path&gt;" class="s12" d="m534.5 380.5l-15.8-9.1 0.7-4.4 15.8 9.1z"/>
				</g>
				<path id="&lt;Compound Path&gt;" fill-rule="evenodd" class="s12" d="m849.5 541.1c-1.5 0-3-0.4-4.4-1.3l-127.6-73.6c-5.3-3-8.6-10.7-7.6-17l8.2-48.7c0.6-3.3 2.3-5.9 4.7-7 2.2-1 4.8-0.8 7.4 0.6l127.6 73.7c5.2 3 8.6 10.6 7.5 17l-8.2 48.7c-0.5 3.3-2.2 5.8-4.6 7q-1.5 0.6-3 0.6zm-123.7-146.5q-1.2 0-2.2 0.5c-1.9 0.9-3.3 3-3.7 5.7l-8.2 48.7c-0.9 5.7 2 12.4 6.7 15.1l127.6 73.7c2 1.1 4 1.3 5.7 0.5 1.9-0.8 3.2-2.9 3.7-5.6l8.1-48.7c1-5.7-2-12.5-6.6-15.1l-127.6-73.7c-1.2-0.7-2.4-1.1-3.5-1.1z"/>
				<path id="&lt;Compound Path&gt;" fill-rule="evenodd" class="s12" d="m835.5 624.8c-1.5 0-3-0.4-4.5-1.3l-127.6-73.7c-5.2-3-8.5-10.6-7.5-16.9l8.2-48.7c0.5-3.3 2.2-5.9 4.7-7 2.2-1.1 4.8-0.9 7.3 0.6l127.7 73.7c5.2 3 8.5 10.6 7.5 16.9l-8.2 48.7c-0.6 3.3-2.3 5.9-4.7 7q-1.4 0.7-2.9 0.7zm-3.6-2.8c2 1.1 4.1 1.3 5.8 0.5 1.8-0.9 3.2-2.9 3.6-5.7l8.2-48.7c1-5.6-2-12.4-6.6-15.1l-127.7-73.7c-2-1.1-4-1.3-5.7-0.5-1.9 0.9-3.2 3-3.7 5.7l-8.1 48.7c-1 5.6 2 12.4 6.6 15.1z"/>
				<path id="&lt;Path&gt;" class="s13" d="m728.9 460.9c2.3 1.3 4.3 0.8 5-1.2l14.9-40.7c1.7-4.6 8.7-0.4 10.1 6.1l9.2 41c0.7 3 2.7 5.9 5.1 7.3l2.2 1.3c2.1 1.2 4 0.8 4.9-0.9l3-6.5c1.9-3.9 8.1-0.2 9.8 6 0.8 2.8 2.8 5.5 5 6.8l1.9 1.1c2.3 1.3 4.4 0.7 5.1-1.4l2.8-8.5c1.5-4.8 8.5-0.8 10.1 5.8l9.1 37.9c0.8 3 2.8 5.9 5.2 7.2z"/>
				<path id="&lt;Path&gt;" class="s12" d="m816.1 605.5c-2.5-1.4-4.8-4.5-5.5-7.7l-9.2-37.9c-1-4.1-4.3-7.2-6.5-7.2-0.9-0.1-1.6 0.4-1.9 1.4l-2.8 8.5c-0.4 1.2-1.1 2.1-2.2 2.5-1.2 0.5-2.7 0.3-4.1-0.6l-2-1.1c-2.4-1.4-4.5-4.3-5.3-7.4-1.1-3.8-4.2-6.7-6.3-6.8q-1.3-0.2-1.9 1.1l-3 6.4c-0.5 1-1.3 1.7-2.2 2-1.2 0.3-2.6 0.1-4-0.7l-2.2-1.3c-2.5-1.5-4.8-4.6-5.5-7.9l-9.2-40.9c-0.9-4-4.1-7.2-6.4-7.4-0.9 0-1.6 0.4-2 1.4l-14.8 40.7c-0.5 1.1-1.2 1.9-2.2 2.3-1.2 0.4-2.7 0.2-4.1-0.7l0.9-1.5c0.9 0.6 1.9 0.8 2.6 0.5q0.7-0.3 1.1-1.3l14.9-40.6c0.6-1.7 2-2.7 3.7-2.6 3 0.2 7 3.8 8.1 8.8l9.2 40.9c0.6 2.8 2.5 5.5 4.6 6.8l2.2 1.2c1 0.6 1.9 0.8 2.5 0.6q0.8-0.3 1.1-1.1l3.1-6.4c0.7-1.5 2-2.3 3.6-2.1 3.2 0.3 6.7 3.8 7.9 8.2 0.7 2.6 2.5 5.1 4.5 6.2l2 1.1c1 0.6 1.9 0.8 2.6 0.5q0.8-0.3 1.1-1.3l2.8-8.5c0.6-1.8 1.8-2.7 3.5-2.7q0.1 0 0.1 0c3 0.1 7 3.6 8.2 8.6l9.2 37.8c0.7 2.8 2.6 5.5 4.7 6.7z"/>
			</g>
			<path id="&lt;Compound Path&gt;" fill-rule="evenodd" class="s12" d="m764.9 353.2c-1.8 0-3.7-0.6-5.6-1.6l-99.7-57.6c-6.2-3.6-9.6-12.1-7.7-19.1 1-3.6 3.1-6.2 6-7.4 2.9-1.1 6.1-0.8 9.2 0.9l99.8 57.6c6.1 3.6 9.6 12.2 7.6 19.2-0.9 3.5-3.1 6.1-6 7.3q-1.7 0.7-3.6 0.7zm-103.4-84.6q-1.5 0-2.9 0.6c-2.4 1-4.2 3.2-5 6.1-1.7 6.3 1.4 14 6.9 17.1l99.7 57.6c2.6 1.5 5.2 1.8 7.6 0.8 2.4-1 4.2-3.1 5-6.1 1.7-6.3-1.3-13.9-6.8-17.1l-99.8-57.6c-1.6-0.9-3.2-1.4-4.7-1.4z"/>
		</g>
	</g>
</svg>