<svg xmlns="http://www.w3.org/2000/svg" xmlns:xlink="http://www.w3.org/1999/xlink" width="547.79" height="572.83" viewBox="0 0 547.79 572.83"><defs><linearGradient id="a" x1="-1275.5" y1="209.11" x2="-922.67" y2="209.11" gradientTransform="matrix(-1, 0, 0, 1, -727.71, 0)" gradientUnits="userSpaceOnUse"><stop offset="0.01" stop-color="#a5a7aa"/><stop offset="0.31" stop-color="#aaacaf"/><stop offset="0.68" stop-color="#b8babc"/><stop offset="1" stop-color="#cbccce"/></linearGradient><linearGradient id="b" x1="-1275.5" y1="299.6" x2="-1214.91" y2="299.6" gradientTransform="matrix(-1, 0, 0, 1, -727.71, 0)" gradientUnits="userSpaceOnUse"><stop offset="0" stop-color="#939598"/><stop offset="0.26" stop-color="#989a9d"/><stop offset="0.57" stop-color="#a6a8aa"/><stop offset="0.9" stop-color="#bebfc1"/><stop offset="1" stop-color="#c7c8ca"/></linearGradient><linearGradient id="c" x1="-1228.23" y1="398.32" x2="-729.92" y2="398.32" gradientTransform="matrix(-1, 0, 0, 1, -727.71, 0)" gradientUnits="userSpaceOnUse"><stop offset="0" stop-color="#1e1e1e"/><stop offset="0.19" stop-color="#232323"/><stop offset="0.41" stop-color="#313131"/><stop offset="0.65" stop-color="#494949"/><stop offset="0.9" stop-color="#6a6a6a"/><stop offset="1" stop-color="#7a7a7a"/></linearGradient><radialGradient id="d" cx="-979.04" cy="384.7" fx="-1077.2804737563406" fy="329.94365253040775" r="251.48" gradientTransform="matrix(-1, 0, 0, 1, -727.71, 0)" gradientUnits="userSpaceOnUse"><stop offset="0.05" stop-color="#fcfcfc"/><stop offset="0.34" stop-color="#f9f9f9"/><stop offset="0.56" stop-color="#efefef"/><stop offset="0.75" stop-color="#e0e0e0"/></radialGradient><clipPath id="e"><polygon points="539.38 184.74 232.52 7.65 193.96 236.88 500.63 413.85 539.38 184.74" fill="none"/></clipPath><linearGradient id="f" x1="-1419.84" y1="288.65" x2="-921.53" y2="288.65" gradientTransform="matrix(-1, 0, 0, 1, -727.71, 0)" gradientUnits="userSpaceOnUse"><stop offset="0" stop-color="#181b1f"/><stop offset="0.11" stop-color="#1c1f24"/><stop offset="0.25" stop-color="#262932"/><stop offset="0.39" stop-color="#383a4a"/><stop offset="0.54" stop-color="#50526b"/><stop offset="0.7" stop-color="#6f7296"/><stop offset="0.86" stop-color="#9597c9"/><stop offset="1" stop-color="#bcbeff"/></linearGradient><linearGradient id="g" x1="-1252.41" y1="275.03" x2="-753.83" y2="275.03" gradientTransform="matrix(-1, 0, 0, 1, -727.71, 0)" gradientUnits="userSpaceOnUse"><stop offset="0" stop-color="#d6d6d6"/><stop offset="0.36" stop-color="#dbdbdb"/><stop offset="0.77" stop-color="#e9e9e9"/><stop offset="1" stop-color="#f4f4f4"/></linearGradient></defs><path d="M312.45,572.83a14.05,14.05,0,0,1-6.85-1.73L3.28,396.55C1.19,395.35,0,393.68,0,392a4.37,4.37,0,0,1,2.47-3.74L182.88,284.07c3.21-1.85,8.59-1.65,12.26.47L497.46,459.08c2.08,1.2,3.27,2.87,3.27,4.59a4.36,4.36,0,0,1-2.47,3.73L317.86,571.56A11,11,0,0,1,312.45,572.83ZM4.36,394.68,306.68,569.23c2.95,1.71,7.58,1.92,10.1.46l180.4-104.16a2.36,2.36,0,0,0,1.4-1.86c0-.91-.83-1.93-2.2-2.72L194.06,286.4c-3-1.7-7.59-1.91-10.1-.46L3.55,390.1A2.39,2.39,0,0,0,2.16,392c0,.91.82,1.92,2.2,2.71Z" fill="#ff0a52"/><path d="M195,231.05,233.24,4.32,230.17,3,234.79.38v0a3.33,3.33,0,0,1,3.56.24L543.76,177c2.51,1.45,4.41,5.16,4,7.76L509.21,413.28a2.87,2.87,0,0,1-1.61,2.33h0l-4.52,2.61-.77-4.22.26.08L199,238.81C196.48,237.36,194.58,233.65,195,231.05Z" fill="url(#a)"/><path d="M542.06,183.19l5-2.22a7,7,0,0,1,.65,3.78L509.21,413.28a2.87,2.87,0,0,1-1.61,2.33h0l-4.52,2.61-.77-4.22.26.08-15.37-8.87Z" fill="url(#b)"/><path d="M194.2,241.56,499.62,417.9c2.36,1.36,4.38.57,4.8-1.87L542.94,187.5c.44-2.6-1.46-6.31-4-7.76L233.55,3.4c-2.36-1.36-4.38-.57-4.8,1.87L190.23,233.8C189.79,236.4,191.69,240.11,194.2,241.56Z" fill="#070707"/><g opacity="0.51"><polygon points="232.52 7.65 539.38 184.74 500.63 413.85 193.96 236.88 232.52 7.65" fill="#303030"/></g><path d="M2.21,349.76l16.67,8.7L186,262c2.8-1.62,7.68-1.42,10.91.45L485.18,428.85c2.76-1.55,15.34-7.59,15.34-7.59l-6.1,9.91,0,0a3.63,3.63,0,0,1-1.7,1.9l-176,101.62c-2.79,1.62-7.68,1.42-10.91-.45l-295-170.31a5.26,5.26,0,0,1-2.48-2.63l0,0Z" fill="url(#c)"/><path d="M4.79,352.5,307.11,527c3.3,1.91,8.31,2.12,11.18.47l180.4-104.16c2.87-1.66,2.51-4.55-.8-6.46L195.57,242.35c-3.31-1.91-8.32-2.12-11.18-.46L4,346C1.12,347.7,1.48,350.59,4.79,352.5Z" fill="url(#d)"/><path d="M4.79,351.14,307.11,525.69c3.3,1.91,8.31,2.12,11.18.46L498.69,422a3.63,3.63,0,0,0,1.82-2.11c.32,1.28-.25,2.56-1.82,3.47L318.29,527.51c-2.87,1.65-7.88,1.44-11.18-.47L4.79,352.5c-2.15-1.24-3-2.89-2.62-4.34A5.06,5.06,0,0,0,4.79,351.14Z" fill="#fff"/><g opacity="0.15"><g clip-path="url(#e)"><path d="M193.83,240.09l16.66,8.7L377.63,152.3c2.8-1.62,7.68-1.41,10.91.45L676.8,319.18c2.76-1.54,15.34-7.59,15.34-7.59L686,321.5h0a3.65,3.65,0,0,1-1.7,1.89L508.28,425c-2.8,1.61-7.68,1.41-10.91-.46l-295-170.3a5.33,5.33,0,0,1-2.47-2.64l0,0Z" fill="url(#f)"/><path d="M196.4,242.83,498.72,417.37c3.31,1.91,8.32,2.12,11.18.47L690.31,313.68c2.86-1.65,2.5-4.54-.81-6.46L387.19,132.68c-3.31-1.91-8.32-2.12-11.19-.46L195.6,236.37C192.73,238,193.09,240.92,196.4,242.83Z" fill="url(#g)"/><path d="M689.5,307.22,387.19,132.68a13.22,13.22,0,0,0-7.47-1.52,12.81,12.81,0,0,1,5.24,1.52L687.28,307.22c3.31,1.92,3.67,4.81.8,6.46L507.67,417.84a9,9,0,0,1-3.71,1.05,10.57,10.57,0,0,0,5.94-1.05L690.31,313.68C693.17,312,692.81,309.14,689.5,307.22Z" fill="#fff"/><path d="M354.76,212.78l-9.69-5.59a3.22,3.22,0,0,0-2.94.08l-10.77,6.29c-.85.49-.9,1.26-.13,1.71l9.69,5.59a3.22,3.22,0,0,0,2.94-.08l10.78-6.29C355.48,214,355.54,213.23,354.76,212.78Z" fill="#1c1c1c"/><path d="M369.72,221.42,360,215.83a3.22,3.22,0,0,0-2.94.08l-10.77,6.29c-.84.5-.9,1.26-.12,1.71l9.69,5.59a3.22,3.22,0,0,0,2.94-.08l10.77-6.29C370.45,222.64,370.5,221.87,369.72,221.42Z" fill="#1c1c1c"/><path d="M384.69,230.06,375,224.47a3.22,3.22,0,0,0-2.94.08l-10.77,6.29c-.85.5-.9,1.26-.13,1.71l9.7,5.59a3.22,3.22,0,0,0,2.94-.08l10.77-6.29C385.41,231.28,385.47,230.51,384.69,230.06Z" fill="#1c1c1c"/><path d="M373.3,241.56,363.6,236a3.22,3.22,0,0,0-2.94.08l-9,5.28c-.84.49-.9,1.26-.12,1.71l9.69,5.59a3.22,3.22,0,0,0,2.94-.08l9-5.28C374,242.78,374.07,242,373.3,241.56Z" fill="#1c1c1c"/><path d="M388.26,250.2l-9.69-5.59a3.22,3.22,0,0,0-2.94.08l-9,5.28c-.85.5-.9,1.26-.12,1.71l9.69,5.59a3.22,3.22,0,0,0,2.94-.08l9-5.28C389,251.42,389,250.65,388.26,250.2Z" fill="#1c1c1c"/><path d="M403.23,258.84l-9.69-5.59a3.24,3.24,0,0,0-3,.08l-9,5.28c-.84.5-.9,1.26-.12,1.71l9.69,5.59a3.22,3.22,0,0,0,2.94-.08l9-5.28C404,260.06,404,259.29,403.23,258.84Z" fill="#1c1c1c"/><path d="M418.19,267.48l-9.69-5.59a3.25,3.25,0,0,0-2.94.08l-9,5.28c-.85.5-.9,1.26-.12,1.71l9.69,5.59a3.22,3.22,0,0,0,2.94-.08l9-5.28C418.91,268.7,419,267.93,418.19,267.48Z" fill="#1c1c1c"/><path d="M433.16,276.12l-9.69-5.59a3.25,3.25,0,0,0-2.94.08l-9,5.28c-.84.5-.9,1.26-.12,1.71l9.69,5.59a3.22,3.22,0,0,0,2.94-.08l9-5.28C433.88,277.34,433.93,276.57,433.16,276.12Z" fill="#1c1c1c"/><path d="M448.12,284.76l-9.69-5.59a3.25,3.25,0,0,0-2.94.08l-9,5.28c-.85.5-.9,1.26-.12,1.71l9.69,5.6a3.25,3.25,0,0,0,2.94-.09l9-5.28C448.84,286,448.9,285.21,448.12,284.76Z" fill="#1c1c1c"/><path d="M463.09,293.4l-9.69-5.59a3.25,3.25,0,0,0-2.94.08l-9,5.28c-.84.5-.9,1.26-.12,1.71l9.69,5.6a3.25,3.25,0,0,0,2.94-.09l9-5.28C463.81,294.62,463.87,293.85,463.09,293.4Z" fill="#1c1c1c"/><path d="M478.05,302l-9.69-5.59a3.25,3.25,0,0,0-2.94.08l-9,5.28c-.85.5-.9,1.26-.12,1.71l9.69,5.6a3.25,3.25,0,0,0,2.94-.09l9-5.28C478.78,303.26,478.83,302.49,478.05,302Z" fill="#1c1c1c"/><path d="M493,310.68l-9.69-5.59a3.25,3.25,0,0,0-2.94.08l-9,5.28c-.85.5-.91,1.26-.13,1.71l9.69,5.6a3.22,3.22,0,0,0,2.94-.09l9-5.28C493.74,311.9,493.8,311.13,493,310.68Z" fill="#1c1c1c"/><path d="M508,319.32l-9.69-5.59a3.25,3.25,0,0,0-2.94.08l-9,5.28c-.85.5-.9,1.26-.12,1.71l9.69,5.6a3.22,3.22,0,0,0,2.94-.09l9-5.28C508.71,320.54,508.76,319.77,508,319.32Z" fill="#1c1c1c"/><path d="M367.06,253.9l-9.69-5.6a3.25,3.25,0,0,0-2.94.08l-9,5.28c-.85.5-.9,1.26-.12,1.71L355,261a3.25,3.25,0,0,0,2.94-.08l9-5.29C367.78,255.11,367.84,254.35,367.06,253.9Z" fill="#1c1c1c"/><path d="M351.87,245.13l-9.69-5.6a3.25,3.25,0,0,0-2.94.08l-9,5.29c-.85.49-.9,1.25-.12,1.7l9.69,5.6a3.25,3.25,0,0,0,2.94-.08l9-5.28C352.6,246.34,352.65,245.58,351.87,245.13Z" fill="#1c1c1c"/><path d="M336.66,236.34l-20.87-12.05a3.25,3.25,0,0,0-2.94.08l-9,5.29c-.85.49-.91,1.26-.13,1.71l20.87,12a3.25,3.25,0,0,0,2.94-.09l9.05-5.28C337.38,237.56,337.44,236.79,336.66,236.34Z" fill="#1c1c1c"/><path d="M319,242.09l-16.94-9.78a3.22,3.22,0,0,0-2.94.08l-9,5.28c-.85.5-.9,1.26-.12,1.71l16.93,9.78a3.25,3.25,0,0,0,2.94-.08l9-5.29C319.73,243.3,319.79,242.54,319,242.09Z" fill="#1c1c1c"/><path d="M382,262.54l-9.69-5.6a3.27,3.27,0,0,0-2.95.08l-9,5.28c-.84.5-.9,1.26-.12,1.71l9.69,5.6a3.25,3.25,0,0,0,2.94-.08l9-5.29C382.75,263.75,382.8,263,382,262.54Z" fill="#1c1c1c"/><path d="M397,271.18l-9.69-5.6a3.25,3.25,0,0,0-2.94.08l-9,5.29c-.85.49-.9,1.25-.12,1.7l9.69,5.6a3.25,3.25,0,0,0,2.94-.08l9-5.29C397.71,272.39,397.77,271.63,397,271.18Z" fill="#1c1c1c"/><path d="M412,279.82l-9.69-5.6a3.25,3.25,0,0,0-2.94.08l-9.05,5.29c-.84.49-.9,1.25-.12,1.7l9.69,5.6a3.25,3.25,0,0,0,2.94-.08l9-5.28C412.68,281,412.73,280.27,412,279.82Z" fill="#1c1c1c"/><path d="M426.92,288.46l-9.69-5.6a3.25,3.25,0,0,0-2.94.08l-9,5.29c-.85.49-.9,1.25-.12,1.7l9.69,5.6a3.25,3.25,0,0,0,2.94-.08l9-5.28C427.65,289.67,427.7,288.91,426.92,288.46Z" fill="#1c1c1c"/><path d="M441.89,297.1l-9.69-5.6a3.25,3.25,0,0,0-2.94.08l-9,5.29c-.85.49-.91,1.26-.13,1.7l9.69,5.6a3.25,3.25,0,0,0,2.94-.08l9-5.28C442.61,298.31,442.67,297.55,441.89,297.1Z" fill="#1c1c1c"/><path d="M456.85,305.74l-9.69-5.6a3.25,3.25,0,0,0-2.94.08l-9,5.29c-.85.49-.9,1.26-.12,1.7l9.69,5.6a3.25,3.25,0,0,0,2.94-.08l9-5.28C457.58,307,457.63,306.19,456.85,305.74Z" fill="#1c1c1c"/><path d="M471.82,314.38l-9.69-5.6a3.25,3.25,0,0,0-2.94.08l-9,5.29c-.85.49-.91,1.26-.13,1.7l9.69,5.6a3.25,3.25,0,0,0,2.94-.08l9.05-5.28C472.54,315.59,472.6,314.83,471.82,314.38Z" fill="#1c1c1c"/><path d="M486.78,323l-9.69-5.6a3.25,3.25,0,0,0-2.94.08l-9,5.29c-.84.49-.9,1.26-.12,1.71l9.69,5.59a3.25,3.25,0,0,0,2.94-.08l9-5.28C487.51,324.23,487.56,323.47,486.78,323Z" fill="#1c1c1c"/><path d="M501.75,331.66l-9.69-5.6a3.25,3.25,0,0,0-2.94.08l-9,5.29c-.85.49-.9,1.26-.13,1.71l9.69,5.59a3.25,3.25,0,0,0,2.94-.08l9.05-5.28C502.47,332.87,502.53,332.11,501.75,331.66Z" fill="#1c1c1c"/><path d="M528.35,347l-21.14-12.21a3.25,3.25,0,0,0-2.94.08l-9,5.28c-.85.5-.9,1.26-.12,1.71l21.14,12.21a3.25,3.25,0,0,0,2.94-.08l9-5.28C529.08,348.23,529.13,347.47,528.35,347Z" fill="#1c1c1c"/><path d="M500.92,363.05l-17.85-10.31a3.25,3.25,0,0,0-2.94.08l-9,5.29c-.84.49-.9,1.26-.12,1.7l17.85,10.31a3.25,3.25,0,0,0,2.94-.08l9-5.29C501.64,364.26,501.7,363.5,500.92,363.05Z" fill="#1c1c1c"/><path d="M380,277.27l-9.69-5.59a3.22,3.22,0,0,0-2.94.08l-9,5.28c-.85.49-.9,1.26-.13,1.71l9.69,5.59a3.22,3.22,0,0,0,2.94-.08l9.05-5.28C380.67,278.48,380.73,277.72,380,277.27Z" fill="#1c1c1c"/><path d="M364.61,268.42l-9.69-5.6a3.25,3.25,0,0,0-2.94.08l-9,5.28c-.85.5-.9,1.26-.12,1.71l9.69,5.6a3.25,3.25,0,0,0,2.94-.08l9-5.29C365.33,269.63,365.39,268.86,364.61,268.42Z" fill="#1c1c1c"/><path d="M349.27,259.56,339.58,254a3.22,3.22,0,0,0-2.94.08l-9,5.28c-.84.49-.9,1.26-.12,1.71l9.69,5.59a3.25,3.25,0,0,0,2.94-.08l9-5.28C350,260.77,350.05,260,349.27,259.56Z" fill="#1c1c1c"/><path d="M333.94,250.7l-9.69-5.59a3.27,3.27,0,0,0-2.95.08l-9,5.28c-.84.5-.9,1.26-.12,1.71l9.69,5.6a3.25,3.25,0,0,0,2.94-.08l9-5.29C334.66,251.92,334.71,251.15,333.94,250.7Z" fill="#1c1c1c"/><path d="M394.91,285.91l-9.69-5.59a3.22,3.22,0,0,0-2.94.08l-9,5.28c-.84.49-.9,1.26-.12,1.71l9.69,5.59a3.22,3.22,0,0,0,2.94-.08l9-5.28C395.64,287.12,395.69,286.36,394.91,285.91Z" fill="#1c1c1c"/><path d="M409.88,294.55,400.19,289a3.22,3.22,0,0,0-2.94.08l-9,5.28c-.85.49-.9,1.26-.13,1.71l9.69,5.59a3.24,3.24,0,0,0,3-.08l9-5.28C410.6,295.76,410.66,295,409.88,294.55Z" fill="#1c1c1c"/><path d="M424.84,303.19l-9.69-5.59a3.22,3.22,0,0,0-2.94.08l-9,5.28c-.84.49-.9,1.26-.12,1.71l9.69,5.59a3.22,3.22,0,0,0,2.94-.08l9-5.28C425.57,304.41,425.62,303.64,424.84,303.19Z" fill="#1c1c1c"/><path d="M439.81,311.83l-9.69-5.59a3.22,3.22,0,0,0-2.94.08l-9,5.28c-.85.49-.9,1.26-.13,1.71l9.7,5.59a3.22,3.22,0,0,0,2.94-.08l9-5.28C440.53,313.05,440.59,312.28,439.81,311.83Z" fill="#1c1c1c"/><path d="M454.78,320.47l-9.7-5.59a3.22,3.22,0,0,0-2.94.08l-9,5.28c-.84.49-.9,1.26-.12,1.71l9.69,5.59a3.22,3.22,0,0,0,2.94-.08l9-5.28C455.5,321.69,455.55,320.92,454.78,320.47Z" fill="#1c1c1c"/><path d="M469.74,329.11l-9.69-5.59a3.22,3.22,0,0,0-2.94.08l-9,5.28c-.85.49-.9,1.26-.12,1.71l9.69,5.59a3.22,3.22,0,0,0,2.94-.08l9-5.28C470.46,330.33,470.52,329.56,469.74,329.11Z" fill="#1c1c1c"/><path d="M484.71,337.75,475,332.16a3.24,3.24,0,0,0-2.95.08l-9,5.28c-.84.49-.9,1.26-.12,1.71l9.69,5.59a3.22,3.22,0,0,0,2.94-.08l9-5.28C485.43,339,485.48,338.2,484.71,337.75Z" fill="#1c1c1c"/><path d="M499.67,346.39,490,340.8a3.22,3.22,0,0,0-2.94.08l-9,5.28c-.85.5-.9,1.26-.12,1.71l9.69,5.59a3.22,3.22,0,0,0,2.94-.08l9-5.28C500.39,347.61,500.45,346.84,499.67,346.39Z" fill="#1c1c1c"/><path d="M514.64,355,505,349.44a3.25,3.25,0,0,0-2.94.08L493,354.8c-.84.5-.9,1.26-.12,1.71l9.69,5.59a3.22,3.22,0,0,0,2.94-.08l9-5.28C515.36,356.25,515.41,355.48,514.64,355Z" fill="#1c1c1c"/><path d="M343.78,272.32l-9.69-5.59a3.25,3.25,0,0,0-2.94.08l-9,5.28c-.84.5-.9,1.26-.12,1.71l9.69,5.6a3.22,3.22,0,0,0,2.94-.09l9-5.28C344.51,273.54,344.56,272.77,343.78,272.32Z" fill="#1c1c1c"/><path d="M328.89,263.73l-9.69-5.6a3.25,3.25,0,0,0-2.94.08l-9,5.29c-.85.49-.9,1.25-.12,1.7l9.69,5.6a3.25,3.25,0,0,0,2.94-.08l9-5.28C329.62,264.94,329.67,264.18,328.89,263.73Z" fill="#1c1c1c"/><path d="M314,255.13l-9.69-5.6a3.25,3.25,0,0,0-2.94.09l-9,5.28c-.85.49-.9,1.26-.12,1.71l9.69,5.59a3.25,3.25,0,0,0,2.94-.08l9-5.28C314.73,256.34,314.78,255.58,314,255.13Z" fill="#1c1c1c"/><path d="M299.11,246.53l-9.69-5.59a3.22,3.22,0,0,0-2.94.08l-9,5.28c-.85.5-.9,1.26-.12,1.71L287,253.6a3.22,3.22,0,0,0,2.94-.08l9-5.28C299.83,247.75,299.89,247,299.11,246.53Z" fill="#1c1c1c"/><path d="M284.69,255l-9.69-5.6a3.25,3.25,0,0,0-2.94.08l-3,1.75c-.84.49-.9,1.26-.12,1.71l9.69,5.59a3.25,3.25,0,0,0,2.94-.08l3-1.75C285.42,256.17,285.47,255.4,284.69,255Z" fill="#1c1c1c"/><path d="M304.13,266.18l-9.7-5.6a3.25,3.25,0,0,0-2.94.08l-3,1.75c-.85.49-.91,1.26-.13,1.71l9.69,5.59a3.25,3.25,0,0,0,2.94-.08l3-1.75C304.85,267.39,304.9,266.62,304.13,266.18Z" fill="#1c1c1c"/><path d="M319,274.74l-9.69-5.6a3.25,3.25,0,0,0-2.94.08l-3,1.75c-.84.49-.9,1.26-.12,1.71l9.69,5.59a3.22,3.22,0,0,0,2.94-.08l3-1.75C319.68,276,319.73,275.19,319,274.74Z" fill="#1c1c1c"/><path d="M333.78,283.3l-9.69-5.6a3.25,3.25,0,0,0-2.94.08l-3,1.75c-.84.49-.9,1.26-.12,1.71l9.69,5.59a3.22,3.22,0,0,0,2.94-.08l3-1.74C334.51,284.51,334.56,283.75,333.78,283.3Z" fill="#1c1c1c"/><path d="M348.61,291.86l-9.69-5.6a3.25,3.25,0,0,0-2.94.09l-3,1.74c-.84.5-.9,1.26-.12,1.71l9.69,5.6a3.25,3.25,0,0,0,2.94-.09l3-1.74C349.34,293.07,349.39,292.31,348.61,291.86Z" fill="#1c1c1c"/><path d="M431.4,339.66l-9.69-5.6a3.25,3.25,0,0,0-2.94.08l-3,1.75c-.85.49-.9,1.26-.12,1.71l9.69,5.59a3.22,3.22,0,0,0,2.94-.08l3-1.75C432.12,340.87,432.18,340.11,431.4,339.66Z" fill="#1c1c1c"/><path d="M446.23,348.22l-9.69-5.6a3.25,3.25,0,0,0-2.94.08l-3,1.75c-.85.49-.9,1.26-.12,1.71l9.69,5.59a3.22,3.22,0,0,0,2.94-.08l3-1.74C447,349.43,447,348.67,446.23,348.22Z" fill="#1c1c1c"/><path d="M461.06,356.78l-9.69-5.6a3.25,3.25,0,0,0-2.94.09l-3,1.74c-.85.5-.9,1.26-.13,1.71l9.69,5.6a3.27,3.27,0,0,0,2.95-.09l3-1.74C461.78,358,461.84,357.23,461.06,356.78Z" fill="#1c1c1c"/><path d="M475.89,365.34l-9.69-5.59a3.24,3.24,0,0,0-2.95.08l-3,1.74c-.85.5-.91,1.26-.13,1.71l9.69,5.6a3.25,3.25,0,0,0,2.94-.08l3-1.75C476.61,366.55,476.66,365.79,475.89,365.34Z" fill="#1c1c1c"/><path d="M358.75,281l-9.69-5.59a3.25,3.25,0,0,0-2.94.08l-9,5.28c-.85.5-.9,1.26-.13,1.71l9.69,5.6a3.24,3.24,0,0,0,2.95-.09l9-5.28C359.47,282.18,359.53,281.41,358.75,281Z" fill="#1c1c1c"/><path d="M373.71,289.6,364,284a3.25,3.25,0,0,0-2.94.08l-9,5.28c-.84.5-.9,1.26-.12,1.71l9.69,5.6a3.22,3.22,0,0,0,2.94-.09l9-5.28C374.44,290.82,374.49,290.05,373.71,289.6Z" fill="#1c1c1c"/><path d="M388.68,298.24,379,292.65a3.25,3.25,0,0,0-2.94.08L367,298c-.85.5-.9,1.26-.13,1.71l9.7,5.6a3.25,3.25,0,0,0,2.94-.08l9-5.29C389.4,299.46,389.46,298.69,388.68,298.24Z" fill="#1c1c1c"/><path d="M403.65,306.88l-9.7-5.59a3.25,3.25,0,0,0-2.94.08l-9,5.28c-.84.5-.9,1.26-.12,1.71l9.69,5.6a3.25,3.25,0,0,0,2.94-.08l9-5.29C404.37,308.1,404.42,307.33,403.65,306.88Z" fill="#1c1c1c"/><path d="M418.61,315.53l-9.69-5.6A3.25,3.25,0,0,0,406,310l-9,5.28c-.85.5-.9,1.26-.12,1.71l9.69,5.6a3.25,3.25,0,0,0,2.94-.08l9-5.29C419.33,316.74,419.39,316,418.61,315.53Z" fill="#1c1c1c"/><path d="M433.58,324.17l-9.69-5.6a3.27,3.27,0,0,0-2.95.08l-9,5.28c-.84.5-.9,1.26-.12,1.71l9.69,5.6a3.25,3.25,0,0,0,2.94-.08l9-5.29C434.3,325.38,434.35,324.61,433.58,324.17Z" fill="#1c1c1c"/><path d="M448.54,332.81l-9.69-5.6a3.25,3.25,0,0,0-2.94.08l-9,5.28c-.85.5-.9,1.26-.12,1.71l9.69,5.6a3.25,3.25,0,0,0,2.94-.08l9-5.29C449.26,334,449.32,333.25,448.54,332.81Z" fill="#1c1c1c"/><path d="M463.51,341.45l-9.69-5.6a3.25,3.25,0,0,0-2.94.08l-9.05,5.28c-.84.5-.9,1.26-.12,1.71l9.69,5.6a3.25,3.25,0,0,0,2.94-.08l9-5.29C464.23,342.66,464.28,341.9,463.51,341.45Z" fill="#1c1c1c"/><path d="M478.47,350.09l-9.69-5.6a3.25,3.25,0,0,0-2.94.08l-9,5.28c-.85.5-.9,1.26-.12,1.71l9.69,5.6a3.25,3.25,0,0,0,2.94-.08l9-5.29C479.19,351.3,479.25,350.54,478.47,350.09Z" fill="#1c1c1c"/><path d="M358,232.76,329.5,216.28a3.25,3.25,0,0,0-2.94.08l-9,5.28c-.84.5-.9,1.26-.12,1.71l28.54,16.48a3.25,3.25,0,0,0,2.94-.08l9-5.28C358.77,234,358.82,233.21,358,232.76Z" fill="#1c1c1c"/><path d="M541.9,338.9l-28.54-16.47a3.22,3.22,0,0,0-2.94.08l-9,5.28c-.85.49-.91,1.26-.13,1.71L529.79,346a3.22,3.22,0,0,0,2.94-.09l9-5.28C542.62,340.12,542.68,339.35,541.9,338.9Z" fill="#1c1c1c"/><path d="M514.14,304.8l-9.69-5.59a3.22,3.22,0,0,0-2.94.08l-10.77,6.29c-.85.49-.9,1.26-.12,1.71l9.69,5.59a3.22,3.22,0,0,0,2.94-.08L514,306.51C514.86,306,514.92,305.25,514.14,304.8Z" fill="#1c1c1c"/><path d="M405.46,242.06,390,233.11a3.22,3.22,0,0,0-2.94.08l-10.77,6.29c-.84.5-.9,1.26-.12,1.71l15.5,8.95a3.25,3.25,0,0,0,2.94-.08l10.77-6.3C406.18,243.27,406.24,242.5,405.46,242.06Z" fill="#1c1c1c"/><path d="M499.72,296.48l-15.5-9a3.25,3.25,0,0,0-2.94.08l-10.77,6.29c-.84.5-.9,1.26-.12,1.71l15.5,8.95a3.25,3.25,0,0,0,2.94-.08l10.77-6.3C500.44,297.69,500.5,296.93,499.72,296.48Z" fill="#1c1c1c"/><path d="M427.05,254.52l-15.49-9a3.24,3.24,0,0,0-2.95.09L397.84,252c-.84.49-.9,1.26-.12,1.71l15.5,8.94a3.22,3.22,0,0,0,2.94-.08l10.77-6.29C427.78,255.74,427.83,255,427.05,254.52Z" fill="#1c1c1c"/><path d="M397.83,253.72l67.38,38.9a3.24,3.24,0,0,0,2.94,0l11-6.42c.79-.46.75-1.22-.09-1.7l-67.38-38.91Z" fill="#1c1c1c"/><path d="M541.7,328.75,552.5,335a2.64,2.64,0,0,0,2.41-.07l4.4-2.57c.7-.4.74-1,.1-1.4l-10.79-6.23a2.66,2.66,0,0,0-2.41.06l-4.41,2.58C541.11,327.75,541.07,328.38,541.7,328.75Z" fill="#1c1c1c"/><path d="M526.61,320l10.8,6.23a2.64,2.64,0,0,0,2.41-.07l4.4-2.57c.7-.41.74-1,.1-1.4L533.53,316a2.66,2.66,0,0,0-2.41.06l-4.41,2.58C526,319,526,319.67,526.61,320Z" fill="#1c1c1c"/><path d="M511.65,311.4l10.79,6.23a2.63,2.63,0,0,0,2.41-.07l4.41-2.57c.69-.41.74-1,.1-1.4l-10.79-6.23a2.69,2.69,0,0,0-2.42.06l-4.4,2.58C511.06,310.4,511,311,511.65,311.4Z" fill="#1c1c1c"/><path d="M518.83,324.58l10.8,6.24a2.7,2.7,0,0,0,2.41-.07l4.4-2.58c.7-.4.74-1,.1-1.4l-10.79-6.23a2.63,2.63,0,0,0-2.41.07l-4.41,2.57C518.24,323.59,518.19,324.22,518.83,324.58Z" fill="#1c1c1c"/></g></g><path d="M143.85,333.17l-9.6-5.54c-.77-.45-.67-1.22.22-1.74l11.33-6.54a3.32,3.32,0,0,1,3-.12l9.6,5.54c.77.44.67,1.22-.22,1.73L146.86,333A3.35,3.35,0,0,1,143.85,333.17Z" fill="#0c0c0c"/><path d="M158.67,341.73l-9.6-5.55c-.77-.44-.67-1.22.22-1.73l11.33-6.54a3.33,3.33,0,0,1,3-.13l9.6,5.54c.77.45.68,1.23-.21,1.74l-11.33,6.54A3.38,3.38,0,0,1,158.67,341.73Z" fill="#0c0c0c"/><path d="M173.49,350.28l-9.6-5.54c-.77-.44-.67-1.22.22-1.73l11.33-6.54a3.33,3.33,0,0,1,3-.13l9.6,5.54c.77.45.68,1.22-.21,1.74l-11.33,6.54A3.34,3.34,0,0,1,173.49,350.28Z" fill="#0c0c0c"/><path d="M194,343.22l-9.6-5.55c-.77-.44-.67-1.22.22-1.73l9.51-5.49a3.36,3.36,0,0,1,3-.13l9.6,5.55c.77.44.68,1.22-.21,1.73L197,343.09A3.38,3.38,0,0,1,194,343.22Z" fill="#0c0c0c"/><path d="M208.81,351.77l-9.6-5.54c-.77-.44-.67-1.22.22-1.73l9.51-5.49a3.35,3.35,0,0,1,3-.13l9.59,5.54c.77.45.68,1.22-.21,1.74l-9.51,5.49A3.34,3.34,0,0,1,208.81,351.77Z" fill="#0c0c0c"/><path d="M223.63,360.33,214,354.79c-.78-.45-.68-1.22.21-1.74l9.51-5.49a3.34,3.34,0,0,1,3-.12l9.59,5.54c.77.44.68,1.22-.21,1.73l-9.51,5.5A3.38,3.38,0,0,1,223.63,360.33Z" fill="#0c0c0c"/><path d="M238.45,368.89l-9.59-5.54c-.77-.45-.68-1.23.21-1.74l9.51-5.49a3.38,3.38,0,0,1,3-.13l9.59,5.55c.78.44.68,1.22-.21,1.73l-9.51,5.49A3.35,3.35,0,0,1,238.45,368.89Z" fill="#0c0c0c"/><path d="M253.27,377.44l-9.59-5.54c-.77-.44-.68-1.22.21-1.73l9.51-5.49a3.35,3.35,0,0,1,3-.13l9.6,5.54c.77.45.67,1.23-.22,1.74l-9.51,5.49A3.34,3.34,0,0,1,253.27,377.44Z" fill="#0c0c0c"/><path d="M268.1,386l-9.6-5.54c-.77-.45-.68-1.22.21-1.74l9.51-5.49a3.34,3.34,0,0,1,3-.12l9.6,5.54c.77.44.67,1.22-.22,1.74l-9.51,5.49A3.32,3.32,0,0,1,268.1,386Z" fill="#0c0c0c"/><path d="M282.92,394.56l-9.6-5.54c-.77-.45-.67-1.23.22-1.74l9.5-5.49a3.34,3.34,0,0,1,3-.12l9.6,5.54c.77.44.67,1.22-.22,1.73l-9.51,5.49A3.33,3.33,0,0,1,282.92,394.56Z" fill="#0c0c0c"/><path d="M297.74,403.11l-9.6-5.54c-.77-.44-.67-1.22.22-1.73l9.51-5.49a3.33,3.33,0,0,1,3-.13l9.6,5.54c.77.45.67,1.23-.22,1.74L300.74,403A3.32,3.32,0,0,1,297.74,403.11Z" fill="#0c0c0c"/><path d="M312.56,411.67l-9.6-5.54c-.77-.44-.67-1.22.22-1.74l9.51-5.49a3.32,3.32,0,0,1,3-.12l9.6,5.54c.77.45.67,1.22-.22,1.74l-9.5,5.49A3.34,3.34,0,0,1,312.56,411.67Z" fill="#0c0c0c"/><path d="M327.38,420.23l-9.6-5.54c-.77-.45-.67-1.22.22-1.74l9.51-5.49a3.32,3.32,0,0,1,3-.12l9.6,5.54c.77.44.68,1.22-.21,1.73l-9.51,5.49A3.35,3.35,0,0,1,327.38,420.23Z" fill="#0c0c0c"/><path d="M215.83,339.16l-9.6-5.54c-.77-.44-.67-1.22.22-1.73L216,326.4a3.33,3.33,0,0,1,3-.13l9.6,5.54c.77.45.67,1.23-.22,1.74L218.83,339A3.32,3.32,0,0,1,215.83,339.16Z" fill="#0c0c0c"/><path d="M200.79,330.48l-9.6-5.54c-.77-.45-.68-1.22.21-1.74l9.51-5.49a3.34,3.34,0,0,1,3-.12l9.6,5.54c.77.44.67,1.22-.22,1.74l-9.51,5.49A3.35,3.35,0,0,1,200.79,330.48Z" fill="#0c0c0c"/><path d="M185.72,321.78l-20.67-11.93c-.77-.45-.68-1.22.21-1.74l9.51-5.49a3.34,3.34,0,0,1,3-.12l20.67,11.93c.77.45.67,1.22-.22,1.74l-9.5,5.49A3.34,3.34,0,0,1,185.72,321.78Z" fill="#0c0c0c"/><path d="M196.25,311.2l-16.77-9.68c-.77-.45-.68-1.22.21-1.74l9.51-5.49a3.34,3.34,0,0,1,3-.12L209,303.85c.77.45.68,1.22-.21,1.74l-9.51,5.49A3.34,3.34,0,0,1,196.25,311.2Z" fill="#0c0c0c"/><path d="M230.65,347.72l-9.6-5.54c-.77-.44-.67-1.22.22-1.74l9.51-5.49a3.32,3.32,0,0,1,3-.12l9.6,5.54c.77.45.67,1.22-.22,1.74l-9.5,5.49A3.34,3.34,0,0,1,230.65,347.72Z" fill="#0c0c0c"/><path d="M245.47,356.28l-9.6-5.54c-.77-.45-.67-1.22.22-1.74l9.51-5.49a3.32,3.32,0,0,1,3-.12l9.6,5.54c.77.44.68,1.22-.21,1.73l-9.51,5.49A3.35,3.35,0,0,1,245.47,356.28Z" fill="#0c0c0c"/><path d="M260.29,364.84l-9.6-5.55c-.77-.44-.67-1.22.22-1.73l9.51-5.49a3.35,3.35,0,0,1,3-.13l9.59,5.54c.77.45.68,1.23-.21,1.74l-9.51,5.49A3.38,3.38,0,0,1,260.29,364.84Z" fill="#0c0c0c"/><path d="M275.11,373.39l-9.59-5.54c-.78-.44-.68-1.22.21-1.73l9.51-5.49a3.35,3.35,0,0,1,3-.13l9.59,5.54c.77.45.68,1.22-.21,1.74l-9.51,5.49A3.34,3.34,0,0,1,275.11,373.39Z" fill="#0c0c0c"/><path d="M289.93,382l-9.59-5.54c-.77-.45-.68-1.22.21-1.74l9.51-5.49a3.34,3.34,0,0,1,3-.12l9.6,5.54c.77.44.67,1.22-.22,1.73l-9.51,5.49A3.35,3.35,0,0,1,289.93,382Z" fill="#0c0c0c"/><path d="M304.75,390.51,295.16,385c-.77-.45-.68-1.23.21-1.74l9.51-5.49a3.38,3.38,0,0,1,3-.13l9.6,5.55c.77.44.67,1.22-.22,1.73l-9.51,5.49A3.35,3.35,0,0,1,304.75,390.51Z" fill="#0c0c0c"/><path d="M319.58,399.06l-9.6-5.54c-.77-.44-.68-1.22.21-1.73l9.51-5.49a3.35,3.35,0,0,1,3-.13l9.6,5.54c.77.45.67,1.22-.22,1.74l-9.51,5.49A3.32,3.32,0,0,1,319.58,399.06Z" fill="#0c0c0c"/><path d="M334.4,407.62l-9.6-5.54c-.77-.45-.67-1.22.22-1.74l9.5-5.49a3.34,3.34,0,0,1,3-.12l9.6,5.54c.77.44.67,1.22-.22,1.74l-9.51,5.49A3.35,3.35,0,0,1,334.4,407.62Z" fill="#0c0c0c"/><path d="M349.22,416.18l-9.6-5.54c-.77-.45-.67-1.23.22-1.74l9.51-5.49a3.32,3.32,0,0,1,3-.12l9.6,5.54c.77.44.67,1.22-.22,1.73l-9.51,5.49A3.33,3.33,0,0,1,349.22,416.18Z" fill="#0c0c0c"/><path d="M375.57,431.39,354.63,419.3c-.77-.45-.68-1.22.21-1.74l9.51-5.49a3.34,3.34,0,0,1,3-.12L388.3,424c.77.44.67,1.22-.22,1.73l-9.51,5.49A3.33,3.33,0,0,1,375.57,431.39Z" fill="#0c0c0c"/><path d="M404.42,414.73l-17.67-10.2c-.77-.45-.68-1.23.21-1.74l9.51-5.49a3.34,3.34,0,0,1,3-.12l17.67,10.2c.77.44.68,1.22-.21,1.74l-9.51,5.49A3.34,3.34,0,0,1,404.42,414.73Z" fill="#0c0c0c"/><path d="M256.6,346.05,247,340.51c-.77-.45-.68-1.23.21-1.74l9.51-5.49a3.34,3.34,0,0,1,3-.12l9.6,5.54c.77.44.67,1.22-.22,1.73l-9.51,5.49A3.35,3.35,0,0,1,256.6,346.05Z" fill="#0c0c0c"/><path d="M241.41,337.28l-9.59-5.54c-.77-.45-.68-1.23.21-1.74l9.51-5.49a3.34,3.34,0,0,1,3-.12l9.6,5.54c.77.44.67,1.22-.22,1.73l-9.51,5.49A3.35,3.35,0,0,1,241.41,337.28Z" fill="#0c0c0c"/><path d="M226.22,328.51,216.63,323c-.77-.45-.68-1.23.21-1.74l9.51-5.49a3.34,3.34,0,0,1,3-.12l9.6,5.54c.77.44.67,1.22-.22,1.73l-9.51,5.49A3.35,3.35,0,0,1,226.22,328.51Z" fill="#0c0c0c"/><path d="M211,319.74l-9.59-5.54c-.77-.45-.68-1.23.21-1.74l9.51-5.49a3.34,3.34,0,0,1,3-.12l9.6,5.54c.77.44.67,1.22-.22,1.73L214,319.61A3.35,3.35,0,0,1,211,319.74Z" fill="#0c0c0c"/><path d="M271.43,354.6l-9.6-5.54c-.77-.44-.68-1.22.21-1.73l9.51-5.49a3.35,3.35,0,0,1,3-.13l9.6,5.54c.77.45.67,1.23-.22,1.74l-9.51,5.49A3.32,3.32,0,0,1,271.43,354.6Z" fill="#0c0c0c"/><path d="M286.25,363.16l-9.6-5.54c-.77-.44-.67-1.22.21-1.74l9.51-5.49a3.34,3.34,0,0,1,3-.12l9.6,5.54c.77.45.67,1.22-.22,1.74L289.25,363A3.32,3.32,0,0,1,286.25,363.16Z" fill="#0c0c0c"/><path d="M301.07,371.72l-9.6-5.54c-.77-.45-.67-1.22.22-1.74L301.2,359a3.32,3.32,0,0,1,3-.12l9.6,5.54c.77.44.67,1.22-.22,1.73l-9.51,5.49A3.33,3.33,0,0,1,301.07,371.72Z" fill="#0c0c0c"/><path d="M315.89,380.28l-9.6-5.55c-.77-.44-.67-1.22.22-1.73l9.51-5.49a3.33,3.33,0,0,1,3-.13l9.6,5.54c.77.45.67,1.23-.22,1.74l-9.51,5.49A3.36,3.36,0,0,1,315.89,380.28Z" fill="#0c0c0c"/><path d="M330.71,388.83l-9.6-5.54c-.77-.44-.67-1.22.22-1.73l9.51-5.49a3.33,3.33,0,0,1,3-.13l9.6,5.54c.77.45.68,1.22-.21,1.74l-9.51,5.49A3.34,3.34,0,0,1,330.71,388.83Z" fill="#0c0c0c"/><path d="M345.53,397.39l-9.6-5.54c-.77-.45-.67-1.22.22-1.74l9.51-5.49a3.32,3.32,0,0,1,3-.12l9.6,5.54c.77.44.68,1.22-.21,1.73l-9.51,5.49A3.35,3.35,0,0,1,345.53,397.39Z" fill="#0c0c0c"/><path d="M360.35,406l-9.6-5.55c-.77-.44-.67-1.22.22-1.73l9.51-5.49a3.38,3.38,0,0,1,3-.13l9.59,5.55c.77.44.68,1.22-.21,1.73l-9.51,5.49A3.38,3.38,0,0,1,360.35,406Z" fill="#0c0c0c"/><path d="M375.17,414.5,365.58,409c-.78-.44-.68-1.22.21-1.73l9.51-5.49a3.35,3.35,0,0,1,3-.13l9.59,5.54c.77.45.68,1.22-.21,1.74l-9.51,5.49A3.34,3.34,0,0,1,375.17,414.5Z" fill="#0c0c0c"/><path d="M390,423.06l-9.59-5.54c-.77-.45-.68-1.22.21-1.74l9.51-5.49a3.34,3.34,0,0,1,3-.12l9.6,5.54c.77.44.67,1.22-.22,1.73l-9.51,5.5A3.38,3.38,0,0,1,390,423.06Z" fill="#0c0c0c"/><path d="M248.8,324.88l-9.6-5.54c-.77-.44-.67-1.22.22-1.73l9.51-5.49a3.33,3.33,0,0,1,3-.13l9.6,5.54c.77.45.68,1.22-.21,1.74l-9.51,5.49A3.34,3.34,0,0,1,248.8,324.88Z" fill="#0c0c0c"/><path d="M234.05,316.37l-9.59-5.54c-.78-.45-.68-1.23.21-1.74l9.51-5.49a3.34,3.34,0,0,1,3-.12l9.59,5.54c.77.44.68,1.22-.21,1.73l-9.51,5.49A3.35,3.35,0,0,1,234.05,316.37Z" fill="#0c0c0c"/><path d="M219.31,307.85l-9.6-5.54c-.77-.44-.68-1.22.21-1.73l9.51-5.49a3.35,3.35,0,0,1,3-.13l9.6,5.54c.77.45.67,1.22-.22,1.74l-9.51,5.49A3.32,3.32,0,0,1,219.31,307.85Z" fill="#0c0c0c"/><path d="M204.56,299.34,195,293.8c-.77-.45-.67-1.22.22-1.74l9.51-5.49a3.32,3.32,0,0,1,3-.12l9.6,5.54c.77.44.67,1.22-.22,1.73l-9.51,5.49A3.33,3.33,0,0,1,204.56,299.34Z" fill="#0c0c0c"/><path d="M219.72,290.58,210.13,285c-.78-.44-.68-1.22.21-1.73l3.14-1.82a3.34,3.34,0,0,1,3-.12l9.6,5.54c.77.44.67,1.22-.22,1.73l-3.14,1.82A3.34,3.34,0,0,1,219.72,290.58Z" fill="#0c0c0c"/><path d="M239,301.69l-9.6-5.54c-.77-.44-.67-1.22.22-1.73l3.14-1.82a3.34,3.34,0,0,1,3-.12l9.59,5.54c.77.44.68,1.22-.21,1.74L242,301.57A3.32,3.32,0,0,1,239,301.69Z" fill="#0c0c0c"/><path d="M253.65,310.17l-9.59-5.54c-.77-.44-.68-1.22.21-1.73l3.15-1.82a3.32,3.32,0,0,1,3-.12l9.6,5.54c.77.44.67,1.22-.22,1.73l-3.14,1.82A3.34,3.34,0,0,1,253.65,310.17Z" fill="#0c0c0c"/><path d="M268.34,318.65l-9.6-5.54c-.77-.44-.67-1.22.22-1.73l3.14-1.82a3.34,3.34,0,0,1,3-.12l9.6,5.54c.77.44.67,1.22-.22,1.73l-3.14,1.82A3.34,3.34,0,0,1,268.34,318.65Z" fill="#0c0c0c"/><path d="M283,327.13l-9.6-5.54c-.77-.44-.68-1.22.21-1.74l3.15-1.81a3.32,3.32,0,0,1,3-.12l9.6,5.54c.77.44.68,1.22-.21,1.73L286,327A3.32,3.32,0,0,1,283,327.13Z" fill="#0c0c0c"/><path d="M365,374.47l-9.59-5.54c-.77-.45-.68-1.22.21-1.74l3.15-1.81a3.33,3.33,0,0,1,3-.13l9.6,5.54c.77.45.67,1.22-.22,1.74L368,374.34A3.35,3.35,0,0,1,365,374.47Z" fill="#0c0c0c"/><path d="M379.7,383l-9.6-5.54c-.77-.45-.67-1.23.22-1.74l3.14-1.81a3.35,3.35,0,0,1,3-.13l9.6,5.54c.77.45.67,1.22-.22,1.74l-3.14,1.81A3.35,3.35,0,0,1,379.7,383Z" fill="#0c0c0c"/><path d="M394.39,391.43l-9.6-5.55c-.77-.44-.67-1.22.22-1.73l3.14-1.82a3.34,3.34,0,0,1,3-.12l9.59,5.54c.77.45.68,1.22-.21,1.74l-3.15,1.81A3.33,3.33,0,0,1,394.39,391.43Z" fill="#0c0c0c"/><path d="M409.07,399.9l-9.59-5.54c-.78-.44-.68-1.22.21-1.73l3.14-1.82a3.34,3.34,0,0,1,3-.12l9.6,5.54c.77.44.67,1.22-.22,1.74l-3.14,1.81A3.34,3.34,0,0,1,409.07,399.9Z" fill="#0c0c0c"/><path d="M263.62,333.44,254,327.9c-.77-.45-.67-1.22.22-1.74l9.51-5.49a3.34,3.34,0,0,1,3-.12l9.59,5.54c.77.44.68,1.22-.21,1.73l-9.51,5.49A3.35,3.35,0,0,1,263.62,333.44Z" fill="#0c0c0c"/><path d="M278.44,342l-9.6-5.54c-.77-.45-.67-1.23.22-1.74l9.51-5.49a3.38,3.38,0,0,1,3-.13l9.59,5.55c.77.44.68,1.22-.21,1.73l-9.51,5.49A3.35,3.35,0,0,1,278.44,342Z" fill="#0c0c0c"/><path d="M293.26,350.55,283.67,345c-.77-.44-.68-1.22.21-1.73l9.51-5.49a3.35,3.35,0,0,1,3-.13L306,343.2c.78.45.68,1.22-.21,1.74l-9.51,5.49A3.34,3.34,0,0,1,293.26,350.55Z" fill="#0c0c0c"/><path d="M308.08,359.11l-9.59-5.54c-.77-.45-.68-1.22.21-1.74l9.51-5.49a3.34,3.34,0,0,1,3-.12l9.6,5.54c.77.44.67,1.22-.22,1.74L311.09,359A3.38,3.38,0,0,1,308.08,359.11Z" fill="#0c0c0c"/><path d="M322.91,367.67l-9.6-5.54c-.77-.45-.68-1.23.21-1.74L323,354.9a3.34,3.34,0,0,1,3-.12l9.6,5.54c.77.44.67,1.22-.22,1.73l-9.51,5.49A3.33,3.33,0,0,1,322.91,367.67Z" fill="#0c0c0c"/><path d="M337.73,376.22l-9.6-5.54c-.77-.44-.67-1.22.21-1.73l9.51-5.49a3.35,3.35,0,0,1,3-.13l9.6,5.54c.77.45.67,1.23-.22,1.74l-9.51,5.49A3.32,3.32,0,0,1,337.73,376.22Z" fill="#0c0c0c"/><path d="M352.55,384.78l-9.6-5.54c-.77-.45-.67-1.22.22-1.74l9.51-5.49a3.32,3.32,0,0,1,3-.12l9.6,5.54c.77.45.67,1.22-.22,1.74l-9.51,5.49A3.32,3.32,0,0,1,352.55,384.78Z" fill="#0c0c0c"/><path d="M367.37,393.34l-9.6-5.54c-.77-.45-.67-1.23.22-1.74l9.51-5.49a3.32,3.32,0,0,1,3-.12l9.6,5.54c.77.44.67,1.22-.22,1.73l-9.51,5.49A3.33,3.33,0,0,1,367.37,393.34Z" fill="#0c0c0c"/><path d="M382.19,401.89l-9.6-5.54c-.77-.44-.67-1.22.22-1.73l9.51-5.49a3.33,3.33,0,0,1,3-.13l9.6,5.54c.77.45.68,1.23-.21,1.74l-9.51,5.49A3.34,3.34,0,0,1,382.19,401.89Z" fill="#0c0c0c"/><path d="M178.89,334.5l-28.27-16.32c-.77-.45-.67-1.23.22-1.74l9.51-5.49a3.32,3.32,0,0,1,3-.12l28.27,16.32c.77.44.67,1.22-.22,1.73l-9.51,5.49A3.36,3.36,0,0,1,178.89,334.5Z" fill="#0c0c0c"/><path d="M361,439.62,332.7,423.3c-.77-.44-.67-1.22.22-1.73l9.51-5.49a3.33,3.33,0,0,1,3-.13l28.27,16.32c.77.44.67,1.22-.22,1.74L364,439.5A3.35,3.35,0,0,1,361,439.62Z" fill="#0c0c0c"/><path d="M301.7,424.3l-9.6-5.54c-.77-.45-.68-1.22.21-1.74l11.33-6.54a3.34,3.34,0,0,1,3-.12l9.6,5.54c.77.45.67,1.22-.22,1.74l-11.33,6.54A3.32,3.32,0,0,1,301.7,424.3Z" fill="#0c0c0c"/><path d="M194.06,362.16l-15.34-8.86c-.77-.45-.68-1.22.21-1.74L190.26,345a3.34,3.34,0,0,1,3-.12l15.34,8.86c.78.44.68,1.22-.21,1.74L197.07,362A3.38,3.38,0,0,1,194.06,362.16Z" fill="#0c0c0c"/><path d="M287.42,416.06l-15.35-8.87c-.77-.44-.68-1.22.21-1.73l11.33-6.54a3.35,3.35,0,0,1,3-.13L302,407.66c.77.44.67,1.22-.22,1.73l-11.33,6.54A3.33,3.33,0,0,1,287.42,416.06Z" fill="#0c0c0c"/><path d="M215.45,374.51l-15.35-8.87c-.77-.44-.67-1.22.22-1.73l11.32-6.54a3.35,3.35,0,0,1,3-.13L230,366.11c.77.44.67,1.22-.22,1.73l-11.33,6.54A3.36,3.36,0,0,1,215.45,374.51Z" fill="#0c0c0c"/><path d="M214.75,357.3l66.74,38.53a.92.92,0,0,1,0,1.73l-11.56,6.67a3.28,3.28,0,0,1-3,0L200.2,365.7Z" fill="#0c0c0c"/><path d="M343.12,439.82,353.81,446c.63.36.55,1-.18,1.42L349,450.09a2.77,2.77,0,0,1-2.47.1L335.84,444c-.63-.37-.55-1,.18-1.43l4.63-2.67A2.74,2.74,0,0,1,343.12,439.82Z" fill="#0c0c0c"/><path d="M328.17,431.19l10.69,6.17c.64.36.56,1-.17,1.42l-4.64,2.68a2.75,2.75,0,0,1-2.46.1l-10.69-6.17c-.63-.37-.55-1,.18-1.42l4.63-2.68A2.72,2.72,0,0,1,328.17,431.19Z" fill="#0c0c0c"/><path d="M313.35,422.63,324,428.8c.63.37.56,1-.17,1.43l-4.64,2.67a2.72,2.72,0,0,1-2.46.1l-10.69-6.17c-.63-.36-.55-1,.17-1.42l4.64-2.68A2.75,2.75,0,0,1,313.35,422.63Z" fill="#0c0c0c"/><path d="M336.36,426.46l10.69,6.17c.63.37.55,1-.18,1.43l-4.63,2.67a2.74,2.74,0,0,1-2.47.1l-10.69-6.17c-.63-.36-.55-1,.18-1.42l4.63-2.68A2.77,2.77,0,0,1,336.36,426.46Z" fill="#0c0c0c"/><path d="M487.56,195.86a4.41,4.41,0,0,1-2.23-.64,6.54,6.54,0,0,1-3.14-6.61,3.32,3.32,0,0,1,1.88-2.39,4,4,0,0,1,3.56.38,6.56,6.56,0,0,1,3.13,6.61,3.3,3.3,0,0,1-1.88,2.39A3.41,3.41,0,0,1,487.56,195.86ZM485.4,187a2.17,2.17,0,0,0-.92.19,2.32,2.32,0,0,0-1.29,1.67,5.46,5.46,0,0,0,2.65,5.49,3,3,0,0,0,2.63.33,2.32,2.32,0,0,0,1.29-1.68,5.44,5.44,0,0,0-2.65-5.49A3.4,3.4,0,0,0,485.4,187Z" fill="#00b3c0"/><path d="M499.78,202.92a4.51,4.51,0,0,1-2.23-.64,6.56,6.56,0,0,1-3.14-6.62,3.31,3.31,0,0,1,1.88-2.38,4,4,0,0,1,3.56.37,6.57,6.57,0,0,1,3.13,6.62,3.31,3.31,0,0,1-1.88,2.38A3.25,3.25,0,0,1,499.78,202.92ZM497.62,194a2.18,2.18,0,0,0-2.21,1.86,5.47,5.47,0,0,0,2.65,5.49,3,3,0,0,0,2.63.32A2.3,2.3,0,0,0,502,200a5.45,5.45,0,0,0-2.65-5.49A3.48,3.48,0,0,0,497.62,194Z" fill="#00b3c0"/><path d="M514.7,207.2c-.49,2.14-2.59,2.89-4.68,1.69a6,6,0,0,1-2.89-6c.5-2.14,2.59-2.89,4.68-1.69A6,6,0,0,1,514.7,207.2Z" fill="#00b3c0"/><polygon points="280.39 72.36 273.85 68.59 274.36 65.57 280.89 69.34 280.39 72.36" fill="#00b3c0"/><polygon points="289.89 77.85 283.35 74.07 283.86 71.05 290.39 74.83 289.89 77.85" fill="#00b3c0"/><polygon points="270.98 66.93 256.65 58.66 257.16 55.64 271.49 63.91 270.98 66.93" fill="#00b3c0"/><polygon points="272.79 123.96 261.85 117.64 262.27 115.11 273.21 121.43 272.79 123.96" fill="#fff"/><polygon points="282.12 129.35 276.65 126.19 277.08 123.66 282.55 126.82 282.12 129.35" fill="#fff"/><polygon points="275.02 131.75 270.36 129.06 270.79 126.53 275.45 129.22 275.02 131.75" fill="#fff"/><polygon points="282.83 136.26 277.36 133.1 277.78 130.57 283.25 133.73 282.83 136.26" fill="#fff"/><polygon points="290.86 147.4 269.37 134.99 269.79 132.46 291.29 144.87 290.86 147.4" fill="#fff"/><polygon points="272.23 197.03 250.74 184.62 251.16 182.09 272.65 194.5 272.23 197.03" fill="#fff"/><polygon points="280.5 201.8 275.02 198.64 275.45 196.12 280.92 199.27 280.5 201.8" fill="#fff"/><polygon points="273.03 143.61 268.37 140.92 268.8 138.39 273.46 141.08 273.03 143.61" fill="#fff"/><polygon points="280.84 148.11 275.37 144.96 275.8 142.43 281.26 145.59 280.84 148.11" fill="#fff"/><polygon points="279.19 153.67 267.38 146.84 267.8 144.32 279.62 151.14 279.19 153.67" fill="#fff"/><polygon points="287.11 158.23 281.63 155.08 282.06 152.55 287.53 155.71 287.11 158.23" fill="#fff"/><polygon points="295.06 162.82 289.59 159.67 290.01 157.14 295.48 160.29 295.06 162.82" fill="#fff"/><polygon points="307.89 170.23 297.54 164.26 297.96 161.73 308.31 167.7 307.89 170.23" fill="#fff"/><polygon points="299.69 178.51 294.23 175.35 294.65 172.82 300.12 175.98 299.69 178.51" fill="#fff"/><polygon points="312.53 185.92 302.18 179.94 302.6 177.41 312.95 183.39 312.53 185.92" fill="#fff"/><polygon points="270.86 161.86 265.39 158.7 265.81 156.17 271.28 159.33 270.86 161.86" fill="#fff"/><polygon points="278.81 166.45 273.34 163.29 273.76 160.76 279.24 163.92 278.81 166.45" fill="#fff"/><polygon points="291.64 173.86 281.29 167.88 281.72 165.35 292.07 171.33 291.64 173.86" fill="#fff"/><polygon points="308.45 177.06 302.99 173.91 303.41 171.38 308.88 174.53 308.45 177.06" fill="#fff"/><polygon points="316.41 181.65 310.94 178.5 311.36 175.97 316.83 179.12 316.41 181.65" fill="#fff"/><polygon points="329.24 189.06 318.89 183.09 319.31 180.56 329.66 186.53 329.24 189.06" fill="#fff"/><polygon points="289.05 206.74 283.58 203.59 284.01 201.06 289.48 204.21 289.05 206.74" fill="#fff"/><polygon points="301.88 214.15 291.53 208.18 291.96 205.65 302.31 211.62 301.88 214.15" fill="#fff"/><polygon points="268.87 173.72 263.4 170.56 263.83 168.03 269.3 171.19 268.87 173.72" fill="#fff"/><polygon points="281.7 181.13 271.35 175.15 271.78 172.62 282.13 178.6 281.7 181.13" fill="#fff"/><polygon points="295.01 216.69 289.54 213.53 289.96 211 295.43 214.16 295.01 216.69" fill="#fff"/><polygon points="307.84 224.09 297.49 218.12 297.92 215.59 308.26 221.56 307.84 224.09" fill="#fff"/><polygon points="307.21 156.84 301.74 153.68 302.17 151.15 307.64 154.31 307.21 156.84" fill="#fff"/><polygon points="298.94 152.06 293.47 148.9 293.9 146.38 299.37 149.53 298.94 152.06" fill="#fff"/><polygon points="320.04 164.24 309.69 158.27 310.12 155.74 320.47 161.72 320.04 164.24" fill="#fff"/><polygon points="271.32 155.62 266.38 152.77 266.81 150.25 271.74 153.09 271.32 155.62" fill="#fff"/><polygon points="285.95 164.07 273.96 157.15 274.38 154.62 286.38 161.54 285.95 164.07" fill="#fff"/><polygon points="300.59 172.52 288.59 165.59 289.02 163.07 301.01 169.99 300.59 172.52" fill="#fff"/><polygon points="327.64 168.63 322.71 165.78 323.13 163.25 328.07 166.1 327.64 168.63" fill="#fff"/><polygon points="342.28 177.08 330.28 170.16 330.71 167.63 342.7 174.55 342.28 177.08" fill="#fff"/><polygon points="356.91 185.53 344.92 178.6 345.34 176.08 357.33 183 356.91 185.53" fill="#fff"/><polygon points="276.5 171.62 264.5 164.69 264.93 162.16 276.92 169.09 276.5 171.62" fill="#fff"/><polygon points="282.82 175.27 279.14 173.14 279.56 170.61 283.24 172.74 282.82 175.27" fill="#fff"/><polygon points="289.16 178.93 285.47 176.8 285.9 174.27 289.58 176.4 289.16 178.93" fill="#fff"/><polygon points="300.87 185.69 291.81 180.46 292.23 177.93 301.3 183.16 300.87 185.69" fill="#fff"/><polygon points="314 173.76 310.32 171.64 310.74 169.11 314.43 171.24 314 173.76" fill="#fff"/><polygon points="325.72 180.53 316.66 175.29 317.08 172.77 326.14 178 325.72 180.53" fill="#fff"/><polygon points="328.18 181.95 319.12 176.72 319.54 174.19 328.61 179.42 328.18 181.95" fill="#fff"/><polygon points="279.93 214.48 268.12 207.66 268.54 205.13 280.36 211.96 279.93 214.48" fill="#fff"/><polygon points="287.84 219.05 282.37 215.89 282.8 213.36 288.27 216.52 287.84 219.05" fill="#fff"/><polygon points="295.79 223.64 290.32 220.48 290.75 217.95 296.22 221.11 295.79 223.64" fill="#fff"/><polygon points="308.62 231.05 298.27 225.07 298.7 222.54 309.05 228.52 308.62 231.05" fill="#fff"/><polygon points="316.83 235.79 311.36 232.63 311.79 230.1 317.25 233.26 316.83 235.79" fill="#fff"/><polygon points="329.66 243.19 319.31 237.22 319.74 234.69 330.09 240.67 329.66 243.19" fill="#fff"/><polygon points="290.3 233.48 284.83 230.32 285.26 227.79 290.73 230.95 290.3 233.48" fill="#fff"/><polygon points="303.13 240.88 292.78 234.91 293.21 232.38 303.56 238.35 303.13 240.88" fill="#fff"/><polygon points="261.73 216.98 256.26 213.82 256.69 211.3 262.16 214.45 261.73 216.98" fill="#fff"/><polygon points="269.69 221.57 264.21 218.41 264.64 215.89 270.11 219.04 269.69 221.57" fill="#fff"/><polygon points="282.52 228.98 272.17 223 272.59 220.48 282.94 226.45 282.52 228.98" fill="#fff"/><polygon points="272.06 216.44 267.12 213.59 267.55 211.06 272.48 213.91 272.06 216.44" fill="#fff"/><polygon points="286.69 224.89 274.7 217.96 275.12 215.43 287.12 222.36 286.69 224.89" fill="#fff"/><polygon points="301.32 233.34 289.33 226.41 289.75 223.88 301.75 230.81 301.32 233.34" fill="#fff"/><polygon points="257.7 221.15 245.7 214.23 246.13 211.7 258.12 218.63 257.7 221.15" fill="#fff"/><polygon points="264.02 224.81 260.34 222.68 260.76 220.15 264.44 222.28 264.02 224.81" fill="#fff"/><polygon points="270.36 228.46 266.67 226.34 267.1 223.81 270.78 225.93 270.36 228.46" fill="#fff"/><polygon points="282.07 235.23 273.01 229.99 273.43 227.47 282.5 232.7 282.07 235.23" fill="#fff"/><polygon points="284.53 236.65 275.47 231.42 275.89 228.89 284.96 234.12 284.53 236.65" fill="#fff"/><polygon points="263.1 198.26 259.42 196.13 259.84 193.61 263.52 195.73 263.1 198.26" fill="#fff"/><polygon points="274.81 205.03 265.75 199.79 266.18 197.26 275.24 202.5 274.81 205.03" fill="#fff"/><polygon points="286.78 211.94 277.72 206.7 278.14 204.18 287.21 209.41 286.78 211.94" fill="#fff"/><polygon points="332.91 251.57 327.44 248.41 327.86 245.88 333.33 249.04 332.91 251.57" fill="#fff"/><polygon points="345.74 258.98 335.39 253 335.81 250.47 346.16 256.45 345.74 258.98" fill="#fff"/><polygon points="312.71 239.91 303.65 234.68 304.07 232.15 313.13 237.38 312.71 239.91" fill="#fff"/><polygon points="324.68 246.82 315.62 241.59 316.04 239.06 325.1 244.29 324.68 246.82" fill="#fff"/><polygon points="256.69 173.19 253.01 171.06 253.43 168.53 257.12 170.66 256.69 173.19" fill="#fff"/><polygon points="268.41 179.95 259.35 174.72 259.77 172.19 268.83 177.42 268.41 179.95" fill="#fff"/><polygon points="280.38 186.86 271.31 181.63 271.74 179.1 280.8 184.33 280.38 186.86" fill="#fff"/><path d="M461.2,279a5.12,5.12,0,0,1-2.53-.73L385.41,236c-3-1.73-4.92-6.1-4.31-9.74l4.69-28a5.22,5.22,0,0,1,2.69-4,4.49,4.49,0,0,1,4.23.36L466,237c3,1.73,4.92,6.09,4.31,9.74l-4.69,27.94a5.2,5.2,0,0,1-2.69,4A3.84,3.84,0,0,1,461.2,279Zm-71-84.08a3.06,3.06,0,0,0-1.27.28,4.23,4.23,0,0,0-2.11,3.26l-4.68,27.95c-.55,3.25,1.16,7.15,3.81,8.68l73.25,42.29a3.49,3.49,0,0,0,3.28.31,4.2,4.2,0,0,0,2.12-3.26l4.68-27.95c.55-3.25-1.16-7.14-3.81-8.67L392.2,195.55A4,4,0,0,0,390.18,195Z" fill="#fff"/><path d="M453.15,327.06a5.08,5.08,0,0,1-2.54-.73L377.36,284c-3-1.73-4.92-6.1-4.31-9.74l4.69-28a5.18,5.18,0,0,1,2.68-4,4.48,4.48,0,0,1,4.24.36L457.91,285c3,1.72,4.92,6.09,4.31,9.73l-4.68,28a5.2,5.2,0,0,1-2.69,4A4,4,0,0,1,453.15,327.06Zm-2-1.62a3.49,3.49,0,0,0,3.28.31,4.19,4.19,0,0,0,2.11-3.26l4.69-27.95c.54-3.25-1.17-7.14-3.81-8.67l-73.26-42.29a3.49,3.49,0,0,0-3.28-.32,4.2,4.2,0,0,0-2.11,3.26l-4.69,28c-.54,3.25,1.17,7.15,3.82,8.67Z" fill="#fff"/><path d="M412.66,171.16a6.41,6.41,0,0,1-3.21-.92l-57.27-33.06a10.2,10.2,0,0,1-4.4-11,6.11,6.11,0,0,1,3.47-4.21,5.88,5.88,0,0,1,5.25.52l57.27,33.06a10.18,10.18,0,0,1,4.4,11,6.09,6.09,0,0,1-3.47,4.21A5.53,5.53,0,0,1,412.66,171.16Zm-59.37-48.54a4.26,4.26,0,0,0-1.65.33,5.08,5.08,0,0,0-2.87,3.53,9.1,9.1,0,0,0,3.93,9.81L410,169.35a4.85,4.85,0,0,0,4.34.46,5.09,5.09,0,0,0,2.87-3.54,9.1,9.1,0,0,0-3.93-9.81L356,123.4A5.35,5.35,0,0,0,353.29,122.62Z" fill="#fff"/></svg>