<svg xmlns="http://www.w3.org/2000/svg" xmlns:xlink="http://www.w3.org/1999/xlink" width="547.79" height="572.83" viewBox="0 0 547.79 572.83"><defs><style>.a{fill:none;}.b{fill:#ff0a52;}.c{fill:url(#a);}.d{fill:url(#b);}.e{fill:#0b0b0c;}.f{opacity:0.51;}.g{fill:#191919;}.h{fill:url(#c);}.i{fill:url(#d);}.j{fill:#fff;}.k{opacity:0.15;}.l{clip-path:url(#e);}.m{fill:url(#f);}.n{fill:url(#g);}.o{fill:#1c1c1c;}.p{fill:#1d1d1f;}</style><linearGradient id="a" x1="194.96" y1="209.11" x2="547.79" y2="209.11" gradientUnits="userSpaceOnUse"><stop offset="0" stop-color="#424244"/><stop offset="0.57" stop-color="#3d3d40"/><stop offset="1" stop-color="#35353a"/></linearGradient><linearGradient id="b" x1="-1275.5" y1="299.6" x2="-1222.41" y2="299.6" gradientTransform="matrix(-1, 0, 0, 1, -727.71, 0)" gradientUnits="userSpaceOnUse"><stop offset="0" stop-color="#46464c"/><stop offset="1" stop-color="#3b3b3f"/></linearGradient><linearGradient id="c" x1="-1228.23" y1="398.32" x2="-729.92" y2="398.32" gradientTransform="matrix(-1, 0, 0, 1, -727.71, 0)" gradientUnits="userSpaceOnUse"><stop offset="0" stop-color="#2a2a2d"/><stop offset="0.76" stop-color="#2e2e32"/><stop offset="1" stop-color="#313135"/></linearGradient><linearGradient id="d" x1="-1182.31" y1="502.05" x2="-715.19" y2="232.36" gradientTransform="matrix(-1, 0, 0, 1, -727.71, 0)" gradientUnits="userSpaceOnUse"><stop offset="0.42" stop-color="#fff"/><stop offset="0.61" stop-color="#fafafa"/><stop offset="0.84" stop-color="#ececec"/><stop offset="1" stop-color="#ddd"/></linearGradient><clipPath id="e"><polygon class="a" points="539.38 184.74 232.52 7.65 193.96 236.88 500.63 413.85 539.38 184.74"/></clipPath><linearGradient id="f" x1="-1419.84" y1="288.65" x2="-921.53" y2="288.65" gradientTransform="matrix(-1, 0, 0, 1, -727.71, 0)" gradientUnits="userSpaceOnUse"><stop offset="0" stop-color="#181b1f"/><stop offset="0.11" stop-color="#1c1f24"/><stop offset="0.25" stop-color="#262932"/><stop offset="0.39" stop-color="#383a4a"/><stop offset="0.54" stop-color="#50526b"/><stop offset="0.7" stop-color="#6f7296"/><stop offset="0.86" stop-color="#9597c9"/><stop offset="1" stop-color="#bcbeff"/></linearGradient><linearGradient id="g" x1="-1252.41" y1="275.03" x2="-753.83" y2="275.03" gradientTransform="matrix(-1, 0, 0, 1, -727.71, 0)" gradientUnits="userSpaceOnUse"><stop offset="0" stop-color="#adadad"/><stop offset="0.22" stop-color="#b2b2b2"/><stop offset="0.47" stop-color="silver"/><stop offset="0.75" stop-color="#d8d8d8"/><stop offset="1" stop-color="#f4f4f4"/></linearGradient></defs><path class="b" d="M312.45,572.83a14.05,14.05,0,0,1-6.85-1.73L3.28,396.55C1.19,395.35,0,393.68,0,392a4.37,4.37,0,0,1,2.47-3.74L182.88,284.07c3.21-1.85,8.59-1.65,12.26.47L497.46,459.08c2.08,1.2,3.27,2.87,3.27,4.59a4.36,4.36,0,0,1-2.47,3.73L317.86,571.56A11,11,0,0,1,312.45,572.83ZM4.36,394.68,306.68,569.23c2.95,1.71,7.58,1.92,10.1.46l180.4-104.16a2.36,2.36,0,0,0,1.4-1.86c0-.91-.83-1.93-2.2-2.72L194.06,286.4c-3-1.7-7.59-1.91-10.1-.46L3.55,390.1A2.39,2.39,0,0,0,2.16,392c0,.91.82,1.92,2.2,2.71Z"/><path class="c" d="M195,231.05,233.24,4.32,230.17,3,234.79.38v0a3.33,3.33,0,0,1,3.56.24L543.76,177c2.51,1.45,4.41,5.16,4,7.76L509.21,413.28a2.87,2.87,0,0,1-1.61,2.33h0l-4.52,2.61-.77-4.22.26.08L199,238.81C196.48,237.36,194.58,233.65,195,231.05Z"/><path class="d" d="M542.06,183.19l5-2.22a7,7,0,0,1,.65,3.78L509.21,413.28a2.87,2.87,0,0,1-1.61,2.33h0l-4.52,2.61-.77-4.22.26.08-15.37-8.87Z"/><path class="e" d="M194.2,241.56,499.62,417.9c2.36,1.36,4.38.57,4.8-1.87L542.94,187.5c.44-2.6-1.46-6.31-4-7.76L233.55,3.4c-2.36-1.36-4.38-.57-4.8,1.87L190.23,233.8C189.79,236.4,191.69,240.11,194.2,241.56Z"/><g class="f"><polygon class="g" points="232.52 7.65 539.38 184.74 500.63 413.85 193.96 236.88 232.52 7.65"/></g><path class="h" d="M2.21,349.76l16.67,8.7L186,262c2.8-1.62,7.68-1.42,10.91.45L485.18,428.85c2.76-1.55,15.34-7.59,15.34-7.59l-6.1,9.91,0,0a3.63,3.63,0,0,1-1.7,1.9l-176,101.62c-2.79,1.62-7.68,1.42-10.91-.45l-295-170.31a5.26,5.26,0,0,1-2.48-2.63l0,0Z"/><path class="i" d="M4.79,352.5,307.11,527c3.3,1.91,8.31,2.12,11.18.47l180.4-104.16c2.87-1.66,2.51-4.55-.8-6.46L195.57,242.35c-3.31-1.91-8.32-2.12-11.18-.46L4,346C1.12,347.7,1.48,350.59,4.79,352.5Z"/><path class="j" d="M4.79,351.14,307.11,525.69c3.3,1.91,8.31,2.12,11.18.46L498.69,422a3.63,3.63,0,0,0,1.82-2.11c.32,1.28-.25,2.56-1.82,3.47L318.29,527.51c-2.87,1.65-7.88,1.44-11.18-.47L4.79,352.5c-2.15-1.24-3-2.89-2.62-4.34A5.06,5.06,0,0,0,4.79,351.14Z"/><g class="k"><g class="l"><path class="m" d="M193.83,240.09l16.66,8.7L377.63,152.3c2.8-1.62,7.68-1.41,10.91.45L676.8,319.18c2.76-1.54,15.34-7.59,15.34-7.59L686,321.5h0a3.65,3.65,0,0,1-1.7,1.89L508.28,425c-2.8,1.61-7.68,1.41-10.91-.46l-295-170.3a5.33,5.33,0,0,1-2.47-2.64l0,0Z"/><path class="n" d="M196.4,242.83,498.72,417.37c3.31,1.91,8.32,2.12,11.18.47L690.31,313.68c2.86-1.65,2.5-4.54-.81-6.46L387.19,132.68c-3.31-1.91-8.32-2.12-11.19-.46L195.6,236.37C192.73,238,193.09,240.92,196.4,242.83Z"/><path class="j" d="M689.5,307.22,387.19,132.68a13.22,13.22,0,0,0-7.47-1.52,12.81,12.81,0,0,1,5.24,1.52L687.28,307.22c3.31,1.92,3.67,4.81.8,6.46L507.67,417.84a9,9,0,0,1-3.71,1.05,10.57,10.57,0,0,0,5.94-1.05L690.31,313.68C693.17,312,692.81,309.14,689.5,307.22Z"/><path class="o" d="M354.76,212.78l-9.69-5.59a3.22,3.22,0,0,0-2.94.08l-10.77,6.29c-.85.49-.9,1.26-.13,1.71l9.69,5.59a3.22,3.22,0,0,0,2.94-.08l10.78-6.29C355.48,214,355.54,213.23,354.76,212.78Z"/><path class="o" d="M369.72,221.42,360,215.83a3.22,3.22,0,0,0-2.94.08l-10.77,6.29c-.84.5-.9,1.26-.12,1.71l9.69,5.59a3.22,3.22,0,0,0,2.94-.08l10.77-6.29C370.45,222.64,370.5,221.87,369.72,221.42Z"/><path class="o" d="M384.69,230.06,375,224.47a3.22,3.22,0,0,0-2.94.08l-10.77,6.29c-.85.5-.9,1.26-.13,1.71l9.7,5.59a3.22,3.22,0,0,0,2.94-.08l10.77-6.29C385.41,231.28,385.47,230.51,384.69,230.06Z"/><path class="o" d="M373.3,241.56,363.6,236a3.22,3.22,0,0,0-2.94.08l-9,5.28c-.84.49-.9,1.26-.12,1.71l9.69,5.59a3.22,3.22,0,0,0,2.94-.08l9-5.28C374,242.78,374.07,242,373.3,241.56Z"/><path class="o" d="M388.26,250.2l-9.69-5.59a3.22,3.22,0,0,0-2.94.08l-9,5.28c-.85.5-.9,1.26-.12,1.71l9.69,5.59a3.22,3.22,0,0,0,2.94-.08l9-5.28C389,251.42,389,250.65,388.26,250.2Z"/><path class="o" d="M403.23,258.84l-9.69-5.59a3.24,3.24,0,0,0-3,.08l-9,5.28c-.84.5-.9,1.26-.12,1.71l9.69,5.59a3.22,3.22,0,0,0,2.94-.08l9-5.28C404,260.06,404,259.29,403.23,258.84Z"/><path class="o" d="M418.19,267.48l-9.69-5.59a3.25,3.25,0,0,0-2.94.08l-9,5.28c-.85.5-.9,1.26-.12,1.71l9.69,5.59a3.22,3.22,0,0,0,2.94-.08l9-5.28C418.91,268.7,419,267.93,418.19,267.48Z"/><path class="o" d="M433.16,276.12l-9.69-5.59a3.25,3.25,0,0,0-2.94.08l-9,5.28c-.84.5-.9,1.26-.12,1.71l9.69,5.59a3.22,3.22,0,0,0,2.94-.08l9-5.28C433.88,277.34,433.93,276.57,433.16,276.12Z"/><path class="o" d="M448.12,284.76l-9.69-5.59a3.25,3.25,0,0,0-2.94.08l-9,5.28c-.85.5-.9,1.26-.12,1.71l9.69,5.6a3.25,3.25,0,0,0,2.94-.09l9-5.28C448.84,286,448.9,285.21,448.12,284.76Z"/><path class="o" d="M463.09,293.4l-9.69-5.59a3.25,3.25,0,0,0-2.94.08l-9,5.28c-.84.5-.9,1.26-.12,1.71l9.69,5.6a3.25,3.25,0,0,0,2.94-.09l9-5.28C463.81,294.62,463.87,293.85,463.09,293.4Z"/><path class="o" d="M478.05,302l-9.69-5.59a3.25,3.25,0,0,0-2.94.08l-9,5.28c-.85.5-.9,1.26-.12,1.71l9.69,5.6a3.25,3.25,0,0,0,2.94-.09l9-5.28C478.78,303.26,478.83,302.49,478.05,302Z"/><path class="o" d="M493,310.68l-9.69-5.59a3.25,3.25,0,0,0-2.94.08l-9,5.28c-.85.5-.91,1.26-.13,1.71l9.69,5.6a3.22,3.22,0,0,0,2.94-.09l9-5.28C493.74,311.9,493.8,311.13,493,310.68Z"/><path class="o" d="M508,319.32l-9.69-5.59a3.25,3.25,0,0,0-2.94.08l-9,5.28c-.85.5-.9,1.26-.12,1.71l9.69,5.6a3.22,3.22,0,0,0,2.94-.09l9-5.28C508.71,320.54,508.76,319.77,508,319.32Z"/><path class="o" d="M367.06,253.9l-9.69-5.6a3.25,3.25,0,0,0-2.94.08l-9,5.28c-.85.5-.9,1.26-.12,1.71L355,261a3.25,3.25,0,0,0,2.94-.08l9-5.29C367.78,255.11,367.84,254.35,367.06,253.9Z"/><path class="o" d="M351.87,245.13l-9.69-5.6a3.25,3.25,0,0,0-2.94.08l-9,5.29c-.85.49-.9,1.25-.12,1.7l9.69,5.6a3.25,3.25,0,0,0,2.94-.08l9-5.28C352.6,246.34,352.65,245.58,351.87,245.13Z"/><path class="o" d="M336.66,236.34l-20.87-12.05a3.25,3.25,0,0,0-2.94.08l-9,5.29c-.85.49-.91,1.26-.13,1.71l20.87,12a3.25,3.25,0,0,0,2.94-.09l9.05-5.28C337.38,237.56,337.44,236.79,336.66,236.34Z"/><path class="o" d="M319,242.09l-16.94-9.78a3.22,3.22,0,0,0-2.94.08l-9,5.28c-.85.5-.9,1.26-.12,1.71l16.93,9.78a3.25,3.25,0,0,0,2.94-.08l9-5.29C319.73,243.3,319.79,242.54,319,242.09Z"/><path class="o" d="M382,262.54l-9.69-5.6a3.27,3.27,0,0,0-2.95.08l-9,5.28c-.84.5-.9,1.26-.12,1.71l9.69,5.6a3.25,3.25,0,0,0,2.94-.08l9-5.29C382.75,263.75,382.8,263,382,262.54Z"/><path class="o" d="M397,271.18l-9.69-5.6a3.25,3.25,0,0,0-2.94.08l-9,5.29c-.85.49-.9,1.25-.12,1.7l9.69,5.6a3.25,3.25,0,0,0,2.94-.08l9-5.29C397.71,272.39,397.77,271.63,397,271.18Z"/><path class="o" d="M412,279.82l-9.69-5.6a3.25,3.25,0,0,0-2.94.08l-9.05,5.29c-.84.49-.9,1.25-.12,1.7l9.69,5.6a3.25,3.25,0,0,0,2.94-.08l9-5.28C412.68,281,412.73,280.27,412,279.82Z"/><path class="o" d="M426.92,288.46l-9.69-5.6a3.25,3.25,0,0,0-2.94.08l-9,5.29c-.85.49-.9,1.25-.12,1.7l9.69,5.6a3.25,3.25,0,0,0,2.94-.08l9-5.28C427.65,289.67,427.7,288.91,426.92,288.46Z"/><path class="o" d="M441.89,297.1l-9.69-5.6a3.25,3.25,0,0,0-2.94.08l-9,5.29c-.85.49-.91,1.26-.13,1.7l9.69,5.6a3.25,3.25,0,0,0,2.94-.08l9-5.28C442.61,298.31,442.67,297.55,441.89,297.1Z"/><path class="o" d="M456.85,305.74l-9.69-5.6a3.25,3.25,0,0,0-2.94.08l-9,5.29c-.85.49-.9,1.26-.12,1.7l9.69,5.6a3.25,3.25,0,0,0,2.94-.08l9-5.28C457.58,307,457.63,306.19,456.85,305.74Z"/><path class="o" d="M471.82,314.38l-9.69-5.6a3.25,3.25,0,0,0-2.94.08l-9,5.29c-.85.49-.91,1.26-.13,1.7l9.69,5.6a3.25,3.25,0,0,0,2.94-.08l9.05-5.28C472.54,315.59,472.6,314.83,471.82,314.38Z"/><path class="o" d="M486.78,323l-9.69-5.6a3.25,3.25,0,0,0-2.94.08l-9,5.29c-.84.49-.9,1.26-.12,1.71l9.69,5.59a3.25,3.25,0,0,0,2.94-.08l9-5.28C487.51,324.23,487.56,323.47,486.78,323Z"/><path class="o" d="M501.75,331.66l-9.69-5.6a3.25,3.25,0,0,0-2.94.08l-9,5.29c-.85.49-.9,1.26-.13,1.71l9.69,5.59a3.25,3.25,0,0,0,2.94-.08l9.05-5.28C502.47,332.87,502.53,332.11,501.75,331.66Z"/><path class="o" d="M528.35,347l-21.14-12.21a3.25,3.25,0,0,0-2.94.08l-9,5.28c-.85.5-.9,1.26-.12,1.71l21.14,12.21a3.25,3.25,0,0,0,2.94-.08l9-5.28C529.08,348.23,529.13,347.47,528.35,347Z"/><path class="o" d="M500.92,363.05l-17.85-10.31a3.25,3.25,0,0,0-2.94.08l-9,5.29c-.84.49-.9,1.26-.12,1.7l17.85,10.31a3.25,3.25,0,0,0,2.94-.08l9-5.29C501.64,364.26,501.7,363.5,500.92,363.05Z"/><path class="o" d="M380,277.27l-9.69-5.59a3.22,3.22,0,0,0-2.94.08l-9,5.28c-.85.49-.9,1.26-.13,1.71l9.69,5.59a3.22,3.22,0,0,0,2.94-.08l9.05-5.28C380.67,278.48,380.73,277.72,380,277.27Z"/><path class="o" d="M364.61,268.42l-9.69-5.6a3.25,3.25,0,0,0-2.94.08l-9,5.28c-.85.5-.9,1.26-.12,1.71l9.69,5.6a3.25,3.25,0,0,0,2.94-.08l9-5.29C365.33,269.63,365.39,268.86,364.61,268.42Z"/><path class="o" d="M349.27,259.56,339.58,254a3.22,3.22,0,0,0-2.94.08l-9,5.28c-.84.49-.9,1.26-.12,1.71l9.69,5.59a3.25,3.25,0,0,0,2.94-.08l9-5.28C350,260.77,350.05,260,349.27,259.56Z"/><path class="o" d="M333.94,250.7l-9.69-5.59a3.27,3.27,0,0,0-2.95.08l-9,5.28c-.84.5-.9,1.26-.12,1.71l9.69,5.6a3.25,3.25,0,0,0,2.94-.08l9-5.29C334.66,251.92,334.71,251.15,333.94,250.7Z"/><path class="o" d="M394.91,285.91l-9.69-5.59a3.22,3.22,0,0,0-2.94.08l-9,5.28c-.84.49-.9,1.26-.12,1.71l9.69,5.59a3.22,3.22,0,0,0,2.94-.08l9-5.28C395.64,287.12,395.69,286.36,394.91,285.91Z"/><path class="o" d="M409.88,294.55,400.19,289a3.22,3.22,0,0,0-2.94.08l-9,5.28c-.85.49-.9,1.26-.13,1.71l9.69,5.59a3.24,3.24,0,0,0,3-.08l9-5.28C410.6,295.76,410.66,295,409.88,294.55Z"/><path class="o" d="M424.84,303.19l-9.69-5.59a3.22,3.22,0,0,0-2.94.08l-9,5.28c-.84.49-.9,1.26-.12,1.71l9.69,5.59a3.22,3.22,0,0,0,2.94-.08l9-5.28C425.57,304.41,425.62,303.64,424.84,303.19Z"/><path class="o" d="M439.81,311.83l-9.69-5.59a3.22,3.22,0,0,0-2.94.08l-9,5.28c-.85.49-.9,1.26-.13,1.71l9.7,5.59a3.22,3.22,0,0,0,2.94-.08l9-5.28C440.53,313.05,440.59,312.28,439.81,311.83Z"/><path class="o" d="M454.78,320.47l-9.7-5.59a3.22,3.22,0,0,0-2.94.08l-9,5.28c-.84.49-.9,1.26-.12,1.71l9.69,5.59a3.22,3.22,0,0,0,2.94-.08l9-5.28C455.5,321.69,455.55,320.92,454.78,320.47Z"/><path class="o" d="M469.74,329.11l-9.69-5.59a3.22,3.22,0,0,0-2.94.08l-9,5.28c-.85.49-.9,1.26-.12,1.71l9.69,5.59a3.22,3.22,0,0,0,2.94-.08l9-5.28C470.46,330.33,470.52,329.56,469.74,329.11Z"/><path class="o" d="M484.71,337.75,475,332.16a3.24,3.24,0,0,0-2.95.08l-9,5.28c-.84.49-.9,1.26-.12,1.71l9.69,5.59a3.22,3.22,0,0,0,2.94-.08l9-5.28C485.43,339,485.48,338.2,484.71,337.75Z"/><path class="o" d="M499.67,346.39,490,340.8a3.22,3.22,0,0,0-2.94.08l-9,5.28c-.85.5-.9,1.26-.12,1.71l9.69,5.59a3.22,3.22,0,0,0,2.94-.08l9-5.28C500.39,347.61,500.45,346.84,499.67,346.39Z"/><path class="o" d="M514.64,355,505,349.44a3.25,3.25,0,0,0-2.94.08L493,354.8c-.84.5-.9,1.26-.12,1.71l9.69,5.59a3.22,3.22,0,0,0,2.94-.08l9-5.28C515.36,356.25,515.41,355.48,514.64,355Z"/><path class="o" d="M343.78,272.32l-9.69-5.59a3.25,3.25,0,0,0-2.94.08l-9,5.28c-.84.5-.9,1.26-.12,1.71l9.69,5.6a3.22,3.22,0,0,0,2.94-.09l9-5.28C344.51,273.54,344.56,272.77,343.78,272.32Z"/><path class="o" d="M328.89,263.73l-9.69-5.6a3.25,3.25,0,0,0-2.94.08l-9,5.29c-.85.49-.9,1.25-.12,1.7l9.69,5.6a3.25,3.25,0,0,0,2.94-.08l9-5.28C329.62,264.94,329.67,264.18,328.89,263.73Z"/><path class="o" d="M314,255.13l-9.69-5.6a3.25,3.25,0,0,0-2.94.09l-9,5.28c-.85.49-.9,1.26-.12,1.71l9.69,5.59a3.25,3.25,0,0,0,2.94-.08l9-5.28C314.73,256.34,314.78,255.58,314,255.13Z"/><path class="o" d="M299.11,246.53l-9.69-5.59a3.22,3.22,0,0,0-2.94.08l-9,5.28c-.85.5-.9,1.26-.12,1.71L287,253.6a3.22,3.22,0,0,0,2.94-.08l9-5.28C299.83,247.75,299.89,247,299.11,246.53Z"/><path class="o" d="M284.69,255l-9.69-5.6a3.25,3.25,0,0,0-2.94.08l-3,1.75c-.84.49-.9,1.26-.12,1.71l9.69,5.59a3.25,3.25,0,0,0,2.94-.08l3-1.75C285.42,256.17,285.47,255.4,284.69,255Z"/><path class="o" d="M304.13,266.18l-9.7-5.6a3.25,3.25,0,0,0-2.94.08l-3,1.75c-.85.49-.91,1.26-.13,1.71l9.69,5.59a3.25,3.25,0,0,0,2.94-.08l3-1.75C304.85,267.39,304.9,266.62,304.13,266.18Z"/><path class="o" d="M319,274.74l-9.69-5.6a3.25,3.25,0,0,0-2.94.08l-3,1.75c-.84.49-.9,1.26-.12,1.71l9.69,5.59a3.22,3.22,0,0,0,2.94-.08l3-1.75C319.68,276,319.73,275.19,319,274.74Z"/><path class="o" d="M333.78,283.3l-9.69-5.6a3.25,3.25,0,0,0-2.94.08l-3,1.75c-.84.49-.9,1.26-.12,1.71l9.69,5.59a3.22,3.22,0,0,0,2.94-.08l3-1.74C334.51,284.51,334.56,283.75,333.78,283.3Z"/><path class="o" d="M348.61,291.86l-9.69-5.6a3.25,3.25,0,0,0-2.94.09l-3,1.74c-.84.5-.9,1.26-.12,1.71l9.69,5.6a3.25,3.25,0,0,0,2.94-.09l3-1.74C349.34,293.07,349.39,292.31,348.61,291.86Z"/><path class="o" d="M431.4,339.66l-9.69-5.6a3.25,3.25,0,0,0-2.94.08l-3,1.75c-.85.49-.9,1.26-.12,1.71l9.69,5.59a3.22,3.22,0,0,0,2.94-.08l3-1.75C432.12,340.87,432.18,340.11,431.4,339.66Z"/><path class="o" d="M446.23,348.22l-9.69-5.6a3.25,3.25,0,0,0-2.94.08l-3,1.75c-.85.49-.9,1.26-.12,1.71l9.69,5.59a3.22,3.22,0,0,0,2.94-.08l3-1.74C447,349.43,447,348.67,446.23,348.22Z"/><path class="o" d="M461.06,356.78l-9.69-5.6a3.25,3.25,0,0,0-2.94.09l-3,1.74c-.85.5-.9,1.26-.13,1.71l9.69,5.6a3.27,3.27,0,0,0,2.95-.09l3-1.74C461.78,358,461.84,357.23,461.06,356.78Z"/><path class="o" d="M475.89,365.34l-9.69-5.59a3.24,3.24,0,0,0-2.95.08l-3,1.74c-.85.5-.91,1.26-.13,1.71l9.69,5.6a3.25,3.25,0,0,0,2.94-.08l3-1.75C476.61,366.55,476.66,365.79,475.89,365.34Z"/><path class="o" d="M358.75,281l-9.69-5.59a3.25,3.25,0,0,0-2.94.08l-9,5.28c-.85.5-.9,1.26-.13,1.71l9.69,5.6a3.24,3.24,0,0,0,2.95-.09l9-5.28C359.47,282.18,359.53,281.41,358.75,281Z"/><path class="o" d="M373.71,289.6,364,284a3.25,3.25,0,0,0-2.94.08l-9,5.28c-.84.5-.9,1.26-.12,1.71l9.69,5.6a3.22,3.22,0,0,0,2.94-.09l9-5.28C374.44,290.82,374.49,290.05,373.71,289.6Z"/><path class="o" d="M388.68,298.24,379,292.65a3.25,3.25,0,0,0-2.94.08L367,298c-.85.5-.9,1.26-.13,1.71l9.7,5.6a3.25,3.25,0,0,0,2.94-.08l9-5.29C389.4,299.46,389.46,298.69,388.68,298.24Z"/><path class="o" d="M403.65,306.88l-9.7-5.59a3.25,3.25,0,0,0-2.94.08l-9,5.28c-.84.5-.9,1.26-.12,1.71l9.69,5.6a3.25,3.25,0,0,0,2.94-.08l9-5.29C404.37,308.1,404.42,307.33,403.65,306.88Z"/><path class="o" d="M418.61,315.53l-9.69-5.6A3.25,3.25,0,0,0,406,310l-9,5.28c-.85.5-.9,1.26-.12,1.71l9.69,5.6a3.25,3.25,0,0,0,2.94-.08l9-5.29C419.33,316.74,419.39,316,418.61,315.53Z"/><path class="o" d="M433.58,324.17l-9.69-5.6a3.27,3.27,0,0,0-2.95.08l-9,5.28c-.84.5-.9,1.26-.12,1.71l9.69,5.6a3.25,3.25,0,0,0,2.94-.08l9-5.29C434.3,325.38,434.35,324.61,433.58,324.17Z"/><path class="o" d="M448.54,332.81l-9.69-5.6a3.25,3.25,0,0,0-2.94.08l-9,5.28c-.85.5-.9,1.26-.12,1.71l9.69,5.6a3.25,3.25,0,0,0,2.94-.08l9-5.29C449.26,334,449.32,333.25,448.54,332.81Z"/><path class="o" d="M463.51,341.45l-9.69-5.6a3.25,3.25,0,0,0-2.94.08l-9.05,5.28c-.84.5-.9,1.26-.12,1.71l9.69,5.6a3.25,3.25,0,0,0,2.94-.08l9-5.29C464.23,342.66,464.28,341.9,463.51,341.45Z"/><path class="o" d="M478.47,350.09l-9.69-5.6a3.25,3.25,0,0,0-2.94.08l-9,5.28c-.85.5-.9,1.26-.12,1.71l9.69,5.6a3.25,3.25,0,0,0,2.94-.08l9-5.29C479.19,351.3,479.25,350.54,478.47,350.09Z"/><path class="o" d="M358,232.76,329.5,216.28a3.25,3.25,0,0,0-2.94.08l-9,5.28c-.84.5-.9,1.26-.12,1.71l28.54,16.48a3.25,3.25,0,0,0,2.94-.08l9-5.28C358.77,234,358.82,233.21,358,232.76Z"/><path class="o" d="M541.9,338.9l-28.54-16.47a3.22,3.22,0,0,0-2.94.08l-9,5.28c-.85.49-.91,1.26-.13,1.71L529.79,346a3.22,3.22,0,0,0,2.94-.09l9-5.28C542.62,340.12,542.68,339.35,541.9,338.9Z"/><path class="o" d="M514.14,304.8l-9.69-5.59a3.22,3.22,0,0,0-2.94.08l-10.77,6.29c-.85.49-.9,1.26-.12,1.71l9.69,5.59a3.22,3.22,0,0,0,2.94-.08L514,306.51C514.86,306,514.92,305.25,514.14,304.8Z"/><path class="o" d="M405.46,242.06,390,233.11a3.22,3.22,0,0,0-2.94.08l-10.77,6.29c-.84.5-.9,1.26-.12,1.71l15.5,8.95a3.25,3.25,0,0,0,2.94-.08l10.77-6.3C406.18,243.27,406.24,242.5,405.46,242.06Z"/><path class="o" d="M499.72,296.48l-15.5-9a3.25,3.25,0,0,0-2.94.08l-10.77,6.29c-.84.5-.9,1.26-.12,1.71l15.5,8.95a3.25,3.25,0,0,0,2.94-.08l10.77-6.3C500.44,297.69,500.5,296.93,499.72,296.48Z"/><path class="o" d="M427.05,254.52l-15.49-9a3.24,3.24,0,0,0-2.95.09L397.84,252c-.84.49-.9,1.26-.12,1.71l15.5,8.94a3.22,3.22,0,0,0,2.94-.08l10.77-6.29C427.78,255.74,427.83,255,427.05,254.52Z"/><path class="o" d="M397.83,253.72l67.38,38.9a3.24,3.24,0,0,0,2.94,0l11-6.42c.79-.46.75-1.22-.09-1.7l-67.38-38.91Z"/><path class="o" d="M541.7,328.75,552.5,335a2.64,2.64,0,0,0,2.41-.07l4.4-2.57c.7-.4.74-1,.1-1.4l-10.79-6.23a2.66,2.66,0,0,0-2.41.06l-4.41,2.58C541.11,327.75,541.07,328.38,541.7,328.75Z"/><path class="o" d="M526.61,320l10.8,6.23a2.64,2.64,0,0,0,2.41-.07l4.4-2.57c.7-.41.74-1,.1-1.4L533.53,316a2.66,2.66,0,0,0-2.41.06l-4.41,2.58C526,319,526,319.67,526.61,320Z"/><path class="o" d="M511.65,311.4l10.79,6.23a2.63,2.63,0,0,0,2.41-.07l4.41-2.57c.69-.41.74-1,.1-1.4l-10.79-6.23a2.69,2.69,0,0,0-2.42.06l-4.4,2.58C511.06,310.4,511,311,511.65,311.4Z"/><path class="o" d="M518.83,324.58l10.8,6.24a2.7,2.7,0,0,0,2.41-.07l4.4-2.58c.7-.4.74-1,.1-1.4l-10.79-6.23a2.63,2.63,0,0,0-2.41.07l-4.41,2.57C518.24,323.59,518.19,324.22,518.83,324.58Z"/></g></g><path class="p" d="M143.85,333.17l-9.6-5.54c-.77-.45-.67-1.22.22-1.74l11.33-6.54a3.32,3.32,0,0,1,3-.12l9.6,5.54c.77.44.67,1.22-.22,1.73L146.86,333A3.35,3.35,0,0,1,143.85,333.17Z"/><path class="p" d="M158.67,341.73l-9.6-5.55c-.77-.44-.67-1.22.22-1.73l11.33-6.54a3.33,3.33,0,0,1,3-.13l9.6,5.54c.77.45.68,1.23-.21,1.74l-11.33,6.54A3.38,3.38,0,0,1,158.67,341.73Z"/><path class="p" d="M173.49,350.28l-9.6-5.54c-.77-.44-.67-1.22.22-1.73l11.33-6.54a3.33,3.33,0,0,1,3-.13l9.6,5.54c.77.45.68,1.22-.21,1.74l-11.33,6.54A3.34,3.34,0,0,1,173.49,350.28Z"/><path class="p" d="M194,343.22l-9.6-5.55c-.77-.44-.67-1.22.22-1.73l9.51-5.49a3.36,3.36,0,0,1,3-.13l9.6,5.55c.77.44.68,1.22-.21,1.73L197,343.09A3.38,3.38,0,0,1,194,343.22Z"/><path class="p" d="M208.81,351.77l-9.6-5.54c-.77-.44-.67-1.22.22-1.73l9.51-5.49a3.35,3.35,0,0,1,3-.13l9.59,5.54c.77.45.68,1.22-.21,1.74l-9.51,5.49A3.34,3.34,0,0,1,208.81,351.77Z"/><path class="p" d="M223.63,360.33,214,354.79c-.78-.45-.68-1.22.21-1.74l9.51-5.49a3.34,3.34,0,0,1,3-.12l9.59,5.54c.77.44.68,1.22-.21,1.73l-9.51,5.5A3.38,3.38,0,0,1,223.63,360.33Z"/><path class="p" d="M238.45,368.89l-9.59-5.54c-.77-.45-.68-1.23.21-1.74l9.51-5.49a3.38,3.38,0,0,1,3-.13l9.59,5.55c.78.44.68,1.22-.21,1.73l-9.51,5.49A3.35,3.35,0,0,1,238.45,368.89Z"/><path class="p" d="M253.27,377.44l-9.59-5.54c-.77-.44-.68-1.22.21-1.73l9.51-5.49a3.35,3.35,0,0,1,3-.13l9.6,5.54c.77.45.67,1.23-.22,1.74l-9.51,5.49A3.34,3.34,0,0,1,253.27,377.44Z"/><path class="p" d="M268.1,386l-9.6-5.54c-.77-.45-.68-1.22.21-1.74l9.51-5.49a3.34,3.34,0,0,1,3-.12l9.6,5.54c.77.44.67,1.22-.22,1.74l-9.51,5.49A3.32,3.32,0,0,1,268.1,386Z"/><path class="p" d="M282.92,394.56l-9.6-5.54c-.77-.45-.67-1.23.22-1.74l9.5-5.49a3.34,3.34,0,0,1,3-.12l9.6,5.54c.77.44.67,1.22-.22,1.73l-9.51,5.49A3.33,3.33,0,0,1,282.92,394.56Z"/><path class="p" d="M297.74,403.11l-9.6-5.54c-.77-.44-.67-1.22.22-1.73l9.51-5.49a3.33,3.33,0,0,1,3-.13l9.6,5.54c.77.45.67,1.23-.22,1.74L300.74,403A3.32,3.32,0,0,1,297.74,403.11Z"/><path class="p" d="M312.56,411.67l-9.6-5.54c-.77-.44-.67-1.22.22-1.74l9.51-5.49a3.32,3.32,0,0,1,3-.12l9.6,5.54c.77.45.67,1.22-.22,1.74l-9.5,5.49A3.34,3.34,0,0,1,312.56,411.67Z"/><path class="p" d="M327.38,420.23l-9.6-5.54c-.77-.45-.67-1.22.22-1.74l9.51-5.49a3.32,3.32,0,0,1,3-.12l9.6,5.54c.77.44.68,1.22-.21,1.73l-9.51,5.49A3.35,3.35,0,0,1,327.38,420.23Z"/><path class="p" d="M215.83,339.16l-9.6-5.54c-.77-.44-.67-1.22.22-1.73L216,326.4a3.33,3.33,0,0,1,3-.13l9.6,5.54c.77.45.67,1.23-.22,1.74L218.83,339A3.32,3.32,0,0,1,215.83,339.16Z"/><path class="p" d="M200.79,330.48l-9.6-5.54c-.77-.45-.68-1.22.21-1.74l9.51-5.49a3.34,3.34,0,0,1,3-.12l9.6,5.54c.77.44.67,1.22-.22,1.74l-9.51,5.49A3.35,3.35,0,0,1,200.79,330.48Z"/><path class="p" d="M185.72,321.78l-20.67-11.93c-.77-.45-.68-1.22.21-1.74l9.51-5.49a3.34,3.34,0,0,1,3-.12l20.67,11.93c.77.45.67,1.22-.22,1.74l-9.5,5.49A3.34,3.34,0,0,1,185.72,321.78Z"/><path class="p" d="M196.25,311.2l-16.77-9.68c-.77-.45-.68-1.22.21-1.74l9.51-5.49a3.34,3.34,0,0,1,3-.12L209,303.85c.77.45.68,1.22-.21,1.74l-9.51,5.49A3.34,3.34,0,0,1,196.25,311.2Z"/><path class="p" d="M230.65,347.72l-9.6-5.54c-.77-.44-.67-1.22.22-1.74l9.51-5.49a3.32,3.32,0,0,1,3-.12l9.6,5.54c.77.45.67,1.22-.22,1.74l-9.5,5.49A3.34,3.34,0,0,1,230.65,347.72Z"/><path class="p" d="M245.47,356.28l-9.6-5.54c-.77-.45-.67-1.22.22-1.74l9.51-5.49a3.32,3.32,0,0,1,3-.12l9.6,5.54c.77.44.68,1.22-.21,1.73l-9.51,5.49A3.35,3.35,0,0,1,245.47,356.28Z"/><path class="p" d="M260.29,364.84l-9.6-5.55c-.77-.44-.67-1.22.22-1.73l9.51-5.49a3.35,3.35,0,0,1,3-.13l9.59,5.54c.77.45.68,1.23-.21,1.74l-9.51,5.49A3.38,3.38,0,0,1,260.29,364.84Z"/><path class="p" d="M275.11,373.39l-9.59-5.54c-.78-.44-.68-1.22.21-1.73l9.51-5.49a3.35,3.35,0,0,1,3-.13l9.59,5.54c.77.45.68,1.22-.21,1.74l-9.51,5.49A3.34,3.34,0,0,1,275.11,373.39Z"/><path class="p" d="M289.93,382l-9.59-5.54c-.77-.45-.68-1.22.21-1.74l9.51-5.49a3.34,3.34,0,0,1,3-.12l9.6,5.54c.77.44.67,1.22-.22,1.73l-9.51,5.49A3.35,3.35,0,0,1,289.93,382Z"/><path class="p" d="M304.75,390.51,295.16,385c-.77-.45-.68-1.23.21-1.74l9.51-5.49a3.38,3.38,0,0,1,3-.13l9.6,5.55c.77.44.67,1.22-.22,1.73l-9.51,5.49A3.35,3.35,0,0,1,304.75,390.51Z"/><path class="p" d="M319.58,399.06l-9.6-5.54c-.77-.44-.68-1.22.21-1.73l9.51-5.49a3.35,3.35,0,0,1,3-.13l9.6,5.54c.77.45.67,1.22-.22,1.74l-9.51,5.49A3.32,3.32,0,0,1,319.58,399.06Z"/><path class="p" d="M334.4,407.62l-9.6-5.54c-.77-.45-.67-1.22.22-1.74l9.5-5.49a3.34,3.34,0,0,1,3-.12l9.6,5.54c.77.44.67,1.22-.22,1.74l-9.51,5.49A3.35,3.35,0,0,1,334.4,407.62Z"/><path class="p" d="M349.22,416.18l-9.6-5.54c-.77-.45-.67-1.23.22-1.74l9.51-5.49a3.32,3.32,0,0,1,3-.12l9.6,5.54c.77.44.67,1.22-.22,1.73l-9.51,5.49A3.33,3.33,0,0,1,349.22,416.18Z"/><path class="p" d="M375.57,431.39,354.63,419.3c-.77-.45-.68-1.22.21-1.74l9.51-5.49a3.34,3.34,0,0,1,3-.12L388.3,424c.77.44.67,1.22-.22,1.73l-9.51,5.49A3.33,3.33,0,0,1,375.57,431.39Z"/><path class="p" d="M404.42,414.73l-17.67-10.2c-.77-.45-.68-1.23.21-1.74l9.51-5.49a3.34,3.34,0,0,1,3-.12l17.67,10.2c.77.44.68,1.22-.21,1.74l-9.51,5.49A3.34,3.34,0,0,1,404.42,414.73Z"/><path class="p" d="M256.6,346.05,247,340.51c-.77-.45-.68-1.23.21-1.74l9.51-5.49a3.34,3.34,0,0,1,3-.12l9.6,5.54c.77.44.67,1.22-.22,1.73l-9.51,5.49A3.35,3.35,0,0,1,256.6,346.05Z"/><path class="p" d="M241.41,337.28l-9.59-5.54c-.77-.45-.68-1.23.21-1.74l9.51-5.49a3.34,3.34,0,0,1,3-.12l9.6,5.54c.77.44.67,1.22-.22,1.73l-9.51,5.49A3.35,3.35,0,0,1,241.41,337.28Z"/><path class="p" d="M226.22,328.51,216.63,323c-.77-.45-.68-1.23.21-1.74l9.51-5.49a3.34,3.34,0,0,1,3-.12l9.6,5.54c.77.44.67,1.22-.22,1.73l-9.51,5.49A3.35,3.35,0,0,1,226.22,328.51Z"/><path class="p" d="M211,319.74l-9.59-5.54c-.77-.45-.68-1.23.21-1.74l9.51-5.49a3.34,3.34,0,0,1,3-.12l9.6,5.54c.77.44.67,1.22-.22,1.73L214,319.61A3.35,3.35,0,0,1,211,319.74Z"/><path class="p" d="M271.43,354.6l-9.6-5.54c-.77-.44-.68-1.22.21-1.73l9.51-5.49a3.35,3.35,0,0,1,3-.13l9.6,5.54c.77.45.67,1.23-.22,1.74l-9.51,5.49A3.32,3.32,0,0,1,271.43,354.6Z"/><path class="p" d="M286.25,363.16l-9.6-5.54c-.77-.44-.67-1.22.21-1.74l9.51-5.49a3.34,3.34,0,0,1,3-.12l9.6,5.54c.77.45.67,1.22-.22,1.74L289.25,363A3.32,3.32,0,0,1,286.25,363.16Z"/><path class="p" d="M301.07,371.72l-9.6-5.54c-.77-.45-.67-1.22.22-1.74L301.2,359a3.32,3.32,0,0,1,3-.12l9.6,5.54c.77.44.67,1.22-.22,1.73l-9.51,5.49A3.33,3.33,0,0,1,301.07,371.72Z"/><path class="p" d="M315.89,380.28l-9.6-5.55c-.77-.44-.67-1.22.22-1.73l9.51-5.49a3.33,3.33,0,0,1,3-.13l9.6,5.54c.77.45.67,1.23-.22,1.74l-9.51,5.49A3.36,3.36,0,0,1,315.89,380.28Z"/><path class="p" d="M330.71,388.83l-9.6-5.54c-.77-.44-.67-1.22.22-1.73l9.51-5.49a3.33,3.33,0,0,1,3-.13l9.6,5.54c.77.45.68,1.22-.21,1.74l-9.51,5.49A3.34,3.34,0,0,1,330.71,388.83Z"/><path class="p" d="M345.53,397.39l-9.6-5.54c-.77-.45-.67-1.22.22-1.74l9.51-5.49a3.32,3.32,0,0,1,3-.12l9.6,5.54c.77.44.68,1.22-.21,1.73l-9.51,5.49A3.35,3.35,0,0,1,345.53,397.39Z"/><path class="p" d="M360.35,406l-9.6-5.55c-.77-.44-.67-1.22.22-1.73l9.51-5.49a3.38,3.38,0,0,1,3-.13l9.59,5.55c.77.44.68,1.22-.21,1.73l-9.51,5.49A3.38,3.38,0,0,1,360.35,406Z"/><path class="p" d="M375.17,414.5,365.58,409c-.78-.44-.68-1.22.21-1.73l9.51-5.49a3.35,3.35,0,0,1,3-.13l9.59,5.54c.77.45.68,1.22-.21,1.74l-9.51,5.49A3.34,3.34,0,0,1,375.17,414.5Z"/><path class="p" d="M390,423.06l-9.59-5.54c-.77-.45-.68-1.22.21-1.74l9.51-5.49a3.34,3.34,0,0,1,3-.12l9.6,5.54c.77.44.67,1.22-.22,1.73l-9.51,5.5A3.38,3.38,0,0,1,390,423.06Z"/><path class="p" d="M248.8,324.88l-9.6-5.54c-.77-.44-.67-1.22.22-1.73l9.51-5.49a3.33,3.33,0,0,1,3-.13l9.6,5.54c.77.45.68,1.22-.21,1.74l-9.51,5.49A3.34,3.34,0,0,1,248.8,324.88Z"/><path class="p" d="M234.05,316.37l-9.59-5.54c-.78-.45-.68-1.23.21-1.74l9.51-5.49a3.34,3.34,0,0,1,3-.12l9.59,5.54c.77.44.68,1.22-.21,1.73l-9.51,5.49A3.35,3.35,0,0,1,234.05,316.37Z"/><path class="p" d="M219.31,307.85l-9.6-5.54c-.77-.44-.68-1.22.21-1.73l9.51-5.49a3.35,3.35,0,0,1,3-.13l9.6,5.54c.77.45.67,1.22-.22,1.74l-9.51,5.49A3.32,3.32,0,0,1,219.31,307.85Z"/><path class="p" d="M204.56,299.34,195,293.8c-.77-.45-.67-1.22.22-1.74l9.51-5.49a3.32,3.32,0,0,1,3-.12l9.6,5.54c.77.44.67,1.22-.22,1.73l-9.51,5.49A3.33,3.33,0,0,1,204.56,299.34Z"/><path class="p" d="M219.72,290.58,210.13,285c-.78-.44-.68-1.22.21-1.73l3.14-1.82a3.34,3.34,0,0,1,3-.12l9.6,5.54c.77.44.67,1.22-.22,1.73l-3.14,1.82A3.34,3.34,0,0,1,219.72,290.58Z"/><path class="p" d="M239,301.69l-9.6-5.54c-.77-.44-.67-1.22.22-1.73l3.14-1.82a3.34,3.34,0,0,1,3-.12l9.59,5.54c.77.44.68,1.22-.21,1.74L242,301.57A3.32,3.32,0,0,1,239,301.69Z"/><path class="p" d="M253.65,310.17l-9.59-5.54c-.77-.44-.68-1.22.21-1.73l3.15-1.82a3.32,3.32,0,0,1,3-.12l9.6,5.54c.77.44.67,1.22-.22,1.73l-3.14,1.82A3.34,3.34,0,0,1,253.65,310.17Z"/><path class="p" d="M268.34,318.65l-9.6-5.54c-.77-.44-.67-1.22.22-1.73l3.14-1.82a3.34,3.34,0,0,1,3-.12l9.6,5.54c.77.44.67,1.22-.22,1.73l-3.14,1.82A3.34,3.34,0,0,1,268.34,318.65Z"/><path class="p" d="M283,327.13l-9.6-5.54c-.77-.44-.68-1.22.21-1.74l3.15-1.81a3.32,3.32,0,0,1,3-.12l9.6,5.54c.77.44.68,1.22-.21,1.73L286,327A3.32,3.32,0,0,1,283,327.13Z"/><path class="p" d="M365,374.47l-9.59-5.54c-.77-.45-.68-1.22.21-1.74l3.15-1.81a3.33,3.33,0,0,1,3-.13l9.6,5.54c.77.45.67,1.22-.22,1.74L368,374.34A3.35,3.35,0,0,1,365,374.47Z"/><path class="p" d="M379.7,383l-9.6-5.54c-.77-.45-.67-1.23.22-1.74l3.14-1.81a3.35,3.35,0,0,1,3-.13l9.6,5.54c.77.45.67,1.22-.22,1.74l-3.14,1.81A3.35,3.35,0,0,1,379.7,383Z"/><path class="p" d="M394.39,391.43l-9.6-5.55c-.77-.44-.67-1.22.22-1.73l3.14-1.82a3.34,3.34,0,0,1,3-.12l9.59,5.54c.77.45.68,1.22-.21,1.74l-3.15,1.81A3.33,3.33,0,0,1,394.39,391.43Z"/><path class="p" d="M409.07,399.9l-9.59-5.54c-.78-.44-.68-1.22.21-1.73l3.14-1.82a3.34,3.34,0,0,1,3-.12l9.6,5.54c.77.44.67,1.22-.22,1.74l-3.14,1.81A3.34,3.34,0,0,1,409.07,399.9Z"/><path class="p" d="M263.62,333.44,254,327.9c-.77-.45-.67-1.22.22-1.74l9.51-5.49a3.34,3.34,0,0,1,3-.12l9.59,5.54c.77.44.68,1.22-.21,1.73l-9.51,5.49A3.35,3.35,0,0,1,263.62,333.44Z"/><path class="p" d="M278.44,342l-9.6-5.54c-.77-.45-.67-1.23.22-1.74l9.51-5.49a3.38,3.38,0,0,1,3-.13l9.59,5.55c.77.44.68,1.22-.21,1.73l-9.51,5.49A3.35,3.35,0,0,1,278.44,342Z"/><path class="p" d="M293.26,350.55,283.67,345c-.77-.44-.68-1.22.21-1.73l9.51-5.49a3.35,3.35,0,0,1,3-.13L306,343.2c.78.45.68,1.22-.21,1.74l-9.51,5.49A3.34,3.34,0,0,1,293.26,350.55Z"/><path class="p" d="M308.08,359.11l-9.59-5.54c-.77-.45-.68-1.22.21-1.74l9.51-5.49a3.34,3.34,0,0,1,3-.12l9.6,5.54c.77.44.67,1.22-.22,1.74L311.09,359A3.38,3.38,0,0,1,308.08,359.11Z"/><path class="p" d="M322.91,367.67l-9.6-5.54c-.77-.45-.68-1.23.21-1.74L323,354.9a3.34,3.34,0,0,1,3-.12l9.6,5.54c.77.44.67,1.22-.22,1.73l-9.51,5.49A3.33,3.33,0,0,1,322.91,367.67Z"/><path class="p" d="M337.73,376.22l-9.6-5.54c-.77-.44-.67-1.22.21-1.73l9.51-5.49a3.35,3.35,0,0,1,3-.13l9.6,5.54c.77.45.67,1.23-.22,1.74l-9.51,5.49A3.32,3.32,0,0,1,337.73,376.22Z"/><path class="p" d="M352.55,384.78l-9.6-5.54c-.77-.45-.67-1.22.22-1.74l9.51-5.49a3.32,3.32,0,0,1,3-.12l9.6,5.54c.77.45.67,1.22-.22,1.74l-9.51,5.49A3.32,3.32,0,0,1,352.55,384.78Z"/><path class="p" d="M367.37,393.34l-9.6-5.54c-.77-.45-.67-1.23.22-1.74l9.51-5.49a3.32,3.32,0,0,1,3-.12l9.6,5.54c.77.44.67,1.22-.22,1.73l-9.51,5.49A3.33,3.33,0,0,1,367.37,393.34Z"/><path class="p" d="M382.19,401.89l-9.6-5.54c-.77-.44-.67-1.22.22-1.73l9.51-5.49a3.33,3.33,0,0,1,3-.13l9.6,5.54c.77.45.68,1.23-.21,1.74l-9.51,5.49A3.34,3.34,0,0,1,382.19,401.89Z"/><path class="p" d="M178.89,334.5l-28.27-16.32c-.77-.45-.67-1.23.22-1.74l9.51-5.49a3.32,3.32,0,0,1,3-.12l28.27,16.32c.77.44.67,1.22-.22,1.73l-9.51,5.49A3.36,3.36,0,0,1,178.89,334.5Z"/><path class="p" d="M361,439.62,332.7,423.3c-.77-.44-.67-1.22.22-1.73l9.51-5.49a3.33,3.33,0,0,1,3-.13l28.27,16.32c.77.44.67,1.22-.22,1.74L364,439.5A3.35,3.35,0,0,1,361,439.62Z"/><path class="p" d="M301.7,424.3l-9.6-5.54c-.77-.45-.68-1.22.21-1.74l11.33-6.54a3.34,3.34,0,0,1,3-.12l9.6,5.54c.77.45.67,1.22-.22,1.74l-11.33,6.54A3.32,3.32,0,0,1,301.7,424.3Z"/><path class="p" d="M194.06,362.16l-15.34-8.86c-.77-.45-.68-1.22.21-1.74L190.26,345a3.34,3.34,0,0,1,3-.12l15.34,8.86c.78.44.68,1.22-.21,1.74L197.07,362A3.38,3.38,0,0,1,194.06,362.16Z"/><path class="p" d="M287.42,416.06l-15.35-8.87c-.77-.44-.68-1.22.21-1.73l11.33-6.54a3.35,3.35,0,0,1,3-.13L302,407.66c.77.44.67,1.22-.22,1.73l-11.33,6.54A3.33,3.33,0,0,1,287.42,416.06Z"/><path class="p" d="M215.45,374.51l-15.35-8.87c-.77-.44-.67-1.22.22-1.73l11.32-6.54a3.35,3.35,0,0,1,3-.13L230,366.11c.77.44.67,1.22-.22,1.73l-11.33,6.54A3.36,3.36,0,0,1,215.45,374.51Z"/><path class="p" d="M214.75,357.3l66.74,38.53a.92.92,0,0,1,0,1.73l-11.56,6.67a3.28,3.28,0,0,1-3,0L200.2,365.7Z"/><path class="p" d="M343.12,439.82,353.81,446c.63.36.55,1-.18,1.42L349,450.09a2.77,2.77,0,0,1-2.47.1L335.84,444c-.63-.37-.55-1,.18-1.43l4.63-2.67A2.74,2.74,0,0,1,343.12,439.82Z"/><path class="p" d="M328.17,431.19l10.69,6.17c.64.36.56,1-.17,1.42l-4.64,2.68a2.75,2.75,0,0,1-2.46.1l-10.69-6.17c-.63-.37-.55-1,.18-1.42l4.63-2.68A2.72,2.72,0,0,1,328.17,431.19Z"/><path class="p" d="M313.35,422.63,324,428.8c.63.37.56,1-.17,1.43l-4.64,2.67a2.72,2.72,0,0,1-2.46.1l-10.69-6.17c-.63-.36-.55-1,.17-1.42l4.64-2.68A2.75,2.75,0,0,1,313.35,422.63Z"/><path class="p" d="M336.36,426.46l10.69,6.17c.63.37.55,1-.18,1.43l-4.63,2.67a2.74,2.74,0,0,1-2.47.1l-10.69-6.17c-.63-.36-.55-1,.18-1.42l4.63-2.68A2.77,2.77,0,0,1,336.36,426.46Z"/><path class="j" d="M487.56,195.86a4.41,4.41,0,0,1-2.23-.64,6.54,6.54,0,0,1-3.14-6.61,3.32,3.32,0,0,1,1.88-2.39,4,4,0,0,1,3.56.38,6.56,6.56,0,0,1,3.13,6.61,3.3,3.3,0,0,1-1.88,2.39A3.41,3.41,0,0,1,487.56,195.86ZM485.4,187a2.17,2.17,0,0,0-.92.19,2.32,2.32,0,0,0-1.29,1.67,5.46,5.46,0,0,0,2.65,5.49,3,3,0,0,0,2.63.33,2.32,2.32,0,0,0,1.29-1.68,5.44,5.44,0,0,0-2.65-5.49A3.4,3.4,0,0,0,485.4,187Z"/><path class="j" d="M499.78,202.92a4.51,4.51,0,0,1-2.23-.64,6.56,6.56,0,0,1-3.14-6.62,3.31,3.31,0,0,1,1.88-2.38,4,4,0,0,1,3.56.37,6.57,6.57,0,0,1,3.13,6.62,3.31,3.31,0,0,1-1.88,2.38A3.25,3.25,0,0,1,499.78,202.92ZM497.62,194a2.18,2.18,0,0,0-2.21,1.86,5.47,5.47,0,0,0,2.65,5.49,3,3,0,0,0,2.63.32A2.3,2.3,0,0,0,502,200a5.45,5.45,0,0,0-2.65-5.49A3.48,3.48,0,0,0,497.62,194Z"/><path class="j" d="M514.7,207.2c-.49,2.14-2.59,2.89-4.68,1.69a6,6,0,0,1-2.89-6c.5-2.14,2.59-2.89,4.68-1.69A6,6,0,0,1,514.7,207.2Z"/><polygon class="j" points="280.39 72.36 273.85 68.59 274.36 65.57 280.89 69.34 280.39 72.36"/><polygon class="j" points="289.89 77.85 283.35 74.07 283.86 71.05 290.39 74.83 289.89 77.85"/><polygon class="j" points="270.98 66.93 256.65 58.66 257.16 55.64 271.49 63.91 270.98 66.93"/><polygon class="j" points="283.81 130.32 262.58 118.06 262.27 115.11 283.5 127.37 283.81 130.32"/><polygon class="j" points="301.93 140.78 291.31 134.65 291.01 131.7 301.62 137.83 301.93 140.78"/><polygon class="j" points="290.8 140.86 281.75 135.63 281.44 132.68 290.49 137.91 290.8 140.86"/><polygon class="j" points="305.95 149.6 295.33 143.47 295.02 140.52 305.64 146.65 305.95 149.6"/><polygon class="j" points="324.19 166.64 282.47 142.55 282.16 139.6 323.88 163.69 324.19 166.64"/><polygon class="j" points="312.63 220.35 270.91 196.27 270.6 193.32 312.32 217.4 312.63 220.35"/><polygon class="j" points="328.67 229.62 318.06 223.49 317.75 220.54 328.36 226.67 328.67 229.62"/><polygon class="j" points="292.24 154.69 283.19 149.47 282.88 146.52 291.93 151.74 292.24 154.69"/><polygon class="j" points="307.39 163.44 296.77 157.31 296.46 154.36 307.08 160.49 307.39 163.44"/><polygon class="j" points="306.84 169.63 283.91 156.39 283.6 153.44 306.54 166.68 306.84 169.63"/><polygon class="j" points="322.19 178.49 311.58 172.36 311.27 169.41 321.89 175.54 322.19 178.49"/><polygon class="j" points="337.63 187.4 327.01 181.27 326.7 178.32 337.32 184.45 337.63 187.4"/><polygon class="j" points="362.53 201.78 342.44 190.18 342.13 187.23 362.22 198.83 362.53 201.78"/><polygon class="j" points="351.93 208.67 341.31 202.54 341.01 199.59 351.62 205.72 351.93 208.67"/><polygon class="j" points="376.83 223.04 356.75 211.45 356.44 208.5 376.52 220.09 376.83 223.04"/><polygon class="j" points="295.96 176.35 285.35 170.23 285.04 167.28 295.66 173.4 295.96 176.35"/><polygon class="j" points="311.4 185.26 300.78 179.13 300.47 176.18 311.09 182.31 311.4 185.26"/><polygon class="j" points="336.3 199.64 316.21 188.04 315.9 185.09 335.99 196.69 336.3 199.64"/><polygon class="j" points="366.28 210.45 355.67 204.32 355.36 201.37 365.98 207.5 366.28 210.45"/><polygon class="j" points="381.71 219.36 371.1 213.23 370.79 210.28 381.41 216.41 381.71 219.36"/><polygon class="j" points="406.62 233.74 386.53 222.14 386.22 219.19 406.31 230.78 406.62 233.74"/><polygon class="j" points="345.28 239.21 334.66 233.08 334.36 230.13 344.97 236.25 345.28 239.21"/><polygon class="j" points="370.18 253.58 350.1 241.99 349.79 239.03 369.88 250.63 370.18 253.58"/><polygon class="j" points="297.4 190.19 286.79 184.06 286.48 181.11 297.1 187.24 297.4 190.19"/><polygon class="j" points="322.31 204.57 302.22 192.97 301.91 190.02 322 201.62 322.31 204.57"/><polygon class="j" points="359.49 253.91 348.88 247.78 348.57 244.83 359.18 250.96 359.49 253.91"/><polygon class="j" points="384.39 268.29 364.31 256.69 364 253.74 384.09 265.34 384.39 268.29"/><polygon class="j" points="355.92 184.96 345.31 178.83 345 175.88 355.61 182.01 355.92 184.96"/><polygon class="j" points="339.87 175.69 329.26 169.56 328.95 166.61 339.56 172.74 339.87 175.69"/><polygon class="j" points="380.82 199.34 360.74 187.74 360.43 184.79 380.52 196.39 380.82 199.34"/><polygon class="j" points="294.21 168.84 284.63 163.31 284.32 160.36 293.9 165.89 294.21 168.84"/><polygon class="j" points="322.61 185.24 299.33 171.79 299.02 168.84 322.3 182.28 322.61 185.24"/><polygon class="j" points="351.01 201.63 327.73 188.19 327.42 185.24 350.7 198.68 351.01 201.63"/><polygon class="j" points="395.58 207.85 386 202.32 385.69 199.37 395.27 204.9 395.58 207.85"/><polygon class="j" points="423.98 224.25 400.7 210.81 400.39 207.86 423.67 221.3 423.98 224.25"/><polygon class="j" points="452.38 240.65 429.1 227.21 428.79 224.26 452.07 237.7 452.38 240.65"/><polygon class="j" points="309.56 190.7 286.28 177.26 285.97 174.31 309.25 187.75 309.56 190.7"/><polygon class="j" points="321.83 197.79 314.68 193.66 314.37 190.71 321.52 194.84 321.83 197.79"/><polygon class="j" points="334.13 204.89 326.98 200.76 326.67 197.81 333.82 201.94 334.13 204.89"/><polygon class="j" points="356.86 218.02 339.27 207.86 338.97 204.91 356.56 215.07 356.86 218.02"/><polygon class="j" points="374.4 208.63 367.25 204.51 366.94 201.56 374.1 205.68 374.4 208.63"/><polygon class="j" points="397.14 221.76 379.55 211.61 379.24 208.66 396.83 218.81 397.14 221.76"/><polygon class="j" points="401.92 224.52 384.33 214.37 384.02 211.41 401.61 221.57 401.92 224.52"/><polygon class="j" points="332.88 245.05 309.94 231.81 309.64 228.86 332.57 242.1 332.88 245.05"/><polygon class="j" points="348.23 253.91 337.61 247.79 337.31 244.84 347.92 250.96 348.23 253.91"/><polygon class="j" points="363.66 262.82 353.05 256.69 352.74 253.74 363.35 259.87 363.66 262.82"/><polygon class="j" points="388.56 277.2 368.48 265.6 368.17 262.65 388.26 274.25 388.56 277.2"/><polygon class="j" points="404.49 286.4 393.88 280.27 393.57 277.32 404.19 283.45 404.49 286.4"/><polygon class="j" points="429.4 300.78 409.31 289.18 409 286.23 429.09 297.82 429.4 300.78"/><polygon class="j" points="358.3 272.74 347.69 266.61 347.38 263.66 358 269.79 358.3 272.74"/><polygon class="j" points="383.2 287.11 363.12 275.52 362.81 272.56 382.9 284.16 383.2 287.11"/><polygon class="j" points="302.86 240.72 292.24 234.59 291.93 231.64 302.55 237.77 302.86 240.72"/><polygon class="j" points="318.29 249.63 307.67 243.5 307.37 240.55 317.98 246.68 318.29 249.63"/><polygon class="j" points="343.19 264.01 323.1 252.41 322.8 249.46 342.88 261.06 343.19 264.01"/><polygon class="j" points="320.24 244.26 310.66 238.73 310.36 235.78 319.94 241.31 320.24 244.26"/><polygon class="j" points="348.64 260.66 325.36 247.22 325.06 244.26 348.34 257.71 348.64 260.66"/><polygon class="j" points="377.05 277.05 353.76 263.61 353.46 260.66 376.74 274.1 377.05 277.05"/><polygon class="j" points="297.67 244.23 274.39 230.79 274.08 227.84 297.36 241.28 297.67 244.23"/><polygon class="j" points="309.94 251.32 302.79 247.19 302.48 244.24 309.63 248.37 309.94 251.32"/><polygon class="j" points="322.24 258.42 315.09 254.29 314.78 251.34 321.93 255.47 322.24 258.42"/><polygon class="j" points="344.98 271.55 327.39 261.39 327.08 258.44 344.67 268.6 344.98 271.55"/><polygon class="j" points="349.76 274.31 332.17 264.15 331.86 261.2 349.45 271.35 349.76 274.31"/><polygon class="j" points="297.56 218.16 290.41 214.03 290.1 211.08 297.25 215.21 297.56 218.16"/><polygon class="j" points="320.3 231.28 302.7 221.13 302.4 218.18 319.99 228.33 320.3 231.28"/><polygon class="j" points="343.52 244.69 325.94 234.54 325.63 231.59 343.22 241.75 343.52 244.69"/><polygon class="j" points="438.34 312.44 427.73 306.31 427.42 303.36 438.04 309.49 438.34 312.44"/><polygon class="j" points="463.25 326.82 443.16 315.22 442.85 312.27 462.94 323.87 463.25 326.82"/><polygon class="j" points="399.14 289.81 381.56 279.66 381.25 276.71 398.84 286.86 399.14 289.81"/><polygon class="j" points="422.38 303.23 404.79 293.07 404.48 290.12 422.07 300.27 422.38 303.23"/><polygon class="j" points="276.41 184.58 269.26 180.45 268.96 177.5 276.11 181.63 276.41 184.58"/><polygon class="j" points="299.15 197.7 281.56 187.55 281.26 184.6 298.85 194.75 299.15 197.7"/><polygon class="j" points="322.38 211.12 304.79 200.96 304.49 198.01 322.07 208.16 322.38 211.12"/></svg>